<svg class="chess-piece chess-piece--bq"   width="490" height="468" viewBox="0 0 490 468" version="1.1" id="bQ" xmlns="http://www.w3.org/2000/svg" data-piece="bQ" data-piece-name="black-queen" data-color="black" data-type="queen" data-original="queen-black">
	<path d="M 243 44.117 C 223.906 49.860, 219.983 74.798, 236.281 86.838 C 240.682 90.089, 241.663 91.326, 241.317 93.188 C 241.080 94.460, 235.772 126.981, 229.520 165.458 C 217.199 241.284, 217.277 240.970, 211.743 236.750 C 209.904 235.348, 157.990 117.919, 158.017 115.223 C 158.027 114.275, 159.221 112.375, 160.671 111 C 168.098 103.957, 168.209 90.863, 160.912 82.552 C 147.621 67.415, 123 76.474, 123 96.500 C 123 105.553, 127.832 112.611, 136.782 116.631 C 139.687 117.936, 142.261 119.565, 142.503 120.252 C 142.744 120.938, 145.228 146.475, 148.023 177 C 150.818 207.525, 153.505 236.325, 153.996 241 C 154.828 248.934, 154.751 249.617, 152.833 251.250 C 148.634 254.826, 152.525 258.931, 102.361 198 C 83.117 174.625, 67.054 154.967, 66.667 154.316 C 66.280 153.665, 66.977 151.190, 68.216 148.816 C 79.617 126.973, 49.867 106.679, 32.803 124.658 C 20.382 137.746, 29.910 161, 47.693 161 C 49.927 161, 52.214 161.563, 52.775 162.250 C 53.336 162.938, 62.131 185.100, 72.319 211.500 C 96.066 273.031, 114.064 318.907, 117.395 326.395 C 121.958 336.649, 125.231 364.955, 124.578 388.500 C 124.288 398.950, 123.776 408.875, 123.439 410.556 C 122.684 414.328, 123.133 414.698, 134 419.288 C 175.905 436.989, 232.831 445.769, 271.993 440.573 C 304.483 436.263, 362.012 421.601, 368.633 415.943 C 370.356 414.471, 373.349 412.970, 375.283 412.607 C 380.850 411.562, 381.272 410.433, 379.872 400.338 C 379.148 395.126, 378.615 379.397, 378.573 362 L 378.500 332.500 388.396 308.500 C 393.840 295.300, 409.148 256.825, 422.416 223 L 446.538 161.500 452.019 160.907 C 476.835 158.221, 480.042 125.535, 456.194 118.358 C 439.060 113.201, 423.198 132.383, 431.099 148.705 C 432.254 151.090, 432.975 153.594, 432.702 154.270 C 432.429 154.947, 417.903 172.825, 400.423 194 C 382.942 215.175, 364.836 237.113, 360.186 242.750 C 351.487 253.298, 349.759 254.350, 346.228 251.250 C 344.251 249.514, 344.250 249.347, 346.001 231 C 346.972 220.825, 349.670 191.800, 351.996 166.500 C 354.322 141.200, 356.656 119.966, 357.182 119.314 C 357.708 118.662, 359.508 117.828, 361.181 117.460 C 365.251 116.566, 371.883 110.443, 374.134 105.500 C 380.565 91.381, 370.019 75, 354.500 75 C 335.755 75, 326.038 97.045, 338.348 111.644 C 339.807 113.374, 340.984 115.399, 340.965 116.144 C 340.890 118.999, 288.413 236.372, 286.750 237.404 C 282.159 240.252, 282.187 240.371, 269.773 164.398 C 263.312 124.854, 258.132 91.989, 258.263 91.365 C 258.393 90.740, 260.520 88.696, 262.989 86.823 C 271.668 80.234, 275.041 72.317, 273.136 63 C 270.287 49.063, 256.104 40.176, 243 44.117 M 217.500 307.036 C 192.671 309.236, 169.468 313.847, 146.864 321.073 C 132.887 325.541, 130.359 326.887, 131.306 329.355 C 132.171 331.609, 134.636 331.424, 142.337 328.525 C 185.240 312.376, 252.753 307.444, 306.647 316.522 C 323.396 319.343, 333.183 321.752, 349.757 327.131 C 362.251 331.187, 364 331.297, 364 328.028 C 364 323.432, 324.371 312.653, 292 308.444 C 277.362 306.541, 232.632 305.696, 217.500 307.036 M 240.750 333.563 C 237.037 335.469, 234 337.466, 234 338.001 C 234 339.302, 247.399 346, 250 346 C 252.603 346, 266 339.301, 266 338 C 266 336.608, 252.496 329.990, 249.775 330.049 C 248.524 330.076, 244.463 331.657, 240.750 333.563 M 168.039 343.177 C 164.114 345.943, 161.071 348.714, 161.279 349.336 C 161.664 350.491, 174.085 354.858, 177.242 354.950 C 179.492 355.015, 192 346.037, 192 344.357 C 192 343.653, 190.313 342.611, 188.250 342.042 C 186.188 341.472, 182.402 340.364, 179.838 339.578 L 175.176 338.149 168.039 343.177 M 315.750 340.862 C 311.488 342.261, 308 343.908, 308 344.522 C 308 346.076, 320.616 355, 322.813 355 C 325.677 355, 338.346 350.462, 338.735 349.296 C 339.076 348.273, 328.048 339.869, 325 338.829 C 324.175 338.548, 320.012 339.462, 315.750 340.862 M 230 359.684 C 196.138 362.198, 133.254 376.725, 132.184 382.281 C 131.557 385.540, 135.096 385.228, 151.281 380.601 C 226.690 359.040, 286.411 359.544, 358.127 382.345 C 366.016 384.853, 368.447 384.611, 367.848 381.380 C 366.908 376.305, 312.166 363.075, 279.500 360.028 C 269.397 359.085, 240.741 358.886, 230 359.684 M 229 379.030 C 197.907 381.453, 171.447 387.203, 142.858 397.750 C 132.520 401.564, 129.470 403.870, 131.748 406.148 C 133.095 407.495, 132.772 407.581, 150.816 401.073 C 215.250 377.833, 294.349 378.257, 358.252 402.187 C 368.892 406.171, 372 406.480, 372 403.554 C 372 398.091, 325.934 384.484, 294 380.514 C 278.630 378.603, 244.486 377.824, 229 379.030" stroke="none" fill="black" fill-rule="evenodd"/>
</svg>