<svg class="chess-piece chess-piece--wk"   width="490" height="468" viewBox="0 0 490 468" version="1.1" id="wK" xmlns="http://www.w3.org/2000/svg" data-piece="wK" data-piece-name="white-king" data-color="white" data-type="king" data-original="king-black">
	<path d="M 234.500 55.986 L 184.500 56.500 184.205 109.500 C 183.881 167.913, 183.820 167.242, 190.081 174.355 C 194.633 179.526, 194.723 179.374, 185.937 181.358 C 179.466 182.819, 179.484 183.665, 186.083 188.214 C 201.887 199.107, 218.182 215.926, 229.713 233.246 C 233.284 238.611, 236.577 243, 237.031 243 C 237.484 243, 239.483 240.320, 241.473 237.045 C 252.269 219.272, 272.169 198.430, 288.750 187.528 C 294.611 183.675, 294.187 182.450, 286.488 180.998 C 278.733 179.535, 277.981 178.693, 281.277 175.169 C 286.961 169.089, 286.796 170.746, 287.531 112.173 C 288.202 58.619, 288.014 54.151, 285.128 55.236 C 284.782 55.366, 262 55.703, 234.500 55.986 M 192.041 63.924 C 190.435 66.924, 190.630 138.113, 192.250 140.322 C 193.399 141.888, 196.963 142.005, 236.500 141.763 L 279.500 141.500 279.500 102 L 279.500 62.500 236.291 62.239 C 194.374 61.987, 193.051 62.037, 192.041 63.924 M 201 66.939 C 201 68.768, 234.469 98.066, 236.232 97.780 C 238.616 97.394, 271.147 68.046, 270.446 66.913 C 269.683 65.677, 201 65.703, 201 66.939 M 195.667 70.667 C 194.542 71.792, 194.879 132.807, 196.015 133.509 C 197.065 134.158, 232 103.495, 232 101.924 C 232 101.003, 197.940 70.014, 196.917 70.005 C 196.596 70.002, 196.033 70.300, 195.667 70.667 M 257.535 85.250 C 248.239 93.638, 240.471 101.011, 240.272 101.635 C 239.947 102.653, 272.755 133.024, 275.053 133.833 C 275.636 134.039, 276 121.842, 276 102.083 C 276 84.438, 275.648 70, 275.218 70 C 274.788 70, 266.830 76.862, 257.535 85.250 M 218.390 120.247 C 209.101 128.589, 201.500 135.883, 201.500 136.457 C 201.500 137.859, 268.969 138.431, 270.359 137.041 C 271.006 136.394, 269.667 134.588, 266.454 131.778 C 263.764 129.425, 256.420 122.868, 250.135 117.206 C 243.849 111.545, 237.935 106.500, 236.993 105.996 C 235.615 105.259, 231.987 108.038, 218.390 120.247 M 228 147.126 C 220.098 148.407, 211.043 153.178, 205.728 158.859 C 189.161 176.571, 204.864 200.946, 234 202.744 C 272.989 205.150, 289.428 165.844, 255.836 150.536 C 247.188 146.596, 238.120 145.485, 228 147.126 M 227 151.390 C 198.575 157.711, 194.399 184.031, 219.946 195.854 C 228.428 199.779, 244.925 199.702, 253.500 195.698 C 264.377 190.618, 270 183.568, 270 175.010 C 270 158.128, 248.878 146.526, 227 151.390 M 98.539 171.112 C 69.132 175.397, 46.841 194.907, 39.255 223 C 36.337 233.809, 36.879 258.693, 40.306 271.191 C 48.002 299.262, 58.950 316.383, 87.819 345.500 C 99.712 357.495, 106.390 365.027, 107.838 368.078 C 112.156 377.173, 112.472 397.148, 108.450 406.775 C 106.199 412.161, 106.548 412.773, 113.750 416.071 C 190.444 451.188, 274.534 452.032, 353.563 418.478 C 367.843 412.415, 367.530 412.776, 364.868 405.450 C 363.117 400.629, 362.687 397.129, 362.603 387 C 362.458 369.384, 362.703 368.952, 385.548 346.500 C 406.869 325.547, 415.710 314.279, 423.997 297.500 C 434.135 276.972, 437.477 263.602, 437.369 244 C 436.978 172.957, 362.241 147.077, 292.447 193.816 C 271.262 208.003, 247.178 234.670, 240.085 251.796 C 238.206 256.331, 236.432 255.789, 233.386 249.750 C 222.100 227.372, 197.115 201.890, 172.500 187.652 C 148.908 174.006, 121.203 167.810, 98.539 171.112 M 202 313.056 C 176.548 314.914, 140.623 320.561, 122 325.630 C 107.932 329.460, 95.386 333.361, 94.250 334.258 C 90.883 336.916, 94.021 340.701, 98.259 339.094 C 104.315 336.796, 127.543 330.608, 139.765 328.036 C 194.252 316.571, 257.768 315.304, 315 324.543 C 331.107 327.143, 358.175 333.439, 368.407 336.965 C 375.497 339.408, 378.854 339.545, 379.668 337.422 C 380.645 334.876, 378.109 333.350, 367.500 330.099 C 345.250 323.281, 315.604 317.453, 288 314.470 C 270.623 312.593, 219.795 311.757, 202 313.056 M 227.821 335.757 C 224.033 337.715, 221.360 339.705, 221.644 340.354 C 222.258 341.761, 235.116 348, 237.399 348 C 239.712 348, 253 341.186, 253 340 C 253 338.550, 239.409 331.976, 236.775 332.152 C 235.524 332.236, 231.495 333.858, 227.821 335.757 M 146.996 346.139 C 143.082 348.888, 140.050 351.650, 140.259 352.278 C 140.468 352.905, 144.293 354.509, 148.758 355.841 L 156.877 358.263 163.389 353.617 C 166.970 351.061, 170.180 348.517, 170.522 347.964 C 171.203 346.863, 167.349 345.045, 159.306 342.673 L 154.113 341.141 146.996 346.139 M 312.089 343.619 C 308.013 344.886, 304.253 346.347, 303.734 346.866 C 302.662 347.938, 315.528 357.909, 318.055 357.965 C 320.705 358.024, 333.361 353.417, 333.749 352.252 C 334.097 351.208, 325.798 344.477, 321.500 342.319 C 320.018 341.575, 317.579 341.912, 312.089 343.619 M 209.369 359.061 C 187.998 361.132, 159.371 367.387, 134 375.527 C 118.948 380.356, 116.311 381.763, 117.332 384.422 C 118.253 386.823, 121.025 386.391, 136.315 381.468 C 174.824 369.068, 201.448 364.572, 236.500 364.548 C 271.734 364.524, 300.724 369.384, 338.128 381.585 C 352.137 386.155, 355.335 386.354, 354.803 382.623 C 354.007 377.045, 297.006 362.369, 263.144 359.023 C 251.384 357.861, 221.528 357.882, 209.369 359.061 M 216 380.002 C 182.501 382.763, 151.730 390.210, 122 402.750 C 112.069 406.939, 111 407.646, 111 410.015 C 111 413.291, 114.080 413.010, 123.816 408.845 C 196.070 377.938, 273.859 378.017, 353.377 409.079 C 359.067 411.302, 359.296 411.316, 360.610 409.519 C 363.169 406.019, 361.070 404.810, 339.500 397.372 C 298.233 383.141, 253.779 376.889, 216 380.002" stroke="none" fill="white" fill-rule="evenodd"/>
</svg>