<svg class="chess-piece chess-piece--wr"   width="472" height="458" viewBox="0 0 472 458" version="1.1" id="wR" xmlns="http://www.w3.org/2000/svg" data-piece="wR" data-piece-name="white-rook" data-color="white" data-type="rook" data-original="rook-black">
	<path d="M 78 13.752 C 71.217 17.140, 71 18.443, 71.032 55.500 L 71.060 88.500 90.010 106.386 C 104.836 120.378, 109.082 124.949, 109.520 127.386 C 109.827 129.098, 109.949 172.387, 109.789 223.582 L 109.500 316.664 99 328.493 C 93.225 334.999, 86.587 342.536, 84.250 345.242 L 80 350.163 80 366.975 C 80 385.085, 80.026 385, 74.553 385 C 71.430 385, 67.044 388.650, 65.379 392.636 C 63.217 397.809, 63.481 421.456, 65.752 426 C 69.529 433.562, 56.583 432.997, 226 432.995 C 374.497 432.993, 377.563 432.954, 380.701 431.040 C 386.448 427.537, 387.178 424.725, 386.819 407.469 L 386.500 392.105 383.054 388.553 C 380.564 385.986, 378.746 385, 376.504 385 C 371.266 385, 371.001 384.089, 370.992 366.050 L 370.983 349.500 356.242 333.002 L 341.500 316.504 341.211 223.502 C 341.051 172.351, 341.179 129.150, 341.495 127.500 C 341.927 125.241, 346.752 120.056, 361.034 106.503 L 380 88.507 379.996 55.003 C 379.991 8.690, 382.947 12, 341.591 12 C 320.711 12, 313.924 12.300, 313.309 13.250 C 312.864 13.938, 312.275 21.886, 312 30.914 L 311.500 47.328 298.729 51.597 L 285.958 55.866 279.229 53.546 C 275.528 52.269, 269.913 50.242, 266.750 49.041 L 261 46.856 261 30.628 C 261 19.340, 260.635 14.035, 259.800 13.200 C 257.976 11.376, 192.667 11.491, 191.148 13.322 C 190.479 14.128, 189.944 20.994, 189.776 30.941 L 189.500 47.238 177.809 51.533 L 166.118 55.827 156.809 52.892 C 151.689 51.278, 145.588 49.255, 143.250 48.396 L 139 46.835 139 30.617 C 139 19.337, 138.635 14.035, 137.800 13.200 C 135.659 11.059, 82.407 11.550, 78 13.752 M 84.685 86.378 C 83.298 89.993, 83.577 90, 228 90 C 372.423 90, 372.702 89.993, 371.315 86.378 C 370.522 84.313, 85.478 84.313, 84.685 86.378 M 118.910 122.608 C 115.258 127.009, 115.035 127, 224.257 127 C 293.259 127, 327.768 126.659, 329.066 125.965 C 331.405 124.713, 331.589 122.440, 329.418 121.607 C 328.548 121.273, 281.128 121, 224.041 121 C 129.894 121, 120.121 121.149, 118.910 122.608 M 118.250 315.662 C 116.370 316.421, 116.747 318.794, 118.934 319.965 C 120.232 320.659, 154.741 321, 223.743 321 C 332.965 321, 332.742 321.009, 329.090 316.608 C 327.878 315.149, 318.140 315.007, 223.628 315.079 C 166.357 315.122, 118.938 315.385, 118.250 315.662 M 92.278 349.122 C 88.344 353.056, 86.429 353, 224.548 353 C 315.394 353, 357.084 352.673, 357.527 351.956 C 357.882 351.382, 357.628 350.257, 356.964 349.456 C 355.384 347.553, 94.177 347.223, 92.278 349.122 M 90.473 386.044 C 87.989 390.062, 85.899 390.001, 224.372 389.985 C 299.122 389.976, 357.106 389.586, 357.896 389.086 C 358.663 388.600, 359.015 387.481, 358.677 386.601 C 357.924 384.638, 91.683 384.085, 90.473 386.044" stroke="none" fill="white" fill-rule="evenodd"/>
</svg>