<svg class="chess-piece chess-piece--bb"   width="374" height="672" viewBox="0 0 374 672" version="1.1" id="bB" xmlns="http://www.w3.org/2000/svg" data-piece="bB" data-piece-name="black-bishop" data-color="black" data-type="bishop" data-original="bB">
	<path d="M 181.631 23.347 C 178.041 38.376, 161.187 70.931, 143.500 97 C 129.027 118.333, 118.278 138.576, 112.438 155.500 C 108.701 166.330, 108.641 166.739, 108.571 182 C 108.491 199.439, 109.920 205.468, 118.272 222.927 C 123.050 232.915, 141.652 252.634, 150.250 256.825 C 156.048 259.651, 156.201 260.576, 150.985 261.275 C 143.174 262.323, 134.421 268.383, 129.396 276.223 C 127.090 279.820, 121.878 282.989, 115.726 284.533 C 111.115 285.690, 107 291.350, 107 296.535 L 107 301 112.250 301.133 C 115.138 301.206, 126.275 301.544, 137 301.883 L 156.500 302.500 156.629 312 C 156.700 317.225, 156.400 324.650, 155.963 328.500 C 155.525 332.350, 154.642 340.450, 154.001 346.500 C 148.188 401.353, 131.248 445.627, 113 453.663 C 111.075 454.510, 108.600 455.600, 107.500 456.083 C 106.400 456.567, 103.025 457.114, 100 457.300 C 96.975 457.485, 108.675 457.381, 126 457.069 C 167.397 456.321, 224.762 456.346, 259 457.127 C 285.648 457.734, 288.194 457.326, 272.297 454.997 C 261.324 453.390, 256.007 449.472, 249.909 438.500 C 239.555 419.870, 233.458 405.195, 230.583 391.987 C 226.168 371.699, 224.150 361.643, 223.062 354.500 C 222.392 350.100, 221.453 344.456, 220.977 341.958 C 219.300 333.166, 218.576 304.380, 220.010 303.494 C 220.724 303.052, 231.927 302.357, 244.904 301.948 C 257.882 301.539, 268.591 301.159, 268.703 301.102 C 268.815 301.046, 269.637 299.460, 270.530 297.578 C 273.107 292.148, 269.984 288.421, 259.500 284.412 C 255.706 282.961, 252.314 280.247, 245.438 273.160 C 237.898 265.389, 235.462 263.511, 230.938 261.983 C 223.670 259.528, 223.831 258.300, 232.118 253 C 239.251 248.438, 248.742 239.115, 254.861 230.659 C 269.946 209.816, 273.740 176.792, 264.762 144.500 C 262.853 137.635, 254.129 120.003, 248.327 111.283 C 241.386 100.852, 226.539 86.977, 211.145 76.536 C 199.063 68.342, 188 48.815, 188 35.683 C 188 29.254, 185.808 17.140, 184.558 16.661 C 183.755 16.352, 182.758 18.629, 181.631 23.347 M 181.394 39.171 C 178.855 43.279, 180.726 75.437, 184.061 85 C 185.540 89.242, 192.085 99.261, 196.371 103.846 C 199.270 106.947, 217.560 120.615, 228 127.483 C 235.869 132.659, 243.864 140.011, 247.166 145.107 C 252.083 152.694, 254.331 149.886, 252.056 139 C 249.066 124.700, 241.346 111.544, 228.834 99.432 C 220.566 91.427, 217.132 88.641, 207.500 82.127 C 200.981 77.719, 196.477 73.445, 193.138 68.500 C 187.746 60.513, 187.050 58.341, 184.411 41.250 C 183.898 37.924, 182.683 37.087, 181.394 39.171 M 173 269.897 C 173 272.561, 215.155 274.412, 221.435 272.025 C 227.868 269.579, 223.478 269, 198.500 269 C 184.111 269, 173 269.391, 173 269.897 M 134.461 281.064 C 132.584 284.100, 191.033 285.847, 227 283.830 C 243.923 282.881, 247.362 282.394, 246.539 281.064 C 245.829 279.914, 135.171 279.914, 134.461 281.064 M 90.624 462.709 C 90.288 463.045, 90.912 463.951, 92.012 464.721 C 101.037 471.043, 97.835 493.059, 85.499 509.500 C 77.934 519.581, 74.770 522.677, 60.246 534.203 C 51.724 540.967, 43.570 547.473, 42.126 548.662 L 39.500 550.824 39.173 570.162 C 38.764 594.373, 39.902 601.278, 45.353 607.674 C 47.204 609.846, 47.200 609.850, 41.590 612.416 C 35.986 614.979, 35.976 614.992, 36.461 618.859 C 37.138 624.247, 38.347 627.038, 41.445 630.361 C 44.481 633.620, 44.307 634.133, 40.048 634.496 C 33.634 635.042, 31.564 639.991, 32.198 653.259 C 32.886 667.658, 11.967 666, 192.920 666 C 325.701 666, 348.903 665.791, 350.559 664.583 C 352.267 663.336, 352.540 661.663, 352.830 650.650 L 353.160 638.134 350.130 636.567 C 347.905 635.417, 344.096 634.999, 335.800 634.995 C 320.323 634.989, 301.969 633.859, 302.532 632.948 C 303.099 632.031, 310.627 631.250, 326.500 630.460 C 333.100 630.132, 340.171 629.378, 342.214 628.784 C 350.582 626.353, 352.666 618.989, 345.886 615.808 C 341.570 613.783, 340.796 611.156, 341.965 602.500 C 346.309 570.347, 346.399 569.162, 345.035 562.297 C 343.300 553.569, 340.906 549.710, 335.185 546.417 C 301.008 526.745, 283.199 504.084, 284.154 481.482 C 284.486 473.630, 284.654 473.124, 288.250 469.144 C 292.574 464.359, 293.162 461.725, 289.750 462.421 C 287.627 462.853, 280.840 463.703, 273 464.517 C 248.394 467.072, 172.695 467.307, 124 464.980 C 106.336 464.135, 102.503 463.820, 93.868 462.500 C 92.420 462.278, 90.961 462.372, 90.624 462.709 M 123.500 607.001 C 63.351 608.260, 51 608.948, 51 611.036 C 51 615.529, 329.116 616.218, 333.597 611.736 C 335.917 609.417, 325.962 608.350, 299.566 608.088 C 288.602 607.979, 279.367 607.727, 279.044 607.527 C 277.695 606.693, 157.603 606.287, 123.500 607.001" stroke="none" fill="black" fill-rule="evenodd"/>
</svg>