<svg class="chess-piece chess-piece--bq"   width="408" height="750" viewBox="0 0 408 750" version="1.1" id="bQ" xmlns="http://www.w3.org/2000/svg" data-piece="bQ" data-piece-name="black-queen" data-color="black" data-type="queen" data-original="bQ">
	<path d="M 184.271 18.888 C 168.603 25.112, 163.922 45.678, 175.246 58.542 C 179.963 63.901, 179.498 65, 172.514 65 C 166.849 65, 163 67.831, 163 71.998 C 163 73.805, 167.597 79, 169.195 79 C 169.703 79, 169.808 79.501, 169.429 80.114 C 168.654 81.369, 164.421 80.867, 156.032 78.526 C 141.379 74.437, 121.317 78.947, 111.728 88.487 C 105.029 95.151, 102.644 101.695, 102.610 113.500 C 102.572 127, 103.710 130.352, 115.515 151.500 C 118.517 156.879, 132.386 179.318, 137.765 187.500 C 144.146 197.205, 144.199 199.503, 138.273 209.230 C 135.158 214.343, 135.324 216.868, 138.857 218.100 C 145.666 220.474, 147.065 237, 140.457 237 C 137.868 237, 128.520 241.708, 126.330 244.115 C 125.137 245.427, 124.012 247.849, 123.830 249.498 C 123.544 252.098, 122.239 253.260, 114 258.250 C 108.775 261.415, 102.772 265.129, 100.660 266.502 C 98.548 267.876, 95.848 269.007, 94.660 269.015 C 93.472 269.024, 91.892 269.416, 91.149 269.887 C 89.276 271.074, 86.841 281.784, 88.246 282.652 C 88.832 283.014, 99.254 283.494, 111.406 283.719 C 136.980 284.193, 137.221 284.262, 140.027 291.913 C 141.154 294.986, 143.297 298.508, 144.788 299.740 L 147.500 301.980 147.446 341.240 C 147.384 385.724, 145.926 405.281, 140.065 440.243 C 134.350 474.335, 124.081 503.423, 111.555 521 C 106.507 528.083, 105.470 528.774, 99.500 529.032 L 95.500 529.205 99 530.037 C 100.925 530.495, 106.550 531.147, 111.500 531.486 C 116.450 531.824, 122.525 532.339, 125 532.629 C 159.326 536.656, 230.912 536.845, 268.500 533.008 C 273.450 532.503, 282.225 531.822, 288 531.495 C 293.775 531.168, 299.329 530.654, 300.342 530.353 C 301.731 529.941, 302.097 530.261, 301.830 531.653 C 301.125 535.333, 270.967 542.330, 246 544.607 C 242.425 544.933, 236.800 545.568, 233.500 546.018 C 225.702 547.083, 173.427 547.075, 165 546.008 C 161.425 545.556, 153.775 544.661, 148 544.020 C 121.841 541.117, 98.533 535.845, 94.830 531.993 C 93.388 530.493, 92.434 530.395, 87.830 531.273 C 78.759 533.004, 77.959 534.902, 83.846 540.731 C 89.009 545.842, 90.416 550.457, 89.590 559.572 C 87.278 585.085, 67.595 610.854, 40.947 623.253 C 38.993 624.163, 36.688 625.715, 35.825 626.703 C 31.765 631.352, 30.241 656.737, 33.310 668.614 C 35.893 678.613, 37.802 681.172, 44.306 683.352 C 51.487 685.759, 50.736 687, 42.096 687 C 33.768 687, 32.122 688.414, 31.312 696.270 C 30.510 704.037, 32.180 705.496, 42.949 706.435 C 53.426 707.349, 52.448 708.352, 40.410 709.036 C 27.849 709.750, 27.292 710.319, 26.738 723 C 26.244 734.310, 26.934 736.670, 31.244 738.417 C 36.967 740.737, 364.697 740.084, 368.266 737.745 C 372.440 735.010, 373.374 732.274, 373.131 723.500 C 372.802 711.685, 372.620 711.566, 354.224 711.234 C 329.020 710.779, 326.047 708.886, 348.500 707.590 C 372.065 706.230, 372 706.255, 372 698.378 C 372 689.772, 370.186 688.598, 358.267 689.492 C 347.542 690.296, 346.223 688.941, 355.767 686.925 C 362.758 685.448, 369.637 681.719, 370.524 678.925 C 372.239 673.521, 370.498 654.127, 366.935 638.953 C 364.893 630.256, 363.826 628.405, 362.638 631.500 C 361.781 633.735, 360.970 633.618, 320.206 625.379 C 299.468 621.187, 280.475 617.378, 278 616.914 C 261.292 613.781, 254.848 611.088, 260.195 609.474 C 261.463 609.091, 263.850 608.183, 265.500 607.456 C 267.150 606.730, 273 604.274, 278.500 602 C 284 599.726, 289.850 597.258, 291.500 596.515 C 293.150 595.773, 297.276 594.450, 300.668 593.576 C 308.030 591.680, 310.473 592.340, 316.439 597.834 C 320.544 601.614, 331.527 610, 332.374 610 C 332.626 610, 336.133 612.138, 340.166 614.750 C 355.399 624.616, 364 629.182, 364 627.401 C 364 626.649, 361.637 624.843, 358.750 623.388 C 329.703 608.747, 310 581.647, 310 556.335 C 310 548.534, 311.071 545.731, 316.165 540.206 C 320.123 535.911, 320.183 535.741, 318.367 533.997 C 316.533 532.237, 303.041 529, 297.535 529 C 293.989 529, 289.417 524.090, 283.387 513.806 C 264.365 481.365, 252.410 420.090, 251.914 352.500 C 251.564 304.813, 251.726 301.446, 254.426 300.216 C 256.110 299.448, 257.537 297.232, 259.091 292.970 C 262.245 284.322, 262.635 284.169, 282 283.990 C 291.075 283.906, 301.425 283.537, 305 283.169 L 311.500 282.500 311.331 277.668 C 311.138 272.133, 308.940 269, 305.249 269 C 303.907 269, 301.612 268.212, 300.150 267.250 C 298.688 266.287, 296.593 264.961, 295.496 264.302 C 294.398 263.643, 290.350 261.217, 286.500 258.911 C 277.501 253.520, 276 252.172, 276 249.480 C 276 244.848, 265.371 237, 259.097 237 C 256.256 237, 255.206 234.409, 255.384 227.834 C 255.539 222.145, 257.709 218, 260.533 218 C 264.402 218, 264.331 214.982, 260.280 207.215 C 258.067 202.972, 256.482 198.825, 256.757 198 C 257.914 194.539, 261.313 188.113, 264.955 182.500 C 271.006 173.176, 288.464 144.065, 291.343 138.500 C 300.131 121.511, 299.305 101.530, 289.344 90.143 C 279.534 78.929, 258.852 73.968, 242.839 78.987 C 234.444 81.619, 229.404 81.623, 228 79 C 227.411 77.900, 226.037 77, 224.946 77 C 223.329 77, 223.078 76.537, 223.589 74.500 C 225.166 68.218, 220.540 63.743, 213.456 64.697 C 209.091 65.286, 208.212 63.440, 211.301 60.169 C 215.992 55.200, 218.256 49.421, 218.383 42.093 C 218.693 24.139, 201.129 12.191, 184.271 18.888 M 164.500 88.874 C 149.488 97.258, 145.557 102.584, 145.586 114.500 C 145.614 125.610, 154.527 148.241, 163.210 159.250 C 166.540 163.472, 168.571 164.168, 167.584 160.750 C 163.253 145.753, 162.859 143.040, 162.470 125.500 C 162.014 104.934, 162.761 98.924, 166.509 92.986 C 169.589 88.107, 168.792 86.477, 164.500 88.874 M 217 88.390 C 217 89.127, 217.892 90.865, 218.983 92.251 C 225.515 100.555, 225.790 141.989, 219.419 157.911 C 214.568 170.034, 224.752 158.874, 231.201 145 C 236.527 133.540, 237.983 129.880, 239.411 124.356 C 243.172 109.810, 239.778 100.693, 227.586 92.601 C 220.678 88.016, 217 86.553, 217 88.390 M 143.780 207.136 C 139.998 209.473, 168.676 210.927, 208 210.391 C 243.980 209.900, 255.671 209.185, 255.250 207.500 C 254.958 206.333, 145.657 205.976, 143.780 207.136 M 214.250 243.402 C 212.237 246.668, 225.680 248.351, 249.500 247.815 C 262.728 247.517, 263.500 247.390, 263.500 245.500 C 263.500 243.568, 262.667 243.483, 239.153 243 C 225.165 242.713, 214.570 242.884, 214.250 243.402 M 216.932 254.580 C 215.633 256.147, 221.073 261.004, 225.138 261.907 C 226.987 262.318, 233.675 262.752, 240 262.872 C 246.325 262.992, 258.457 263.515, 266.960 264.035 C 284.436 265.104, 287.181 264.386, 279.418 260.777 C 276.713 259.519, 272.878 257.484, 270.896 256.254 C 267.452 254.117, 266.189 254.005, 242.560 253.758 C 225.764 253.583, 217.540 253.847, 216.932 254.580 M 228.583 270.866 C 227.619 272.425, 231.481 274.910, 236.541 275.988 C 242.985 277.361, 301.561 276.920, 301.355 275.500 C 301.276 274.950, 298.576 273.514, 295.355 272.309 C 289.821 270.239, 287.847 270.116, 259.309 270.059 C 242.704 270.027, 228.877 270.390, 228.583 270.866 M 73.077 606.422 C 65.161 614.380, 56.503 619.972, 48.250 622.457 C 47.013 622.830, 46 623.600, 46 624.168 C 46 625.354, 50.871 624.911, 62 622.714 C 69.719 621.189, 74.734 620.444, 100.500 616.988 C 130.154 613.011, 148.231 611, 154.318 611 C 159.129 611, 160.762 609.385, 156.750 608.595 C 155.512 608.351, 147.300 607.203, 138.500 606.044 C 129.700 604.884, 119.800 603.500, 116.500 602.967 C 111.410 602.146, 82.349 598, 81.680 598 C 81.557 598, 77.685 601.790, 73.077 606.422" stroke="none" fill="black" fill-rule="evenodd"/>
</svg>