<svg class="chess-piece chess-piece--wr"   width="324" height="520" viewBox="0 0 324 520" version="1.1" id="wR" xmlns="http://www.w3.org/2000/svg" data-piece="wR" data-piece-name="white-rook" data-color="white" data-type="rook" data-original="bR">
	<path d="M 78.842 59.250 C 78.755 83.588, 78.642 106.200, 78.592 109.500 L 78.500 115.500 104.750 115.767 C 119.188 115.913, 131 116.428, 131 116.910 C 131 118.456, 128.030 119, 119.578 119 C 115.036 119, 103.784 119.297, 94.574 119.660 L 77.829 120.321 76.761 122.910 C 74.609 128.128, 74.311 127.995, 88.338 128.077 C 101.351 128.153, 109.275 128.641, 111.800 129.522 C 112.714 129.841, 113.011 131.689, 112.800 135.738 L 112.500 141.500 95.656 141.285 C 80.091 141.086, 78.866 141.200, 79.517 142.785 C 79.904 143.728, 81.332 147.875, 82.690 152 C 84.048 156.125, 85.686 160.010, 86.330 160.632 C 87.070 161.349, 94.808 162.007, 107.413 162.424 C 118.365 162.787, 127.718 163.326, 128.197 163.622 C 129.255 164.276, 129.055 199.616, 127.914 213.500 C 123.437 267.978, 118.310 298.597, 107.317 336.500 C 100.524 359.921, 97.740 363.664, 87.434 363.228 C 80.022 362.914, 79.576 363.614, 83.986 368.636 C 87.957 373.160, 88.557 376.127, 87.153 384.312 C 84.777 398.170, 74.570 411.681, 61.326 418.500 C 58.122 420.150, 55.187 421.937, 54.804 422.471 C 54.422 423.005, 53.802 423.136, 53.428 422.761 C 52.461 421.795, 46.815 424.891, 47.505 426.008 C 48.104 426.978, 54.981 424.224, 56.196 422.529 C 56.578 421.995, 57.198 421.864, 57.572 422.239 C 57.947 422.614, 59.614 422.217, 61.276 421.357 C 74.718 414.406, 85.358 412.461, 96.307 414.955 C 98.613 415.480, 103.650 416.654, 107.500 417.565 C 111.350 418.475, 119.450 419.508, 125.500 419.860 C 137.389 420.552, 139.955 422.089, 131 423.155 C 127.975 423.515, 122.125 424.322, 118 424.949 C 106.108 426.755, 96.059 427.996, 88.500 428.590 C 84.650 428.893, 77.065 429.559, 71.644 430.071 C 54.621 431.676, 46.905 431.354, 46.293 429.011 C 45.607 426.389, 44.313 427.314, 42.458 431.756 C 40.896 435.493, 41.755 450.006, 44.078 459.116 C 45.566 464.951, 45.149 471.285, 43 475.500 C 40.310 480.776, 40.421 485.107, 43.314 487.826 C 44.587 489.022, 46.136 490, 46.755 490 C 49.252 490, 48.898 491.985, 46.291 492.602 C 40.104 494.066, 39 496.318, 39 507.474 C 39 514.017, 39.425 518.025, 40.200 518.800 C 41.989 520.589, 290.889 520.540, 291.465 518.750 C 291.686 518.063, 292.131 513.650, 292.454 508.943 C 293.326 496.230, 293.834 496.513, 267.545 495.072 C 256.020 494.440, 246.411 493.745, 246.193 493.526 C 245.568 492.901, 251.563 492.042, 263.532 491.040 C 269.599 490.532, 275.816 489.640, 277.347 489.058 C 278.878 488.476, 281.248 488, 282.615 488 C 290.537 488, 292.400 483.585, 288.058 475.100 C 285.953 470.986, 285.561 463.189, 287.314 460.283 C 287.573 459.852, 288.109 453.048, 288.503 445.162 L 289.221 430.824 285.912 427.409 C 284.092 425.532, 280.105 423.063, 277.051 421.923 C 259.715 415.451, 245.684 399.102, 244.068 383.489 C 243.284 375.912, 244.177 372.122, 247.478 369.021 C 251.936 364.833, 250.924 362.612, 244.885 363.327 C 235.249 364.468, 232.179 361.128, 226.201 343 C 220.131 324.589, 212.295 291.110, 210.403 275.500 C 210.136 273.300, 209.715 270.534, 209.466 269.353 C 205.230 249.247, 199.919 165.404, 202.770 163.642 C 203.237 163.354, 212.142 162.841, 222.559 162.502 C 247.904 161.677, 245.276 162.811, 249.137 151.032 C 250.933 145.552, 252.200 140.898, 251.951 140.688 C 251.703 140.478, 248.125 140.660, 244 141.091 C 229.505 142.608, 219.210 142.237, 218.555 140.173 C 217.977 138.353, 218.694 129.972, 219.497 129.170 C 219.728 128.938, 227.924 128.523, 237.709 128.249 C 247.494 127.974, 255.696 127.571, 255.936 127.355 C 256.176 127.138, 255.941 125.732, 255.415 124.230 L 254.457 121.500 235.478 120.880 C 225.040 120.540, 214.250 120.188, 211.500 120.100 C 208.226 119.995, 207.018 119.651, 208 119.104 C 209.991 117.996, 219.411 117.105, 236.491 116.411 C 244.196 116.098, 251.063 115.666, 251.750 115.452 C 253.069 115.041, 253.687 19.954, 252.393 16.582 C 251.893 15.280, 249.948 15, 241.393 15 C 235.677 15, 230.990 15.113, 230.977 15.250 C 230.964 15.387, 230.703 23.375, 230.397 33 C 230.091 42.625, 229.665 51.063, 229.452 51.750 C 229.203 52.549, 227.101 53, 223.622 53 L 218.181 53 217.404 39.750 C 216.977 32.462, 216.554 26.050, 216.466 25.500 C 216.377 24.950, 216.236 22.363, 216.152 19.750 L 216 15 206 15 L 196 15 195.883 26.750 C 195.819 33.213, 195.481 41.395, 195.133 44.934 L 194.500 51.368 189.247 51.759 C 185.491 52.039, 183.875 51.772, 183.575 50.825 C 182.957 48.872, 182.048 32.734, 182.022 23.250 L 182 15 165.594 15 L 149.188 15 148.975 29.750 C 148.689 49.493, 148.671 49.730, 147.343 51.057 C 146.574 51.826, 144.488 51.980, 141.116 51.516 L 136.045 50.819 135.773 33.159 L 135.500 15.500 125.250 15.215 L 115 14.930 114.982 19.215 C 114.949 27.072, 113.849 50.483, 113.453 51.750 C 113.204 52.547, 111.112 53, 107.684 53 L 102.306 53 101.657 41.750 C 101.301 35.563, 101.007 27.013, 101.005 22.750 L 101 15 90 15 L 79 15 78.842 59.250 M 88.608 368.430 C 97.173 374.462, 233.965 374.442, 240 368.408 C 241.629 366.780, 241.607 366.780, 202.500 369.059 C 181.932 370.257, 147.508 370.258, 126.211 369.061 C 86.079 366.805, 86.306 366.809, 88.608 368.430 M 235.500 406.580 C 233.300 407.893, 229.250 409.707, 226.500 410.610 C 217.412 413.594, 212.600 418.653, 216.750 420.860 C 220.176 422.682, 250.074 428.968, 263 430.584 C 264.925 430.824, 269.814 431.505, 273.864 432.096 C 282.953 433.423, 285.083 432.268, 280.479 428.506 C 278.841 427.167, 277.178 426.056, 276.785 426.036 C 275.533 425.973, 256.772 414.949, 249.222 409.841 C 240.095 403.664, 240.301 403.713, 235.500 406.580" stroke="none" fill="white" fill-rule="evenodd"/>
</svg>