<svg class="chess-piece chess-piece--wb"   width="344" height="544" viewBox="0 0 344 544" version="1.1" id="wB" xmlns="http://www.w3.org/2000/svg" data-piece="wB" data-piece-name="white-bishop" data-color="white" data-type="bishop" data-original="bB">
	<path d="M 165.619 3.016 C 156.916 5.677, 152.347 16.968, 156.625 25.241 C 158.486 28.841, 160.175 26.855, 141.512 43 C 127.348 55.252, 126.673 55.938, 122.798 62 C 112.128 78.694, 113.104 99.883, 125.081 111.579 C 129.640 116.031, 129.681 116.259, 126.865 121.512 C 122.856 128.993, 124.275 136.078, 130.449 139.402 C 134.814 141.753, 136.201 145.007, 135.402 151.028 C 134.394 158.629, 131.995 161.572, 123.456 165.682 C 114.255 170.111, 111.523 173.408, 112.294 179.153 C 112.908 183.733, 115.193 186.716, 119.488 188.547 L 122.477 189.820 118.488 190.457 C 107.323 192.241, 100.138 198.589, 101.438 205.520 C 102.899 213.307, 107.284 215.183, 126.930 216.430 C 136.532 217.040, 136.977 217.404, 135.959 223.818 C 135.550 226.393, 134.684 234.125, 134.035 241 C 131.151 271.523, 126.556 293.892, 119.771 310.440 C 115.367 321.182, 109.686 332.492, 107.397 335.079 C 106.629 335.947, 106 336.978, 106 337.369 C 106 337.761, 105.146 339.300, 104.101 340.790 C 84.920 368.165, 78.554 388.671, 85.255 401.500 C 86.691 404.250, 90.372 409.341, 93.433 412.814 C 103.364 424.077, 102.219 425.063, 64.830 437.468 C 47.507 443.216, 43.438 444.943, 39.703 448.136 C 33.878 453.115, 30.824 459.657, 30.671 467.483 C 30.468 477.934, 34.887 483.668, 47.656 489.523 C 53.708 492.298, 55.205 494, 51.594 494 C 43.107 494, 31.590 502.270, 28.383 510.666 C 23.154 524.360, 31.858 539.858, 46.533 542.981 C 50.001 543.719, 91.064 543.966, 178.533 543.776 L 305.500 543.500 310.176 540.751 C 325.243 531.894, 327.772 513.853, 315.714 501.248 C 312.499 497.887, 303.784 494, 299.462 494 C 295.309 494, 296.711 492.017, 302.750 489.353 C 310.037 486.137, 316.266 481.067, 318.366 476.642 C 323.141 466.579, 317.384 451.769, 306 444.834 C 304.625 443.996, 293.060 439.836, 280.301 435.589 C 267.541 431.342, 255.953 426.965, 254.551 425.861 C 250.416 422.609, 251.091 418.655, 256.815 412.597 C 273.453 394.985, 271.727 380.686, 248.583 344.396 C 233.673 321.017, 226.968 305.047, 222.175 281.500 C 218.830 265.061, 213.005 218.661, 214.145 217.522 C 214.403 217.264, 220.214 216.625, 227.057 216.104 C 244.376 214.784, 247.636 213.135, 248.706 205.153 C 249.665 198.009, 244.552 193.394, 232.890 190.875 L 227.500 189.711 231.528 187.991 C 235.966 186.095, 238 182.827, 238 177.588 C 238 172.894, 234.679 169.221, 227.536 166.016 C 220.115 162.687, 216.630 158.795, 215.006 152.025 C 213.629 146.286, 214.846 141.501, 217.931 140.522 C 224.810 138.339, 227.672 129.111, 223.656 122.064 C 220.789 117.032, 221.030 116.026, 226.597 109.800 C 232.450 103.253, 234.329 97.743, 234.373 87 C 234.450 68.083, 229.244 60.072, 201.688 36.708 C 196.732 32.506, 196.181 31.684, 197.212 30.032 C 198.116 28.585, 198.111 27.540, 197.194 25.527 C 196.537 24.085, 196 19.885, 196 16.193 C 196 9.021, 193.742 4.987, 188.652 3.062 C 185.729 1.958, 169.190 1.924, 165.619 3.016" stroke="none" fill="white" fill-rule="evenodd"/>
</svg>