<svg class="chess-piece chess-piece--bq"   width="304" height="580" viewBox="0 0 304 580" version="1.1" id="bQ" xmlns="http://www.w3.org/2000/svg" data-piece="bQ" data-piece-name="black-queen" data-color="black" data-type="queen" data-original="bQ">
	<path d="M 142.982 2.750 C 141.471 5.854, 141.301 6.382, 141.125 8.525 C 141.056 9.363, 139.949 10.449, 138.664 10.938 C 126.125 15.705, 122.990 36.365, 133.356 45.913 C 136.275 48.602, 135.478 51, 131.665 51 C 124.267 51, 104.758 65.125, 98.497 75.015 C 95.103 80.375, 94.027 80.969, 89.488 79.983 C 66.032 74.889, 57.888 76.229, 62.911 84.356 C 64.024 86.158, 65.889 88.495, 67.054 89.549 C 69.184 91.477, 70.486 93.289, 81.084 109.086 C 87.074 118.013, 101.701 146.958, 104.431 155.285 C 106.295 160.971, 106.524 173.076, 104.800 174.800 C 104.140 175.460, 102.410 176, 100.955 176 C 94.109 176, 93.501 184.010, 100.211 185.800 C 103.266 186.615, 103.483 186.948, 103.262 190.496 C 102.777 198.269, 97.577 202, 87.232 202 C 79.991 202, 79 202.968, 79 210.045 C 79 217.203, 77.291 218.991, 70.421 219.022 C 56.518 219.084, 48.300 231.779, 55.024 242.808 C 58.729 248.884, 63.002 249.953, 83.677 249.978 L 101.855 250 103.959 252.675 C 106.031 255.309, 106.059 255.977, 105.782 296.081 C 105.627 318.483, 105.824 336.292, 106.219 335.656 C 106.615 335.020, 107.077 341.700, 107.247 350.500 C 107.477 362.474, 107.611 360.083, 107.778 341 C 108.005 315.134, 109.378 294.222, 110.952 292.648 C 114.455 289.145, 116.062 389.775, 112.690 401.500 C 108.830 414.920, 98.244 429.657, 88 435.870 C 80.926 440.160, 80.738 438.177, 87.608 431.750 C 100.313 419.866, 106.307 407.206, 106.096 392.705 C 105.946 382.466, 105.038 381.250, 104.885 391.083 C 104.738 400.494, 104.952 399.492, 101.272 408 C 94.017 424.771, 74.013 439, 57.689 439 C 53.145 439, 53.791 444.210, 58.561 446.023 C 63.560 447.924, 60.668 454.460, 54.500 455.202 C 47.955 455.988, 45.342 459.826, 47.350 465.699 C 48.095 467.876, 50.649 469.200, 54.487 469.398 C 59.568 469.659, 55.451 477, 50.223 477 C 48.695 477, 46.445 477.701, 45.223 478.557 C 40.748 481.691, 43.668 489.527, 48.934 488.513 C 54.010 487.535, 56.660 492.030, 53.970 497.055 C 53.404 498.113, 47.822 501.497, 41.566 504.574 C 18.057 516.138, 11.938 526.905, 21.646 539.624 C 26.070 545.420, 25.748 547.652, 20 551.004 L 15.500 553.628 15.217 565.422 C 15.029 573.262, 15.322 577.683, 16.090 578.608 C 17.066 579.784, 37.577 580, 148.462 580 L 279.679 580 280.839 577.453 C 282.950 572.820, 282.333 556.693, 279.927 553.635 C 278.788 552.186, 277.245 551, 276.500 551 C 274.442 551, 271.022 546.122, 271.722 544.186 C 272.058 543.259, 273.633 540.828, 275.224 538.784 C 284.170 527.284, 276.313 514.420, 254.183 504.337 C 249.957 502.412, 245.825 500.498, 245 500.084 C 244.175 499.671, 242.614 497.715, 241.530 495.738 C 238.880 490.900, 240.968 488.249, 247.781 487.800 C 256.395 487.233, 255.676 478.771, 246.895 477.367 C 240.012 476.267, 236.224 469, 242.534 469 C 247.816 469, 251.022 464.795, 249.470 459.904 C 248.805 457.811, 244.153 455, 241.354 455 C 239.324 455, 234 450.208, 234 448.380 C 234 447.695, 234.915 446.844, 236.034 446.489 C 238.522 445.700, 242 442.098, 242 440.311 C 242 439.470, 240.697 439, 238.366 439 C 218.973 439, 197.356 420.442, 191.900 399.109 C 188.947 387.563, 189.003 256.858, 191.962 253 C 193.861 250.525, 194.069 250.495, 212.690 250 C 234.411 249.423, 237.777 248.419, 241.428 241.435 C 247.261 230.278, 240.596 220.795, 225.684 219.037 C 218.444 218.184, 217 216.586, 217 209.431 C 217 202.916, 216.223 202.316, 207.137 201.822 C 200.153 201.442, 199.603 201.234, 196.419 197.760 C 191.093 191.948, 190.534 186, 195.314 186 C 201.882 186, 202.615 177.560, 196.148 176.396 C 190.543 175.387, 190.001 174.526, 189.995 166.628 C 189.990 160.943, 190.635 157.880, 193.180 151.500 C 197.408 140.899, 208.629 118.968, 213.834 111.130 C 216.125 107.681, 218 104.675, 218 104.450 C 218 104.046, 220.891 100.219, 230.315 88.150 C 237.447 79.016, 235.401 75.195, 224.376 77.056 C 221.144 77.601, 215.575 78.443, 212 78.927 C 208.425 79.411, 204.752 80.108, 203.837 80.477 C 202.617 80.969, 201.285 79.902, 198.837 76.474 C 188.751 62.351, 176.533 53.578, 162.750 50.563 C 159.139 49.774, 159.263 49.100, 163.919 44.206 C 173.298 34.347, 170.019 15.979, 157.992 10.997 C 156.049 10.192, 154.773 8.813, 154.409 7.123 C 153.193 1.478, 151.862 0, 147.992 -0 C 144.979 -0, 144.081 0.493, 142.982 2.750 M 137.396 16.429 C 128.948 20.107, 126.418 33.543, 133.044 39.540 C 135.752 41.991, 136.357 40.923, 134.940 36.194 C 133.008 29.745, 134.392 25.470, 140.224 19.878 C 144.797 15.494, 145.069 15.004, 142.906 15.039 C 141.583 15.061, 139.103 15.686, 137.396 16.429 M 122.614 59.716 C 116.645 61.246, 103.465 72.744, 97.935 81.244 C 95.247 85.377, 94.636 85.437, 80 83.004 C 69.278 81.222, 65 80.988, 65 82.183 C 65 82.813, 67.614 86.291, 70.810 89.914 C 74.005 93.536, 79.472 100.536, 82.958 105.469 C 89.819 115.180, 92 117.740, 92 116.086 C 92 114.467, 85.621 102.805, 81.068 96.101 C 75.093 87.301, 74.825 87.465, 90.759 90.168 C 98.005 91.397, 98.859 90.980, 102.060 84.640 C 106.051 76.737, 112.367 69.752, 120.423 64.331 C 127.566 59.525, 128.149 58.297, 122.614 59.716 M 124.500 179.138 C 120.100 179.573, 115.375 180.229, 114 180.595 L 111.500 181.259 114.500 182.144 C 118.462 183.312, 178.879 183.350, 182.024 182.187 L 184.467 181.283 182.251 180.580 C 175.558 178.455, 140.290 177.575, 124.500 179.138 M 101 208.731 C 95.828 209.339, 95.172 210.741, 99.620 211.680 C 104.608 212.734, 181.294 212.756, 186.250 211.705 C 191.901 210.506, 190.778 209.363, 183.250 208.652 C 176.058 207.972, 106.888 208.039, 101 208.731 M 80.500 232.918 C 72.107 233.732, 74.940 235.021, 87.314 236.019 C 99.022 236.964, 204.859 236.473, 209.750 235.452 C 215.066 234.342, 213.486 233.335, 205.349 232.647 C 196.093 231.864, 88.964 232.097, 80.500 232.918 M 105.426 360.500 C 105.427 372.600, 105.571 377.413, 105.747 371.195 C 105.923 364.977, 105.922 355.077, 105.746 349.195 C 105.569 343.313, 105.425 348.400, 105.426 360.500 M 107.310 381.500 C 107.315 384.800, 107.502 386.029, 107.725 384.232 C 107.947 382.435, 107.943 379.735, 107.715 378.232 C 107.486 376.729, 107.304 378.200, 107.310 381.500 M 107.079 389.583 C 107.127 390.748, 107.364 390.985, 107.683 390.188 C 107.972 389.466, 107.936 388.603, 107.604 388.271 C 107.272 387.939, 107.036 388.529, 107.079 389.583 M 90.147 457.095 C 75.563 458.004, 72.044 459.040, 80 460.082 C 86.870 460.982, 201.325 461.021, 209.500 460.126 C 235.761 457.252, 130.517 454.579, 90.147 457.095 M 74.239 480.895 C 62.524 481.753, 63.942 483.359, 77.232 484.287 C 92.153 485.328, 209.111 484.729, 210.878 483.602 C 215.154 480.876, 207.453 480.498, 145.500 480.395 C 110.850 480.337, 78.782 480.562, 74.239 480.895 M 43.388 508.913 C 36.295 511.467, 29.352 515.696, 24.290 520.547 C 20.468 524.209, 20 525.153, 20 529.206 C 20 532.198, 20.560 534.220, 21.636 535.113 C 27.919 540.327, 29.246 547.875, 24.860 553.451 C 22.173 556.867, 22.799 557.409, 26.693 555.040 C 32.840 551.302, 33.400 542.614, 27.977 535.127 C 26.340 532.867, 25 530.028, 25 528.819 C 25 525.813, 34.534 517.176, 42.569 512.902 C 52.032 507.868, 52.491 505.635, 43.388 508.913 M 80 570.987 C 23.219 572.241, 19.012 572.412, 20.020 573.420 C 23.013 576.413, 214.595 576.738, 217.579 573.754 C 218.866 572.468, 207.992 572.066, 132.500 570.613 C 122.050 570.411, 98.425 570.580, 80 570.987" stroke="none" fill="black" fill-rule="evenodd"/>
</svg>