<svg class="chess-piece chess-piece--wb"   width="298" height="548" viewBox="0 0 298 548" version="1.1" id="wB" xmlns="http://www.w3.org/2000/svg" data-piece="wB" data-piece-name="white-bishop" data-color="white" data-type="bishop" data-original="bB">
	<path d="M 148.500 1.091 C 147.950 1.636, 146.683 2.641, 145.684 3.326 C 144.647 4.036, 143.633 6.316, 143.322 8.635 C 142.900 11.784, 142.105 13.098, 139.796 14.462 C 130.923 19.703, 128.373 32.467, 134.112 42.907 L 137.224 48.568 129.161 59.534 C 124.727 65.565, 120.240 71.625, 119.190 73 C 118.141 74.375, 114.460 79.775, 111.010 85 C 107.560 90.225, 103.896 95.719, 102.869 97.210 C 101.841 98.700, 101 100.140, 101 100.409 C 101 100.679, 99.763 102.835, 98.250 105.200 C 85.923 124.475, 82.645 133.730, 82.560 149.500 C 82.497 161.143, 83.618 166.980, 87.607 175.777 C 88.923 178.680, 90 181.287, 90 181.570 C 90 184.679, 104.114 199.287, 110.837 203.136 C 113.108 204.436, 115.209 206.128, 115.507 206.895 C 116.254 208.819, 113.363 211.761, 109.998 212.500 C 106.854 213.191, 106.034 215.151, 106.014 222.027 C 105.991 229.600, 104.275 231, 95.015 231 C 85.238 231, 84 231.963, 84 239.571 C 84 246.256, 81.788 249, 76.401 249 C 73.665 249, 72.107 249.744, 69.901 252.106 C 65.885 256.405, 66.038 260.238, 70.400 264.600 L 73.800 268 90.745 268 C 106.705 268, 107.801 268.122, 109.595 270.106 C 111.419 272.123, 111.500 274.516, 111.499 326.356 L 111.499 380.500 108.708 387.500 C 100.830 407.255, 84.875 420.276, 65.061 423.121 C 57.321 424.232, 57.410 424.161, 59.002 428.005 C 59.863 430.084, 61.681 431.716, 64.637 433.062 C 69.596 435.322, 69.883 436.099, 66.811 438.961 C 65.254 440.412, 63.270 441, 59.934 441 C 54.719 441, 52.659 442.579, 53.173 446.181 C 53.429 447.974, 54.328 448.607, 57.301 449.087 C 64.044 450.177, 65.390 455.566, 59.402 457.501 C 51.887 459.930, 50.854 465.027, 57.201 468.358 C 63.749 471.794, 63.066 475.765, 55.582 477.767 C 40.527 481.793, 29.124 491.032, 29.022 499.283 C 28.989 501.936, 33.431 510.154, 36.389 512.913 C 40.001 516.282, 38.310 518, 31.378 518 C 22.673 518, 21.755 519.549, 22.166 533.543 C 22.459 543.522, 22.745 545.103, 24.500 546.427 C 26.258 547.754, 41.590 547.940, 151.095 547.968 L 275.690 548 277.595 545.896 C 279.222 544.099, 279.500 542.209, 279.500 532.934 C 279.500 519.692, 278.881 518.740, 269.793 518 C 262.569 517.411, 261.883 516.351, 265.809 511.844 C 276.192 499.926, 273.791 490.989, 258 482.772 C 252.457 479.888, 249.123 478.622, 241.250 476.413 C 237.784 475.441, 241.410 468, 245.350 468 C 246.281 468, 247.533 466.924, 248.132 465.609 C 249.685 462.200, 248.022 459.803, 242.831 457.972 C 235.703 455.457, 236.208 450.297, 243.699 449.089 C 246.969 448.562, 247.546 448.074, 247.830 445.597 C 248.229 442.121, 246.773 441.036, 241.684 441.015 C 237.229 440.997, 234.457 439.722, 233.015 437.028 C 232.115 435.346, 232.542 434.854, 236.362 433.164 C 239.140 431.935, 241.294 430.117, 242.256 428.188 C 243.731 425.232, 243.700 425.121, 241.136 424.151 C 239.686 423.602, 236.396 422.953, 233.824 422.708 C 217.067 421.111, 198.407 404.279, 192.102 385.072 C 189.037 375.736, 188.793 272.403, 191.829 269.655 C 193.380 268.251, 196.249 268, 210.752 268 L 227.846 268 230.923 264.923 C 237.314 258.532, 233.331 249.076, 224.203 248.968 C 219.214 248.909, 217.508 246.605, 217.438 239.831 C 217.356 232.015, 216.095 231, 206.464 231 C 197.335 231, 195.781 229.578, 195.273 220.759 C 194.870 213.748, 194.936 213.870, 190.759 212.438 C 189.055 211.854, 187.039 210.438, 186.277 209.291 C 184.994 207.359, 185.202 206.998, 189.121 204.353 C 196.819 199.157, 207.097 188.649, 210.593 182.400 C 217.083 170.797, 218.285 165.961, 218.398 151 C 218.527 133.938, 216.720 127.760, 206.847 111.500 C 205.845 109.850, 204.615 107.600, 204.114 106.500 C 203.613 105.400, 201.133 101.427, 198.602 97.672 C 196.071 93.916, 194 90.670, 194 90.457 C 194 90.245, 192.638 88.142, 190.973 85.785 C 189.309 83.428, 185.821 78.410, 183.223 74.634 C 180.626 70.858, 177.825 66.789, 177 65.593 C 176.175 64.396, 172.902 59.987, 169.726 55.794 L 163.952 48.171 166.878 43.836 C 173.222 34.434, 171.959 24.434, 163.416 16.420 C 159.182 12.449, 158 10.681, 158 8.325 C 158 5.347, 155.445 2, 153.171 2 C 152.527 2, 152 1.550, 152 1 C 152 -0.268, 149.814 -0.212, 148.500 1.091 M 152.393 6.582 C 152.727 7.452, 153 8.378, 153 8.641 C 153 8.903, 153.430 8.852, 153.956 8.527 C 155.117 7.809, 154.185 5, 152.786 5 C 152.236 5, 152.059 5.712, 152.393 6.582 M 137.744 26.988 C 135.344 32.529, 135.523 34.281, 139.163 40.852 C 143.002 47.781, 142.748 49.370, 136.494 57.526 C 133.975 60.812, 130.021 65.966, 127.707 68.980 C 122.813 75.354, 123.252 74.728, 111.250 92.433 C 106.162 99.937, 102 106.277, 102 106.521 C 102 106.765, 100.292 109.785, 98.204 113.232 C 80.721 142.095, 82.207 168.038, 102.525 188.688 C 110.735 197.032, 115.257 198.826, 107.723 190.750 C 89.628 171.354, 86.052 147.134, 97.952 124.574 C 104.151 112.822, 120.272 87.266, 130.500 72.973 C 131.600 71.436, 134.481 67.326, 136.903 63.839 C 139.324 60.353, 142.136 56.427, 143.153 55.115 C 146.061 51.361, 145.602 44.736, 142.080 39.617 C 138.630 34.602, 137.220 28.645, 138.981 26.523 C 139.646 25.722, 140.031 24.594, 139.838 24.015 C 139.646 23.437, 138.703 24.775, 137.744 26.988 M 211.985 146.750 C 211.953 156.693, 206.945 171.856, 200.473 181.606 C 197.201 186.537, 186.548 197, 184.800 197 C 184.360 197, 184 197.450, 184 198 C 184 202.854, 199.733 191.390, 206.444 181.645 C 212.340 173.085, 215 164.501, 215 154.036 C 215 149.156, 214.727 144.452, 214.393 143.582 C 213.205 140.486, 212 142.072, 211.985 146.750 M 121.925 207.026 C 121.059 208.387, 120.081 210.235, 119.752 211.133 C 119.422 212.030, 117.206 214.070, 114.826 215.665 C 110.739 218.405, 110.472 218.877, 109.994 224.208 C 109.387 230.980, 106.479 234.682, 101.090 235.542 C 93.656 236.729, 92.676 237.076, 93.746 238.146 C 94.381 238.781, 97.430 238.949, 101.640 238.582 C 105.413 238.252, 123.739 237.560, 142.364 237.044 C 174.250 236.160, 178.192 235.858, 176.748 234.415 C 175.892 233.558, 146.804 232.082, 129.917 232.038 C 121.896 232.017, 115.132 231.798, 114.885 231.552 C 114.639 231.306, 114.603 229.365, 114.806 227.239 L 115.174 223.374 139.337 222.168 C 167.829 220.747, 174.171 219.679, 160.096 218.673 C 154.924 218.303, 144.052 218, 135.935 218 C 120.260 218, 120.229 217.988, 122.858 213.204 C 123.552 211.941, 123.980 209.478, 123.810 207.730 L 123.500 204.552 121.925 207.026 M 86.611 248.884 C 84.883 250.688, 82.372 252.005, 79.910 252.398 C 77.744 252.745, 75.028 253.972, 73.875 255.125 C 71.791 257.209, 71.790 257.235, 73.740 259.185 C 75.659 261.103, 76.761 261.129, 122.602 260.324 C 172.153 259.453, 165.286 258.487, 107.054 258.135 L 84.608 258 87.677 254.750 C 91.118 251.106, 92.886 246, 90.706 246 C 89.974 246, 88.131 247.298, 86.611 248.884 M 117.309 294.250 C 116.864 294.938, 116.233 314.850, 115.908 338.500 C 115.563 363.560, 114.881 382.960, 114.273 385 C 111.964 392.752, 108.922 399.446, 104.959 405.500 C 100.537 412.255, 100.506 412.335, 102.801 411.107 C 108.225 408.204, 115.854 395.239, 118.961 383.647 C 120.823 376.697, 121 373.100, 121 342.169 C 121 298.965, 120.283 289.655, 117.309 294.250 M 82 423.320 C 74.510 426.289, 74 426.709, 74 429.910 C 74 434.281, 71.993 439.223, 68.866 442.548 C 65.780 445.829, 65.338 447.967, 67.146 450.863 C 68.761 453.447, 67.419 457.806, 64.037 460.966 L 61.188 463.627 65.153 467.921 C 69.520 472.650, 70.684 472.797, 68.862 468.389 C 67.127 464.192, 67.178 463.741, 69.680 461.138 C 71.936 458.792, 73.221 454.334, 72.747 450.500 C 72.465 448.219, 87.524 447.525, 148.500 447.009 C 165 446.869, 183.225 446.462, 189 446.104 L 199.500 445.454 181 444.753 C 170.825 444.368, 143.398 443.801, 120.052 443.495 C 96.705 443.188, 77.419 442.753, 77.194 442.528 C 76.969 442.302, 77.368 439.842, 78.081 437.059 L 79.378 432 91.939 431.844 C 98.848 431.758, 105.625 431.586, 107 431.463 C 108.375 431.339, 124.125 431.089, 142 430.907 C 206.623 430.249, 198.164 428.703, 123.183 427.468 C 103.759 427.148, 87.181 426.623, 86.344 426.302 C 85.139 425.839, 85.414 425.233, 87.661 423.395 C 91.244 420.463, 89.275 420.438, 82 423.320 M 45.146 488.085 C 37.906 491.703, 33.475 496.771, 34.384 500.394 C 34.717 501.721, 36.848 505.159, 39.120 508.032 C 45.971 516.700, 44.001 521.851, 33.628 522.394 C 26.109 522.788, 25.867 523.151, 26.209 533.553 L 26.500 542.423 30 543.236 C 32.803 543.887, 185.534 543.116, 188.250 542.437 C 188.662 542.334, 192.037 542.135, 195.750 541.994 L 202.500 541.738 196.500 540.965 C 188.581 539.946, 124.916 538.727, 73 538.601 L 31.500 538.500 31.200 532.750 L 30.900 527 35.417 527 C 41.858 527, 47 521.935, 47 515.589 C 47 512.750, 46.423 510.769, 45.333 509.872 C 42.194 507.288, 38 500.701, 38 498.356 C 38 495.664, 43.555 491.150, 51.500 487.388 C 55.586 485.453, 56.026 485.018, 53.910 485.010 C 52.485 485.004, 48.541 486.388, 45.146 488.085" stroke="none" fill="white" fill-rule="evenodd"/>
</svg>