<svg class="chess-piece chess-piece--bk"   width="426" height="428" viewBox="0 0 426 428" version="1.1" id="bK" xmlns="http://www.w3.org/2000/svg" data-piece="bK" data-piece-name="black-king" data-color="black" data-type="king" data-original="bK">
	<path d="M 209.240 50.022 C 208.072 51.379, 207.336 54.421, 207 59.272 L 206.500 66.500 196.795 66.786 C 187.697 67.053, 186.961 67.234, 185.045 69.671 C 182.458 72.959, 182.465 75.050, 185.073 78.365 C 187.047 80.875, 187.588 81, 196.466 81 C 207.517 81, 207.006 80.377, 206.985 93.832 C 206.967 105.089, 207.021 104.969, 200.500 108.265 C 184.280 116.465, 174.550 135.364, 175.770 156.302 L 176.224 164.104 169.068 159.475 C 118.046 126.470, 64.096 142.463, 50.510 194.621 C 43.421 221.838, 58.982 252.459, 91.225 274.746 C 100.785 281.353, 101.745 281.715, 103.516 279.375 C 105.661 276.543, 105.601 276.466, 96.750 270.618 C 64.281 249.166, 50.084 222.481, 56.549 195.053 C 63.273 166.528, 89.341 149.459, 120.936 152.897 C 154.915 156.593, 190.381 178.507, 209.857 207.839 L 213.459 213.265 215.480 210.460 C 229.452 191.061, 239.396 180.856, 253.414 171.529 C 293.649 144.757, 337.375 146.506, 361.806 175.863 C 375.452 192.259, 375.615 216.366, 362.227 238 C 355.695 248.556, 340.015 263.780, 326.695 272.500 C 320.033 276.861, 316.001 280.142, 316.001 281.203 C 315.999 284.182, 313.858 287.743, 311.394 288.866 C 308.884 290.010, 307.666 289.720, 299.666 286.076 C 272.825 273.848, 246.889 268.888, 209.500 268.833 C 172.689 268.779, 143.362 274.403, 117.865 286.406 C 108.944 290.606, 109.026 290.595, 105.738 288.009 C 102.335 285.332, 102 286.398, 102 299.915 C 102 311.504, 102.396 312.856, 105.080 310.427 C 107.516 308.223, 122.684 301.820, 134 298.219 C 178.944 283.919, 241.918 284.268, 287.208 299.068 C 298.189 302.656, 310.735 308.403, 313.729 311.215 L 316 313.349 316 300.168 L 316 286.987 323.250 282.359 C 346.093 267.778, 364.841 248.516, 372.517 231.741 C 387.569 198.847, 370.793 162.205, 333.849 147.283 C 311.910 138.421, 281.433 141.732, 258.648 155.453 C 252.004 159.454, 252.266 159.757, 251.764 147.500 C 251.121 131.805, 240.698 115.139, 227.239 108.286 L 221.500 105.364 221.500 93.432 L 221.500 81.500 231.219 81 C 242.171 80.437, 244.333 79.265, 244.333 73.892 C 244.333 68.458, 241.383 67, 230.389 67 L 221 67 221 59.955 C 221 53.808, 220.687 52.596, 218.545 50.455 C 215.565 47.475, 211.592 47.290, 209.240 50.022 M 97.487 168.742 C 81.782 174.351, 72.475 185.342, 69.697 201.557 C 66.066 222.759, 81.460 246.003, 109.690 261.944 C 113.986 264.370, 117.860 266.949, 118.300 267.677 C 119.444 269.570, 120.537 269.402, 132.636 265.466 C 150.506 259.652, 171.680 255.973, 196.250 254.411 L 207 253.727 207 243.085 C 207 233.052, 206.808 232.045, 203.634 225.472 C 192.076 201.532, 165.817 179.857, 137 170.470 C 125.702 166.790, 105.434 165.903, 97.487 168.742 M 292 169.058 C 265.133 176.035, 238.202 197.866, 225.008 223.362 C 221.013 231.082, 221 231.146, 221 242.585 C 221 250.911, 221.343 254.160, 222.250 254.418 C 222.938 254.613, 229.575 255.278, 237 255.895 C 254.437 257.345, 271.966 260.958, 288.717 266.555 L 302.104 271.027 308.802 267.098 C 359.995 237.068, 373.429 196.777, 339.572 174.816 C 327.334 166.877, 308.960 164.653, 292 169.058 M 196.419 302.128 C 165.439 303.347, 137.041 309.838, 115.974 320.513 C 110.076 323.502, 107.629 323.629, 105.077 321.077 C 103.448 319.448, 103.066 319.384, 102.577 320.659 C 101.612 323.174, 101.963 343.396, 103 345 C 103.635 345.982, 103.975 346.072, 103.985 345.261 C 104.023 342.127, 128.620 332.257, 148.289 327.483 C 168.626 322.548, 178.595 321.562, 208.500 321.530 C 237.752 321.499, 244.703 322.108, 265.500 326.528 C 284.846 330.639, 307.862 339.144, 313.750 344.357 L 316 346.349 316 332.602 L 316 318.855 313.365 320.927 C 309.829 323.709, 308.653 323.580, 300.076 319.469 C 273.083 306.533, 237.161 300.523, 196.419 302.128 M 178 336.478 C 162.617 338.458, 147.874 341.655, 136.230 345.535 C 122.445 350.129, 110.709 355.618, 111.232 357.227 C 111.732 358.761, 124.181 365.072, 132.500 368.008 C 186.095 386.921, 249.922 384.905, 298 362.782 C 309.340 357.563, 309.464 357.002, 300.244 352.678 C 285.822 345.915, 267.304 340.522, 248 337.462 C 233.737 335.202, 192.420 334.621, 178 336.478" stroke="none" fill="black" fill-rule="evenodd"/>
</svg>