<svg class="chess-piece chess-piece--br"   width="426" height="428" viewBox="0 0 426 428" version="1.1" id="bR" xmlns="http://www.w3.org/2000/svg" data-piece="bR" data-piece-name="black-rook" data-color="black" data-type="rook" data-original="bR">
	<path d="M 103.020 77.254 C 98.385 79.656, 98.031 81.812, 98.015 107.668 C 98.007 120.961, 98.269 132.538, 98.599 133.396 C 98.928 134.254, 105.193 139.950, 112.521 146.054 C 119.849 152.158, 126.104 157.829, 126.422 158.658 C 126.740 159.486, 127 186.095, 127 217.788 L 127 275.413 121.459 284.698 C 117.451 291.414, 115.232 294.155, 113.436 294.605 C 108.582 295.824, 108 298.085, 108 315.723 L 108 332 96.556 332 C 85.898 332, 84.919 332.166, 82.306 334.415 L 79.500 336.829 79.500 354.004 C 79.500 370.847, 79.546 371.215, 81.861 373.089 C 85.561 376.084, 343.439 376.084, 347.139 373.089 C 349.454 371.215, 349.500 370.847, 349.500 354.004 L 349.500 336.829 346.694 334.415 C 344.081 332.166, 343.102 332, 332.444 332 L 321 332 321 315.723 C 321 298.085, 320.418 295.824, 315.564 294.605 C 313.768 294.155, 311.549 291.414, 307.541 284.698 L 302 275.413 302 217.262 L 302 159.112 304.250 156.674 C 305.488 155.333, 311.791 149.859, 318.258 144.510 C 324.725 139.161, 330.260 133.810, 330.559 132.620 C 330.858 131.430, 330.967 119.340, 330.801 105.754 C 330.409 73.549, 333.061 76.500, 304.500 76.500 C 277.125 76.500, 278.824 75.359, 278.032 94.275 C 278.015 94.701, 270.688 94.926, 261.750 94.775 L 245.500 94.500 245 87.283 C 244.216 75.972, 245.711 76.500, 214.500 76.500 C 183.289 76.500, 184.784 75.972, 184 87.283 L 183.500 94.500 167.250 94.775 C 158.313 94.926, 150.985 94.701, 150.968 94.275 C 150.182 75.503, 151.683 76.575, 125.724 76.234 C 110.758 76.038, 104.855 76.303, 103.020 77.254 M 102.655 127.829 C 100.387 130.335, 100.580 132.593, 103.223 134.443 C 106.608 136.814, 322.392 136.814, 325.777 134.443 C 328.476 132.553, 328.631 129.881, 326.171 127.655 C 323.191 124.958, 105.100 125.127, 102.655 127.829 M 130.491 152.010 C 128.905 153.763, 128.843 154.338, 130.005 156.510 L 131.338 159 214.500 159 L 297.662 159 298.995 156.510 C 300.157 154.338, 300.095 153.763, 298.509 152.010 C 295.647 148.847, 133.353 148.847, 130.491 152.010 M 130.557 275.223 C 128.553 278.083, 128.592 278.592, 131 281 C 132.967 282.967, 134.333 283, 214.500 283 C 294.667 283, 296.033 282.967, 298 281 C 299.100 279.900, 300 278.550, 300 278 C 300 277.450, 299.100 276.100, 298 275 C 296.033 273.033, 294.667 273, 214.057 273 L 132.113 273 130.557 275.223 M 121.571 293.571 C 119.353 295.790, 119.621 298.621, 122.223 300.443 C 124.194 301.824, 134.612 302, 214.500 302 C 311.517 302, 309 302.133, 309 297.015 C 309 291.778, 313.188 292, 214.500 292 C 132.781 292, 122.977 292.166, 121.571 293.571 M 111.452 332.433 C 110.212 334.325, 110.104 335.325, 110.964 336.933 L 112.070 339 214.500 339 L 316.930 339 318.036 336.933 C 318.896 335.325, 318.788 334.325, 317.548 332.433 L 315.954 330 214.500 330 L 113.046 330 111.452 332.433" stroke="none" fill="black" fill-rule="evenodd"/>
</svg>