<svg class="chess-piece chess-piece--wb"   width="426" height="428" viewBox="0 0 426 428" version="1.1" id="wB" xmlns="http://www.w3.org/2000/svg" data-piece="wB" data-piece-name="white-bishop" data-color="white" data-type="bishop" data-original="bB">
	<path d="M 205.929 44.325 C 183.355 50.621, 175.342 75.820, 190.064 94.215 L 193.037 97.929 190.769 99.306 C 189.521 100.063, 185.125 102.628, 181 105.006 C 145.796 125.300, 124.677 155.883, 123.264 188.617 C 122.202 213.199, 130.847 232.455, 148.444 244.708 L 151.388 246.758 147.399 251.629 C 140.431 260.136, 136.961 267.210, 135.516 275.856 L 134.788 280.212 136.894 278.106 C 138.994 276.006, 139.204 276, 210.750 275.889 C 289.008 275.769, 286.938 275.733, 288.774 277.240 C 294.959 282.314, 287.602 262.082, 279.894 252.821 C 275.244 247.232, 275.099 245.963, 278.862 243.741 C 283.898 240.766, 293.399 229.644, 296.680 222.883 C 308.431 198.666, 305.010 169.393, 287.309 142.692 C 277.694 128.189, 257.463 110.815, 239.821 101.909 C 232.984 98.459, 232.964 98.375, 237.491 92.444 C 254.719 69.874, 233.008 36.772, 205.929 44.325 M 208.861 139.908 C 206.745 141.618, 206.448 142.838, 206 151.658 L 205.500 161.500 196.034 161.790 C 184.953 162.130, 183 163.225, 183 169.098 C 183 174.779, 185.411 176, 196.629 176 L 205.813 176 206.156 185.966 C 206.542 197.158, 207.656 199.333, 213 199.333 C 218.259 199.333, 219.439 197.123, 220 186.219 L 220.500 176.500 230.342 176 C 239.162 175.552, 240.382 175.255, 242.092 173.139 C 244.545 170.104, 244.503 167.909, 241.927 164.635 C 239.953 162.125, 239.412 162, 230.534 162 C 219.592 162, 220 162.442, 220 150.593 C 220 143.268, 219.742 142.106, 217.686 140.174 C 214.833 137.494, 211.955 137.408, 208.861 139.908 M 160.557 240.223 C 158.168 243.632, 158.603 247.542, 161.635 249.927 C 164.218 251.959, 165.220 252, 212.588 252 C 245.869 252, 261.664 251.654, 263.343 250.890 C 267.913 248.807, 268.733 243.872, 265.193 239.750 C 263.798 238.126, 260.032 238, 212.902 238 L 162.113 238 160.557 240.223 M 291.015 283.595 C 291.007 284.747, 290.053 286.547, 288.895 287.595 C 286.865 289.432, 284.157 289.500, 212.800 289.500 L 138.810 289.500 136.597 286.725 C 133.793 283.207, 133 284.035, 133 290.485 C 133 298.227, 135.477 305.380, 139.266 308.583 C 144.312 312.846, 157.611 318.735, 167.500 321.085 C 179.254 323.877, 179 323.794, 179 324.837 C 179 326.319, 171.964 326.896, 141 327.951 C 86.117 329.821, 75.326 331.784, 62.567 342.218 C 46.974 354.970, 46.387 363.639, 60.646 370.615 C 66.845 373.648, 77.397 373.641, 85.821 370.599 C 93.777 367.726, 106.529 366.970, 146.144 367.023 C 186.146 367.076, 196.886 366.343, 209 362.731 C 212.934 361.558, 214.193 361.603, 219.010 363.092 C 229.073 366.202, 242.895 367.067, 287 367.343 L 330.500 367.616 340.263 370.308 C 355.083 374.395, 363.260 373.707, 370.465 367.769 C 378.971 360.757, 378.482 355.916, 368.430 347.625 C 348.998 331.596, 341.685 329.831, 287 327.974 C 254.999 326.887, 247.916 326.263, 247.910 324.534 C 247.908 324.002, 251.415 322.808, 255.703 321.880 C 276.149 317.456, 289.423 309.615, 291.901 300.500 C 293.247 295.551, 293.306 285.021, 292 283 C 291.205 281.769, 291.028 281.876, 291.015 283.595" stroke="none" fill="white" fill-rule="evenodd"/>
</svg>