<svg class="chess-piece chess-piece--wk"   width="388" height="688" viewBox="0 0 388 688" version="1.1" id="wK" xmlns="http://www.w3.org/2000/svg" data-piece="wK" data-piece-name="white-king" data-color="white" data-type="king" data-original="bK">
	<path d="M 178.774 17.250 L 178.500 34.500 161.500 35 L 144.500 35.500 144.210 47.500 C 143.775 65.548, 142.286 64, 160.085 64 C 168.545 64, 175.978 64.453, 177.066 65.035 C 178.845 65.987, 178.999 67.252, 178.985 80.785 C 178.976 88.878, 178.639 95.981, 178.235 96.570 C 177.480 97.669, 168.051 99.324, 141 103.106 C 124.140 105.462, 121 106.640, 121 110.606 C 121 113.057, 124.418 122.420, 128.810 132 C 132.569 140.201, 133.153 141.735, 143.643 171 C 144.669 173.860, 148.146 187.459, 148.943 191.725 C 149.651 195.515, 149.397 196.560, 146.745 200.740 C 141.510 208.996, 142.200 216.003, 148.730 220.901 C 153.717 224.641, 154 225.043, 154 228.390 C 154 236.638, 150.255 242.045, 142 245.716 C 133.791 249.366, 131 252.419, 131 257.753 C 131 263.374, 132.219 265.552, 136.633 267.816 L 140.204 269.648 133.537 271.453 C 124.826 273.811, 120 278.093, 120 283.464 C 120 292.540, 125.804 295.777, 142.732 296.140 C 148.359 296.261, 153.500 296.691, 154.156 297.096 C 155.253 297.774, 154.525 324.661, 152.520 357.500 C 152.286 361.350, 151.830 369, 151.509 374.500 C 149.508 408.781, 144.796 435.712, 138.038 451.500 C 134.630 459.460, 127.792 472.379, 118.189 489 C 106.608 509.043, 101 523.720, 101 533.989 C 101 541.274, 104.916 549.256, 112.060 556.531 C 117.706 562.281, 118.403 565.688, 114.693 569.398 C 113.136 570.955, 104.296 574.401, 87.488 580.004 C 63.997 587.834, 62.316 588.560, 57.730 592.849 C 43.209 606.432, 46.383 624.091, 64.930 632.901 C 74.536 637.464, 74.806 638.746, 66.200 638.930 C 62.091 639.017, 57.503 641.281, 53.162 645.362 C 40.863 656.926, 43.334 676.330, 58.152 684.538 L 63.500 687.500 193.500 687.500 L 323.500 687.500 328.235 685.080 C 338.842 679.660, 344.571 666.319, 340.973 655.418 C 338.233 647.116, 325.944 638, 317.494 638 C 313.629 638, 315.464 635.757, 321.455 633.159 C 332.898 628.196, 338 621.676, 338 612.018 C 338 595.615, 332.401 590.967, 299.393 579.964 C 273.483 571.328, 271.344 570.254, 270.410 565.408 C 269.884 562.683, 270.466 561.611, 275.305 556.384 C 290.813 539.633, 289.649 524.692, 270.208 490.948 C 239.659 437.925, 237.736 429.469, 233.493 329.500 C 233.189 322.350, 232.712 312.675, 232.431 308 C 232.151 303.325, 232.306 298.933, 232.776 298.239 C 233.304 297.462, 237.058 296.766, 242.566 296.425 C 260.616 295.306, 265.936 293.068, 267.351 285.997 C 268.621 279.643, 264.264 274.745, 254.776 271.863 C 248.890 270.075, 246.531 268, 250.385 268 C 253.353 268, 256 263.461, 256 258.373 C 256 252.366, 253.561 249.554, 244.969 245.653 C 238.520 242.725, 236.320 240.563, 234.449 235.316 C 231.909 228.194, 232.478 225.961, 238.097 221 C 245.565 214.407, 245.955 206.421, 239.184 198.705 C 237.809 197.139, 237.764 195.991, 238.826 189.705 C 240.881 177.548, 253.001 143.031, 262.230 123.055 C 263.896 119.450, 265.473 114.682, 265.735 112.461 C 266.529 105.740, 268.609 106.372, 224.500 99.920 C 216.250 98.713, 209.169 97.225, 208.765 96.613 C 208.361 96.001, 208.024 89.120, 208.015 81.321 C 207.995 62.833, 206.710 64, 227.099 64 L 243.055 64 242.777 49.750 L 242.500 35.500 225.500 35 L 208.500 34.500 208.226 17.250 L 207.953 -0 193.500 -0 L 179.047 -0 178.774 17.250" stroke="none" fill="white" fill-rule="evenodd"/>
</svg>