<svg class="chess-piece chess-piece--bp"   width="426" height="428" viewBox="0 0 426 428" version="1.1" id="bP" xmlns="http://www.w3.org/2000/svg" data-piece="bP" data-piece-name="black-pawn" data-color="black" data-type="pawn" data-original="bP">
	<path d="M 201.293 76.982 C 173.972 81.123, 156.911 110.822, 166.402 137.721 L 167.876 141.901 164.188 145.048 C 137.285 168.005, 132.173 206.694, 152.145 236.195 C 154.265 239.327, 155.986 242.252, 155.968 242.695 C 155.951 243.138, 152.913 245.514, 149.218 247.976 C 123.740 264.952, 102.387 300.456, 95.573 337.175 C 93.761 346.944, 91.670 375.977, 92.604 378.411 C 93.424 380.548, 323.496 380.885, 324.196 378.750 C 325.207 375.663, 323.047 346.532, 321.062 336.500 C 313.628 298.919, 292.752 264.451, 267.283 247.707 C 263.827 245.435, 261 243.169, 261 242.672 C 261 242.176, 263.099 238.611, 265.665 234.752 C 284.521 206.388, 279.439 169.748, 253.286 145.500 L 248.972 141.500 251.065 135 C 261.204 103.521, 234.163 71.999, 201.293 76.982" stroke="none" fill="black" fill-rule="evenodd"/>
</svg>