<svg class="chess-piece chess-piece--wk"   width="360" height="662" viewBox="0 0 360 662" version="1.1" id="wK" xmlns="http://www.w3.org/2000/svg" data-piece="wK" data-piece-name="white-king" data-color="white" data-type="king" data-original="bK">
	<path d="M 152.586 7.250 C 152.916 11.238, 153.586 17.187, 154.073 20.470 C 155.230 28.258, 154.941 28.460, 144.321 27.272 C 139.469 26.730, 135.050 26.559, 134.500 26.893 C 133.171 27.699, 133.171 57.129, 134.500 58.630 C 135.089 59.296, 136.322 59.449, 137.500 59.002 C 138.600 58.585, 142.875 58.076, 147 57.872 L 154.500 57.500 154.756 61 C 154.897 62.925, 154.442 68.100, 153.745 72.500 C 152.562 79.966, 152.311 80.507, 149.989 80.608 C 148.620 80.668, 146.938 80.781, 146.250 80.858 C 145.373 80.958, 145 83.247, 145 88.525 C 145 97.132, 145.583 96.582, 133.419 99.457 C 129.614 100.357, 125.719 101.522, 124.764 102.046 C 123.809 102.571, 122.211 103, 121.214 103 C 120.216 103, 118.972 103.360, 118.450 103.800 C 117.927 104.240, 114.800 105.671, 111.500 106.980 C 97.974 112.345, 80.607 124.930, 77.016 131.969 C 72.729 140.372, 74.339 143.294, 95.312 165.179 C 104.442 174.705, 113.384 184.525, 115.183 187 C 120.415 194.199, 123 198.048, 123 198.640 C 123 198.943, 123.870 200.413, 124.934 201.907 C 130.548 209.791, 127.601 215, 117.526 215 C 111.023 215, 109 216.068, 109 219.500 C 109 222.492, 110.898 224, 114.665 224 C 119.135 224, 120 226.086, 120 236.863 C 120 248.797, 119.782 249, 106.929 249 C 98.333 249, 96.731 249.269, 95 251 C 91.509 254.491, 93.571 262, 98.022 262 C 100.530 262, 101.990 264.902, 100.914 267.750 C 100.115 269.865, 99.497 270, 90.597 270 C 85.390 270, 79.959 270.445, 78.527 270.990 C 70.338 274.103, 68.257 284.036, 74.392 290.731 L 77.785 294.433 95.628 294.312 C 114.883 294.183, 118.441 294.920, 119.530 299.268 C 120.879 304.653, 119.529 468.437, 118.111 471.500 C 117.347 473.150, 115.668 476.857, 114.380 479.737 C 108.306 493.320, 88.091 507, 74.096 507 C 68.675 507, 71.023 511.622, 77.500 513.702 C 81.631 515.029, 81.691 517.125, 77.718 521.338 C 75.296 523.906, 73.145 525.113, 70.134 525.595 C 64.825 526.443, 61.433 529.083, 60.656 532.970 C 59.457 538.967, 63.020 543.911, 68.583 543.968 C 72.604 544.010, 73.387 544.915, 71.347 547.169 C 70.079 548.570, 68.229 549, 63.467 549 C 54.285 549, 53.641 550.479, 59.842 557.326 C 68.956 567.389, 68.075 569.916, 52.667 577.892 C 25.227 592.098, 17.734 605.323, 29.055 619.569 C 33.807 625.549, 32.825 627, 24.025 627 C 17.944 627, 18 626.841, 18 644.010 C 18 654.779, 18.323 658.180, 19.451 659.309 C 22.923 662.780, 314.218 662.922, 318.050 659.455 C 319.518 658.126, 319.817 655.862, 319.939 645.114 C 320.131 628.164, 319.724 627.188, 312.304 626.801 C 305.045 626.423, 304.581 625.015, 309.406 618.001 C 316.380 607.862, 315.285 600.274, 305.544 591.241 C 299.286 585.437, 289.245 579.009, 281 575.529 C 270.325 571.023, 269.331 566.702, 277.085 558.503 C 283.970 551.224, 283.573 549.592, 274.826 549.206 C 270.625 549.021, 267.740 548.392, 267 547.500 C 265.378 545.546, 266.602 544.006, 269.809 543.968 C 280.840 543.838, 280.437 527.309, 269.359 525.502 C 263.775 524.591, 261.300 523.394, 259.632 520.796 C 256.849 516.461, 257.200 514.952, 261.324 513.516 C 265.773 511.967, 265.551 512.152, 266.443 509.250 C 267.032 507.334, 266.765 507, 264.644 507 C 249.599 507, 231.064 494.612, 223.696 479.632 C 217.817 467.679, 218 470.820, 218 381.634 C 218 300.333, 218.032 298.968, 220 297 C 221.848 295.152, 223.333 295, 239.599 295 C 253.254 295, 257.914 294.660, 260.393 293.484 C 269.165 289.321, 269.165 275.679, 260.393 271.516 C 258.242 270.495, 254.126 270, 247.799 270 C 241.822 270, 237.963 269.563, 237.200 268.800 C 234.955 266.555, 235.899 264.064, 239.678 262.258 C 244.186 260.103, 245.748 256.334, 243.810 252.285 C 242.493 249.532, 242.358 249.497, 232.026 249.213 C 218.161 248.831, 218 248.681, 218 236.045 C 218 225.558, 218.663 224, 223.129 224 C 225.836 224, 229 221.771, 229 219.863 C 229 216.388, 226.836 215, 221.415 215 C 214.227 215, 210 212.868, 210 209.244 C 210 202.883, 223.905 184.148, 243.580 164 C 259.855 147.334, 262 144.310, 262 138.036 C 262 131.780, 259.501 128.047, 251 121.608 C 237.323 111.246, 223.019 104.453, 205.500 99.999 C 192.597 96.719, 193.128 97.208, 192.793 88.291 C 192.502 80.553, 192.482 80.502, 189.886 80.767 C 185.972 81.166, 184.963 79.082, 184.108 68.829 C 183.142 57.250, 183.261 56.890, 187.855 57.469 C 189.860 57.722, 194.313 58.192, 197.750 58.514 L 204 59.099 204 43.050 L 204 27 198.250 27.024 C 195.088 27.037, 190.858 27.429, 188.852 27.896 C 182.357 29.405, 182.514 30.203, 184.612 6.250 L 185.159 -0 168.573 -0 L 151.986 0 152.586 7.250 M 158.465 7.057 C 157.717 8.267, 158.736 28.149, 159.672 30.586 C 160.305 32.238, 160.352 32.231, 148 32.383 L 138.500 32.500 138.216 42.099 C 137.861 54.073, 137.868 54.080, 149.008 53.083 C 161.035 52.007, 160.313 51.097, 159.575 66.397 C 158.971 78.911, 159.014 79.343, 160.532 76 C 162.179 72.374, 164.547 50.694, 163.484 48.975 C 163.153 48.439, 158.409 48, 152.941 48 L 143 48 143 42.413 L 143 36.825 153.250 37.163 L 163.500 37.500 163.187 28 C 163.015 22.775, 162.480 17.004, 161.997 15.175 C 160.800 10.638, 161.593 9.167, 165.643 8.407 C 169.887 7.611, 169.710 7.432, 163.839 6.580 C 160.729 6.129, 158.940 6.288, 158.465 7.057 M 127.500 107.012 C 112.865 110.885, 105.337 114.293, 92.718 122.759 C 82.911 129.339, 80 132.979, 80 138.665 L 80 143.260 96.392 159.880 C 113.715 177.444, 119.570 184.285, 128.187 197.028 C 133.926 205.514, 135.944 205.317, 131.443 196.710 C 124.957 184.305, 116.106 173.114, 98.564 155.137 L 86.500 142.775 92.500 143.391 C 95.800 143.730, 101.875 144.472, 106 145.040 C 116.209 146.448, 158.430 147.303, 164 146.215 C 167.844 145.465, 166.458 145.236, 154.500 144.648 C 139.405 143.906, 124.206 142.409, 117 140.954 C 105.750 138.682, 95.230 136.682, 92.285 136.255 C 86.349 135.395, 86.325 133.581, 92.188 128.936 C 101.449 121.598, 109.160 117.198, 122.500 111.638 C 127.450 109.575, 132.400 107.496, 133.500 107.017 C 134.600 106.538, 136.175 105.924, 137 105.652 C 141.057 104.315, 133.723 105.365, 127.500 107.012 M 135.131 219.079 C 128.515 219.937, 127.148 220.481, 128.415 221.750 C 129.351 222.687, 195.907 223.346, 201.871 222.478 C 207.572 221.648, 206.134 220.380, 198 219.066 C 190.475 217.849, 144.541 217.859, 135.131 219.079 M 139 253.084 C 103.622 254.507, 101.199 256.154, 132.543 257.471 C 162.659 258.736, 211.739 257.595, 213.752 255.582 C 214.072 255.262, 213.696 254.966, 212.917 254.923 C 212.137 254.881, 210.627 254.684, 209.561 254.484 C 208.494 254.285, 200.169 253.858, 191.061 253.537 C 181.952 253.215, 171.125 252.796, 167 252.606 C 162.875 252.415, 150.275 252.630, 139 253.084 M 117.500 279.138 C 108.700 279.601, 99.925 280.277, 98 280.640 L 94.500 281.301 98 282.211 C 99.925 282.711, 126.925 283.186, 158 283.265 C 209.617 283.398, 227.202 282.869, 225.566 281.232 C 223.091 278.758, 151.204 277.364, 117.500 279.138 M 125.577 356.250 C 124.627 359.505, 123.047 402.677, 122.603 437.500 C 122.186 470.218, 121.772 473.263, 116.310 483.790 C 111.858 492.368, 107.791 497.090, 99.250 503.592 C 95.263 506.628, 92 509.321, 92 509.575 C 92 510.240, 96.996 508.892, 99.433 507.570 C 116.385 498.373, 126.492 483.813, 129.978 463.566 C 131.707 453.527, 130.768 394.157, 128.360 361.250 C 127.826 353.950, 126.790 352.090, 125.577 356.250 M 124.715 511.111 C 111.666 512.114, 108.247 513.434, 115.954 514.494 C 122.940 515.455, 206.529 515.434, 215.484 514.469 C 242.769 511.530, 159.402 508.445, 124.715 511.111 M 122.500 532.085 C 101.050 532.408, 83.275 532.774, 83 532.899 C 73.341 537.301, 228.368 538.542, 240.077 534.156 C 245.686 532.055, 189.936 531.073, 122.500 532.085 M 70.817 565.194 C 70.169 573.003, 67.661 576.032, 59.044 579.413 C 45.753 584.628, 31.540 595.649, 29.272 602.500 C 27.993 606.363, 29.814 612.802, 33.386 617.046 C 36.417 620.649, 36.973 626.947, 34.445 629.045 C 33.590 629.755, 32.422 631.211, 31.850 632.281 C 30.828 634.189, 30.867 634.192, 33.888 632.407 C 39.634 629.013, 41.456 620.547, 37.427 615.963 C 28.662 605.992, 35.006 596.940, 59.405 584.604 C 68.471 580.020, 69.729 579.045, 71.750 575.038 C 74.280 570.021, 74.567 565.652, 72.601 562.103 C 71.344 559.836, 71.247 560.004, 70.817 565.194 M 24.750 645.875 C 23.515 651.434, 23.853 654.719, 25.750 655.584 C 28.044 656.630, 206.657 657.417, 219 656.436 C 233.596 655.275, 225.861 654.198, 197.500 653.442 C 184.300 653.089, 172.150 652.671, 170.500 652.512 C 168.850 652.354, 135.687 652.173, 96.805 652.112 L 26.110 652 25.805 647.250 C 25.506 642.593, 25.485 642.566, 24.750 645.875" stroke="none" fill="white" fill-rule="evenodd"/>
</svg>