<svg class="chess-piece chess-piece--wn-left"   width="360" height="488" viewBox="0 0 360 488" version="1.1" id="bN-left" xmlns="http://www.w3.org/2000/svg" data-piece="bN-left" data-piece-name="white-knight-left" data-color="white" data-type="unknown" data-original="bN-left">
	<path d="M 211.712 2.621 C 210.571 3.762, 210.891 9.491, 212.167 10.767 C 213.703 12.303, 210.528 13.665, 208.737 12.238 C 207.008 10.861, 196.600 7.391, 189.836 5.938 C 181.363 4.116, 180.591 4.713, 181.320 12.523 C 182.024 20.058, 182.573 19.806, 171.387 17.073 C 162.038 14.788, 153.732 13.930, 151.903 15.060 C 150.818 15.731, 150.818 16.764, 151.902 20.995 C 152.624 23.813, 152.982 26.351, 152.698 26.636 C 152.413 26.920, 147.772 26.219, 142.385 25.077 C 130.408 22.537, 120.207 22.298, 119.348 24.536 C 119.024 25.381, 119.991 29.452, 121.498 33.584 C 123.005 37.715, 124.021 41.313, 123.755 41.578 C 123.490 41.843, 119.949 41.544, 115.886 40.912 C 106.111 39.393, 88.422 40.149, 86.398 42.173 C 85.069 43.502, 85.131 44.527, 86.951 51.317 C 89.927 62.424, 90.495 61.670, 78.750 62.206 C 68.730 62.663, 61.439 64.863, 59.490 68.016 C 58.853 69.047, 62.591 76.261, 66.159 80.885 C 69.179 84.797, 68.542 85.888, 63.250 85.865 C 56.846 85.838, 49.873 87.524, 43.925 90.538 C 37.404 93.843, 37.482 95.826, 44.500 105.089 C 50.842 113.460, 50.933 113.772, 47.250 114.522 C 39.988 116.001, 31.907 122.037, 28.600 128.451 C 27.085 131.390, 27.102 131.426, 32.754 137.352 L 38.430 143.302 35.965 144.840 C 31.888 147.384, 23.572 156.620, 21.259 161.174 C 18.576 166.458, 19.410 167.705, 27.453 170.439 C 33.852 172.614, 33.978 172.960, 30.155 177.856 C 25.995 183.184, 22.461 189.769, 20.499 195.851 C 18.570 201.830, 19.249 203.478, 24 204.348 C 31.662 205.752, 34.020 207.288, 30.555 208.617 C 27.201 209.904, 17 226.322, 17 230.432 C 17 232.511, 20.463 234.658, 27.702 237.067 C 31.166 238.220, 34 239.431, 34 239.758 C 34 240.086, 32.433 242.637, 30.518 245.427 C 26.802 250.840, 22 263.293, 22 267.517 C 22 270.139, 22.130 270.221, 34.872 275.581 C 38.149 276.960, 38.198 277.063, 36.589 279.250 C 31.894 285.633, 29.172 295.770, 30.398 302.307 C 30.972 305.368, 31.546 305.803, 37.760 307.882 C 41.467 309.122, 45.947 310.795, 47.716 311.599 L 50.931 313.061 49.165 316.281 C 46.289 321.521, 45 327.279, 45 334.891 C 45 343.638, 45.894 344.211, 59.088 343.921 C 69.693 343.688, 70.319 343.993, 68.440 348.490 C 66.768 352.491, 66.530 362.253, 68.035 365.066 C 69.441 367.693, 71.138 367.513, 78.614 363.945 C 85.666 360.580, 87 360.740, 87 364.951 C 87 367.138, 87.569 367.926, 89.500 368.411 C 94.173 369.584, 91.837 374.260, 85.487 376.443 C 81.906 377.674, 81.500 378.155, 81.500 381.157 C 81.500 384.361, 81.672 384.513, 85.642 384.802 C 91.169 385.205, 94.476 388.448, 91.546 390.590 C 90.457 391.387, 87.294 392, 84.277 392 C 76.373 392, 76.279 393.151, 83.198 405.235 C 85.272 408.857, 85.281 409.032, 83.513 410.985 C 82.510 412.093, 80.757 413, 79.616 413 C 74.756 413, 63.865 418.262, 59.081 422.921 C 51.034 430.760, 51.372 438.234, 60.152 446.546 C 67.221 453.239, 65.861 457, 56.371 457 C 49.237 457, 49 457.486, 49 472.143 C 49 484.178, 49.124 484.973, 51.223 486.443 C 53.205 487.832, 66.654 488, 175.548 488 L 297.651 488 299.826 485.686 C 301.785 483.600, 302 482.288, 302 472.408 C 302 459.993, 300.861 457, 296.134 457 C 290.397 457, 287.923 452.449, 291.393 448.277 C 303.814 433.342, 294.968 418.047, 270.928 412.891 C 264.826 411.582, 264.237 409.867, 267.917 404.118 C 270.595 399.933, 273.226 394.274, 273.086 393 C 273.055 392.725, 270.032 392.275, 266.368 392 C 256.125 391.231, 254.554 386.380, 264.124 385.070 C 271.172 384.105, 272.120 378.612, 265.543 376.853 C 262.382 376.008, 258 372.279, 258 370.434 C 258 369.765, 259.095 368.942, 260.433 368.606 C 265.352 367.372, 265.013 358.601, 260.004 357.501 C 254.411 356.272, 254.136 353.647, 258.538 343.500 C 262.790 333.698, 264.750 317.557, 263.078 306.119 C 260.273 286.937, 253.206 273.668, 230.500 244.955 C 194.405 199.310, 192.659 196.251, 195.212 183.119 C 198.946 163.910, 215.689 159.986, 234.692 173.867 C 238.342 176.533, 247 186.834, 247 188.511 C 247 188.838, 248.925 192.120, 251.277 195.803 C 259.050 207.975, 260.605 214.097, 257.896 221.868 C 256.233 226.638, 257.462 229.685, 261.976 231.988 C 264.145 233.095, 266.529 234, 267.272 234 C 270.312 234, 277.817 238.510, 282.712 243.279 C 288.682 249.095, 291.206 248.990, 294.999 242.770 C 297.725 238.299, 297.519 235.427, 293.894 227.388 C 292.186 223.600, 289.880 218.489, 288.769 216.032 C 285.967 209.827, 285.247 204, 287.284 204 C 289.491 204, 293.972 210.086, 299.434 220.500 C 305.174 231.444, 306.087 232.501, 311.351 234.294 C 316.430 236.023, 322.683 234.337, 331.012 228.992 C 340.935 222.625, 341.893 217.681, 337.090 197.641 C 335.489 190.963, 332.732 179.200, 330.962 171.500 C 329.193 163.800, 326.501 152.100, 324.980 145.500 C 323.460 138.900, 321.660 130.800, 320.979 127.500 C 320.299 124.200, 318.959 118.125, 318 114 C 317.041 109.875, 315.660 102.675, 314.930 98 C 313.854 91.099, 312.802 88.183, 309.339 82.500 C 304.529 74.603, 304.829 73.531, 312.178 72.356 C 320.514 71.023, 320.800 68.243, 314.522 49.547 L 309.836 35.595 312.668 33.575 C 322.625 26.476, 332.735 14.407, 333.698 8.472 C 334.363 4.375, 334.936 4.470, 325.232 7.079 C 316.714 9.369, 297.176 10.041, 292.217 8.215 C 285.848 5.869, 266.840 2.981, 256 2.711 L 247.500 2.500 247.770 5.870 C 248.014 8.918, 247.823 9.189, 245.770 8.700 C 244.522 8.402, 239 7.044, 233.500 5.681 C 222.219 2.886, 212.774 1.559, 211.712 2.621 M 262.500 9.918 C 264.700 10.372, 269.875 11.525, 274 12.481 C 298.040 18.053, 303.133 19, 309.068 19 L 315.006 19 311.253 22.316 C 309.189 24.140, 306.072 26.621, 304.326 27.829 C 298.743 31.697, 298.963 34.176, 307.088 58.825 C 308.448 62.951, 308.610 62.806, 300.118 65.036 C 287.596 68.323, 287.175 68.959, 292.526 76.519 C 301.056 88.569, 304 93.459, 304 95.579 C 304 97.909, 304.669 101.536, 308.135 118 C 309.235 123.225, 310.553 129.525, 311.064 132 C 313.907 145.770, 324.810 191.935, 328.921 207.616 C 331.184 216.247, 328.050 221.384, 318.825 224.164 C 313.701 225.708, 313.004 225.212, 308.598 216.877 C 298.475 197.731, 291.034 191.524, 283.170 195.665 C 274.566 200.196, 275.273 209.903, 285.646 229.646 C 289.453 236.892, 289.060 238.019, 284.141 233.965 C 282.163 232.334, 279.859 231.036, 279.022 231.079 C 277.728 231.146, 277.718 231.244, 278.959 231.732 C 279.761 232.048, 282.167 233.925, 284.305 235.903 C 288.772 240.036, 289.971 240.311, 291.030 237.447 C 291.749 235.505, 291.338 234.265, 286.411 223.500 C 283.848 217.901, 281 208.698, 281 206.018 C 281 202.986, 284.684 199, 287.486 199 C 290.569 199, 297.232 207.093, 301.949 216.566 C 307.899 228.515, 310.230 231.006, 315.437 230.978 C 321.916 230.943, 332.828 224.881, 335.693 219.725 C 337.566 216.354, 337.269 212.515, 334.126 199.448 C 332.545 192.877, 329.859 181.425, 328.157 174 C 325.234 161.252, 323.782 154.782, 318.896 132.756 C 317.766 127.665, 316.153 120.575, 315.311 117 C 314.469 113.425, 313.377 108.025, 312.885 105 C 310.819 92.293, 310.254 90.144, 307.999 86.415 C 305.926 82.988, 303.384 79.460, 299.985 75.292 C 299.443 74.628, 299 73.689, 299 73.206 C 299 72.329, 309.646 69, 312.450 69 C 316.233 69, 315.953 65.563, 310.941 50.523 C 308.224 42.368, 306 35.324, 306 34.870 C 306 34.416, 309.825 30.373, 314.500 25.885 C 326.707 14.165, 326.335 13.489, 307.894 13.880 C 300.927 14.027, 293.488 13.696, 291.363 13.143 C 283.715 11.152, 276.343 10.050, 267.500 9.576 C 261.333 9.245, 259.759 9.352, 262.500 9.918 M 200 33.160 C 175.425 37.171, 147.457 47.241, 132.706 57.390 C 130.619 58.825, 128.708 60, 128.461 60 C 128.213 60, 124.302 62.813, 119.769 66.250 C 86.188 91.719, 63.438 126.634, 54.120 167 C 52.324 174.781, 50.408 189.511, 51.649 186 C 51.941 185.175, 52.814 183.082, 53.590 181.349 C 54.365 179.616, 55 177.828, 55 177.377 C 55 176.423, 58.832 163.448, 59.985 160.500 C 69.401 136.411, 74.687 126.643, 88.273 108.226 C 113.159 74.489, 156.175 46.445, 196 37.994 C 199.025 37.352, 203.075 36.446, 205 35.981 C 206.925 35.516, 210.748 34.812, 213.496 34.417 C 217.346 33.864, 218.035 33.520, 216.496 32.920 C 213.931 31.919, 206.988 32.020, 200 33.160 M 264.946 90.802 C 271.347 95.245, 271.631 95.644, 269.825 97.655 C 268.031 99.651, 267.822 105.005, 269.563 104.337 C 270.148 104.113, 271.455 104.845, 272.468 105.965 C 275.635 109.464, 271.639 108.486, 268.032 104.878 C 264.517 101.363, 263.160 101.711, 264.585 105.762 C 265.733 109.026, 271.717 112.510, 277.901 113.513 L 282.302 114.227 281.615 108.363 C 280.144 95.821, 278.555 93.233, 270.715 90.604 C 264.250 88.437, 261.665 88.525, 264.946 90.802 M 240 126.804 C 240 127.246, 241.506 129.067, 243.346 130.851 C 248.820 136.156, 251.401 142.385, 251.838 151.340 C 252.077 156.251, 251.805 159.595, 251.110 160.290 C 249.554 161.846, 249.729 163, 251.522 163 C 252.359 163, 254.384 160.887, 256.022 158.304 C 261.159 150.204, 259.844 139.995, 252.652 132.153 C 248.976 128.144, 240 124.349, 240 126.804 M 187.081 191.568 C 187.036 194.356, 187.694 198.975, 188.543 201.831 C 189.937 206.528, 191.541 209.280, 198.754 219.353 C 201.688 223.450, 206.106 229.701, 208 232.433 C 208.825 233.623, 214.225 240.797, 220 248.375 C 242.842 278.349, 248.494 287.772, 252.020 301.765 C 254.802 312.804, 254.620 324.994, 251.491 337.278 C 248.611 348.583, 248.302 351.775, 250.455 348 C 256.345 337.669, 259 326.870, 259 313.248 C 259 291.680, 252.935 278.688, 228.500 247.913 C 226.850 245.835, 224.165 242.417, 222.534 240.317 C 220.902 238.218, 218.202 234.862, 216.534 232.861 C 214.865 230.859, 211.250 226.429, 208.500 223.015 C 205.750 219.601, 201.597 214.596, 199.270 211.893 C 194.153 205.948, 192.520 202.898, 189.489 193.623 L 187.162 186.500 187.081 191.568 M 119.500 379.147 C 101.721 380.107, 97.395 380.905, 103.500 382.101 C 108.539 383.088, 215.742 383.082, 222.500 382.094 L 227.500 381.363 224 380.622 C 213.379 378.373, 150.341 377.483, 119.500 379.147 M 70 453.696 C 70 457.335, 64.891 461, 59.818 461 C 53.744 461, 52.988 462.176, 52.307 472.692 C 51.808 480.395, 51.964 481.725, 53.520 483.017 C 56.756 485.703, 243.947 484.810, 259.500 482.034 L 263.500 481.321 259 480.725 C 244.163 478.761, 208.930 477.958, 137.750 477.961 L 58 477.964 57.917 475.232 C 57.871 473.729, 57.708 471.375, 57.555 470 C 57.142 466.278, 57.939 465, 60.673 465 C 63.452 465, 66.558 463.585, 69.500 460.978 C 71.336 459.352, 76.597 459.107, 133.500 457.999 C 232.638 456.069, 226.748 454.415, 118 453.645 C 94.075 453.476, 73.487 452.984, 72.250 452.552 C 70.423 451.914, 70 452.129, 70 453.696 M 215.813 455.683 C 216.534 455.972, 217.397 455.936, 217.729 455.604 C 218.061 455.272, 217.471 455.036, 216.417 455.079 C 215.252 455.127, 215.015 455.364, 215.813 455.683" stroke="none" fill="white" fill-rule="evenodd"/>
</svg>