<svg class="chess-piece chess-piece--bn-left"   width="482" height="462" viewBox="0 0 482 462" version="1.1" id="bN-left" xmlns="http://www.w3.org/2000/svg" data-piece="bN-left" data-piece-name="black-knight-left" data-color="black" data-type="unknown" data-original="knight-black-left">
	<path d="M 321.318 21.750 C 319.726 23.262, 313.941 30.903, 308.462 38.729 C 302.983 46.554, 297.874 53.202, 297.109 53.501 C 294.465 54.536, 292.457 52.847, 282 40.796 C 264.976 21.177, 263.745 20, 260.244 20 C 256.621 20, 253.491 23.350, 252.491 28.297 C 251.215 34.610, 245.902 55.588, 244.444 60.073 C 243.051 64.358, 242.301 65.041, 232.543 70.927 L 222.128 77.209 208.814 73.226 C 193.303 68.586, 195.239 68.182, 180.997 79.029 C 163.382 92.445, 156.981 98.721, 157.257 102.301 C 157.488 105.278, 157.264 105.487, 152.795 106.468 C 147.411 107.649, 144.852 109.875, 129.877 126.405 C 120.488 136.770, 120.011 137.511, 120.249 141.368 C 120.459 144.754, 120.169 145.479, 118.500 145.752 C 117.400 145.931, 115.510 146.288, 114.299 146.546 C 111.920 147.051, 103.255 157.739, 93.102 172.692 C 87.147 181.463, 86.891 182.088, 87.524 186.314 L 88.188 190.742 84.731 191.391 C 79.789 192.318, 76.242 197.550, 64.027 221.930 C 58.832 232.298, 58.811 232.380, 60.401 235.714 C 62.742 240.623, 62.430 241.555, 58 242.882 C 53.201 244.320, 52.193 246.062, 45.555 264.390 C 35.516 292.109, 35.470 292.401, 40.241 297.676 C 42.681 300.374, 42.063 301.436, 36.662 303.825 L 32.407 305.708 29.657 317.604 C 28.145 324.147, 26.096 334.235, 25.105 340.022 C 24.113 345.809, 22.681 351.538, 21.923 352.752 C 20.648 354.793, 20.863 355.285, 24.772 359.268 C 29.980 364.574, 29.974 364.871, 24.574 368.146 L 20.210 370.792 19.404 382.646 C 18.961 389.166, 18.576 400.800, 18.549 408.500 L 18.500 422.500 199.500 422.500 L 380.500 422.500 380.220 420.014 C 379.831 416.558, 373.437 403.885, 369.222 398.215 C 362.964 389.797, 350.800 378.098, 336.500 366.745 C 303.939 340.893, 299.040 336.749, 289.947 327.362 C 266.297 302.949, 258.255 284.246, 255.605 247.500 C 254.857 237.134, 255.548 236.013, 260.621 239.361 C 270.330 245.771, 286.531 247.619, 294.710 243.249 C 300.931 239.926, 302.150 240.293, 307.504 247.108 C 312.846 253.908, 321.845 261.391, 337.485 272.036 C 348.436 279.491, 354.258 285.202, 364.146 298.192 C 371.235 307.504, 374.256 310.488, 379.210 313.068 C 386.505 316.867, 398.364 314.914, 403.211 309.116 C 404.830 307.179, 405.119 307.152, 408.603 308.607 C 413.301 310.570, 415.786 309.926, 424.581 304.465 C 442.934 293.070, 449.974 277.465, 445.611 257.853 C 443.434 248.070, 441.034 243.184, 423.822 213.500 C 404.666 180.462, 394.649 162.470, 389.354 151.590 C 385.005 142.656, 385.004 142.651, 385.252 132.513 C 385.499 122.404, 385.487 122.345, 381.306 113.936 C 376.005 103.273, 367.453 92.651, 352.238 77.831 L 340.258 66.162 338.157 54.831 C 336.401 45.361, 333 24.090, 333 22.578 C 333 22.339, 332.293 21.436, 331.429 20.571 C 328.989 18.132, 324.584 18.646, 321.318 21.750 M 199.791 95.752 C 196.101 98.913, 189.545 104.737, 185.221 108.693 L 177.361 115.886 170.626 111.784 C 164.435 108.014, 163.760 107.812, 162.281 109.291 C 160.275 111.296, 161.317 112.754, 167.596 116.720 C 170.016 118.249, 171.997 120.116, 171.998 120.869 C 171.999 121.621, 168.495 126.121, 164.211 130.869 C 159.927 135.616, 154.024 142.425, 151.094 146 C 144.028 154.620, 144.188 154.567, 136.556 150.804 C 130.515 147.825, 129.873 147.698, 128.382 149.190 C 126.182 151.390, 127.139 152.537, 134.111 156.056 C 138.039 158.039, 139.836 159.483, 139.373 160.284 C 138.986 160.953, 136.099 165.100, 132.957 169.500 C 129.816 173.900, 124.262 182.105, 120.615 187.732 L 113.985 197.965 109.042 196.017 C 106.323 194.945, 102.537 193.415, 100.627 192.617 C 97.795 191.434, 96.834 191.401, 95.415 192.439 C 92.567 194.521, 94.364 196.435, 101.969 199.418 C 105.920 200.969, 109.367 202.792, 109.627 203.471 C 109.888 204.150, 107.185 210.059, 103.621 216.603 C 100.057 223.146, 95.246 232.662, 92.928 237.750 C 90.611 242.837, 88.217 247.002, 87.608 247.005 C 86.998 247.007, 83.254 245.828, 79.286 244.384 C 71.627 241.597, 69 241.725, 69 244.886 C 69 246.299, 70.305 247.314, 73.750 248.579 C 83.236 252.064, 85 252.918, 85 254.028 C 85 254.649, 82.782 261.085, 80.071 268.329 C 77.360 275.573, 73.583 286.659, 71.678 292.964 C 69.772 299.270, 67.734 304.589, 67.148 304.784 C 66.562 304.979, 62.812 304.214, 58.814 303.082 C 52.560 301.313, 51.349 301.222, 50.136 302.435 C 47.705 304.866, 49.569 306.588, 56.651 308.454 C 66.533 311.057, 66.468 310.935, 63.964 322.077 C 62.799 327.260, 60.610 338.925, 59.099 348 L 56.352 364.500 46.952 364.500 C 38.821 364.500, 37.504 364.735, 37.204 366.239 C 36.748 368.529, 39.826 369.729, 48.170 370.514 C 51.851 370.861, 55.032 371.670, 55.268 372.321 C 55.503 372.969, 55.233 381.547, 54.667 391.382 C 53.696 408.282, 53.741 409.338, 55.488 410.615 C 58.790 413.029, 59.998 410.631, 60.016 401.628 C 60.167 323.947, 91.946 233.184, 142.341 166.500 C 159.816 143.377, 187.090 113.682, 203.110 100.338 C 208.102 96.179, 209.996 93.965, 209.789 92.527 C 209.283 89.011, 206.677 89.851, 199.791 95.752 M 303.571 106.571 C 301.476 108.667, 301.584 109.535, 304.250 112.019 C 306.230 113.863, 306.500 115.100, 306.500 122.308 C 306.500 131.925, 309.468 138.061, 316.854 143.710 C 330.287 153.984, 348.563 148.333, 346.502 134.542 C 344.316 119.918, 333.005 110.009, 314.443 106.458 C 305.080 104.666, 305.481 104.662, 303.571 106.571 M 313.960 116.564 C 307.388 127.199, 317.987 142.940, 331.750 142.984 C 340.677 143.012, 343.112 138.262, 338.919 129 C 336.085 122.739, 332.490 119.223, 325.500 115.875 C 317.794 112.185, 316.624 112.254, 313.960 116.564 M 238.353 171.195 C 235.870 175.080, 238.707 198.855, 243.190 211.737 C 245.808 219.260, 245.240 220.174, 240.277 216.426 C 229.189 208.051, 218.988 195.775, 217.504 189.020 C 216.191 183.041, 210.243 182.429, 211.421 188.394 C 213.273 197.774, 223.877 211.214, 237.538 221.496 C 241.642 224.585, 245 227.501, 245 227.976 C 245 229.850, 230.545 232.176, 221 231.837 C 211.871 231.513, 211.488 231.585, 211.189 233.686 C 210.497 238.549, 226.835 239.470, 241.500 235.396 C 246.450 234.021, 251.963 232.645, 253.750 232.338 C 257.704 231.660, 257.840 233.095, 252.593 220.121 C 246.831 205.876, 244.204 195.003, 243.265 181.512 C 242.635 172.458, 242.208 170.467, 240.843 170.206 C 239.932 170.032, 238.811 170.477, 238.353 171.195 M 376.667 198.667 C 373.890 201.444, 382.496 212.904, 394.757 222.755 C 408.440 233.749, 410.500 236.966, 410.500 247.333 C 410.500 251.825, 410.114 256.738, 409.642 258.250 C 408.569 261.686, 409.892 261.820, 416.417 258.934 C 420.112 257.299, 422.189 257.005, 426.347 257.524 C 430.380 258.028, 431.892 257.835, 432.837 256.696 C 434.731 254.415, 431.693 252.028, 426.679 251.858 C 416.634 251.518, 417.576 252.136, 416.830 245.403 C 415.584 234.156, 411.784 228.605, 398.055 217.978 C 391.287 212.739, 385.855 206.783, 381.886 200.250 C 380.562 198.070, 378.031 197.303, 376.667 198.667" stroke="none" fill="black" fill-rule="evenodd"/>
</svg>