<svg class="chess-piece chess-piece--wb"   width="518" height="484" viewBox="0 0 518 484" version="1.1" id="wB" xmlns="http://www.w3.org/2000/svg" data-piece="wB" data-piece-name="white-bishop" data-color="white" data-type="bishop" data-original="bishop-black">
	<path d="M 231.056 27.252 C 221.762 32.167, 217.321 44.653, 221.397 54.408 C 223.596 59.670, 223.649 59.555, 217.750 62.267 C 187.993 75.946, 150.848 135.576, 137.957 190.364 C 125.988 241.230, 136.741 292.663, 170.113 344.172 C 175.219 352.052, 180.801 360.100, 182.519 362.055 L 185.642 365.609 183.849 378.055 C 182.863 384.900, 181.559 396.575, 180.951 404 C 179.435 422.534, 179.590 422.001, 175.731 421.996 C 173.954 421.993, 166.650 419.928, 159.500 417.406 C 152.350 414.884, 141.325 411.234, 135 409.295 C 106.470 400.549, 83.174 406.538, 51.750 430.696 C 44.426 436.327, 44.501 437.257, 52.089 434.895 C 61.567 431.945, 68.688 432.408, 83.876 436.963 C 93.498 439.848, 100.273 441.202, 108.795 441.943 C 120.427 442.955, 127.858 444.966, 147 452.284 C 168.835 460.632, 194.862 462.479, 219.768 457.448 C 224.021 456.589, 236.194 452.987, 246.820 449.443 C 271.551 441.195, 271.079 441.195, 295.466 449.416 C 339.175 464.149, 363.946 464.179, 403 449.546 C 417.714 444.033, 425.582 442.035, 432.662 442.015 C 439.596 441.995, 450.698 439.790, 462.604 436.069 C 474.561 432.331, 480.330 432.211, 490 435.500 C 498.647 438.441, 498.320 438.394, 497.285 436.544 C 494.844 432.183, 469.646 415.803, 457.975 410.990 C 437.295 402.462, 424.090 403.161, 391.424 414.513 C 371.617 421.396, 357.164 424.693, 354.066 423.035 C 352.737 422.324, 352.129 420.294, 351.628 414.903 C 351.260 410.952, 349.382 397.880, 347.454 385.854 L 343.949 363.990 351.853 353.745 C 396.887 295.372, 410.062 239.524, 392.487 181.500 C 376.969 130.265, 345.279 80.141, 318.475 64.432 C 313.226 61.356, 313.332 61.833, 316.504 55.581 C 323.730 41.338, 313.577 25, 297.500 25 C 282.940 25, 273.312 38.242, 277.471 52.549 C 278.385 55.694, 278.766 58.585, 278.317 58.975 C 276.532 60.524, 264.223 63.094, 261.667 62.453 C 257.893 61.505, 257.744 60.833, 260.116 55.471 C 268.452 36.626, 249.017 17.754, 231.056 27.252 M 289.933 35.266 C 277.903 43.373, 287.037 63.302, 300.882 59.153 C 307.379 57.207, 310.500 52.892, 310.500 45.857 C 310.500 40.193, 310.285 39.649, 306.765 36.423 C 302.043 32.096, 295.323 31.634, 289.933 35.266 M 290 65.630 C 279.894 67.078, 273.929 68.305, 273.481 69.030 C 272.866 70.026, 272.612 69.808, 285.550 79.388 C 307.669 95.765, 329.778 123.604, 345.298 154.622 C 369.318 202.629, 378.017 265.003, 366.877 309.355 C 365.792 313.676, 365.075 317.724, 365.284 318.352 C 365.823 319.969, 370.616 312.068, 375.578 301.383 C 397.257 254.694, 397.777 212.907, 377.322 161.500 C 356.777 109.870, 327.161 72.402, 302.175 66.428 C 296.509 65.073, 294.712 64.956, 290 65.630 M 243.221 151.277 C 235.922 158.641, 236.028 158.181, 240.500 163.132 L 244 167.006 244 185.380 C 244 200.039, 243.713 203.994, 242.579 204.934 C 241.560 205.780, 235.211 206.027, 220.132 205.807 L 199.107 205.500 195.541 202.041 L 191.975 198.583 185.487 205.013 C 181.919 208.549, 179 211.918, 179 212.500 C 179 213.082, 181.851 216.383, 185.336 219.837 L 191.671 226.116 195.930 222.558 L 200.189 219 221.488 219 C 239.986 219, 242.866 219.208, 243.393 220.582 C 243.727 221.452, 244 232.025, 244 244.079 L 244 265.994 240.500 269.868 C 235.996 274.854, 235.901 274.468, 243.500 282 L 250 288.442 256.500 282 C 264.016 274.550, 263.934 274.827, 259.982 270.327 L 256.964 266.889 257.232 243.195 L 257.500 219.500 279.045 219.231 L 300.590 218.962 303.482 221.981 C 305.073 223.641, 307.092 225, 307.968 225 C 310.019 225, 321 213.939, 321 211.873 C 321 210.374, 309.907 199, 308.445 199 C 308.059 199, 305.999 200.575, 303.868 202.500 L 299.994 206 280.079 206 C 269.125 206, 259.452 205.727, 258.582 205.393 C 257.215 204.868, 257 202.157, 257 185.428 L 257 166.070 260 162.653 C 261.650 160.774, 263 158.576, 263 157.770 C 263 156.253, 251.805 145, 250.295 145 C 249.826 145, 246.643 147.825, 243.221 151.277 M 244 321.523 C 220.800 324.739, 200.327 332.110, 191.689 340.356 C 187.528 344.328, 190.332 345.363, 195.227 341.663 C 212.308 328.750, 247.239 321.645, 281.745 324.064 C 305.151 325.705, 319.628 330.336, 335.789 341.351 C 340.347 344.458, 344.483 347, 344.980 347 C 350.387 347, 337.719 337.234, 323.500 330.442 C 303.827 321.043, 272.673 317.548, 244 321.523 M 246 345.108 C 230.622 346.849, 200.362 354.837, 196.208 358.253 C 192.711 361.128, 197.800 360.638, 208.737 357.046 C 231.213 349.666, 238.455 348.564, 264.500 348.564 C 290.607 348.564, 297.606 349.635, 320.574 357.141 C 327.463 359.393, 333.387 360.946, 333.740 360.594 C 335.119 359.214, 331.058 357.010, 321 353.677 C 295.885 345.355, 269.975 342.395, 246 345.108 M 239 391.435 C 219.192 393.928, 192.917 399.683, 190.554 402.046 C 187.897 404.703, 192.153 404.686, 201.691 402 C 241.004 390.932, 288.005 390.751, 328.445 401.511 C 338.346 404.145, 339.664 404.173, 338.726 401.727 C 338.123 400.156, 316.496 394.732, 301.500 392.391 C 287.873 390.264, 252.593 389.724, 239 391.435 M 242.500 409.062 C 224.826 411.079, 195.123 418.815, 194.262 421.625 C 193.604 423.770, 214.381 430.081, 234 433.695 C 250.294 436.697, 284.864 436.157, 301.500 432.640 C 316.053 429.564, 336.200 423.109, 336.745 421.349 C 337.508 418.881, 312.257 411.980, 293.440 409.513 C 281.225 407.912, 254.638 407.676, 242.500 409.062" stroke="none" fill="white" fill-rule="evenodd"/>
</svg>