<svg class="chess-piece chess-piece--bp"   width="434" height="434" viewBox="0 0 434 434" version="1.1" id="bP" xmlns="http://www.w3.org/2000/svg" data-piece="bP" data-piece-name="black-pawn" data-color="black" data-type="pawn" data-original="pawn-black">
	<path d="M 223 21.488 C 208.705 24.688, 191.360 35.600, 182.071 47.237 C 157.683 77.791, 160.549 119.932, 188.914 147.828 C 197.346 156.121, 197.296 156.388, 187.147 157.422 C 171.027 159.065, 152.384 164.411, 146.841 168.980 C 134.544 179.116, 150.148 188.941, 185.766 193.491 C 192.770 194.385, 200.300 195.429, 202.500 195.810 L 206.500 196.503 207.157 211.502 C 208.365 239.083, 206.619 275.967, 202.955 300.311 C 199.186 325.344, 190.946 352.346, 186.580 353.972 C 185.436 354.399, 179.325 356.178, 173 357.926 C 135.877 368.187, 109.563 389.354, 109.514 408.993 L 109.500 414.500 239.124 414.754 C 387.142 415.043, 372.305 416.126, 369.618 405.236 C 365.984 390.508, 353.688 378.132, 332.084 367.460 C 323.998 363.465, 305.747 357.064, 298 355.507 C 292.080 354.317, 290.492 352.601, 287.196 343.835 C 281.005 327.368, 276.522 306.135, 273.822 280.500 C 272.171 264.820, 272.016 198.590, 273.627 196.976 C 274.246 196.355, 280.256 195.206, 286.982 194.422 C 316.101 191.031, 333.854 185.042, 336.420 177.746 C 339.417 169.224, 325.324 162.286, 296.452 158.069 C 289.550 157.061, 283.681 156.014, 283.409 155.742 C 283.137 155.470, 286.888 151.255, 291.744 146.374 C 306.928 131.114, 313.472 115.340, 313.472 94 C 313.472 61.472, 293.139 33.291, 262.500 23.354 C 252.423 20.086, 233.299 19.183, 223 21.488" stroke="none" fill="white" fill-rule="evenodd"/>
</svg>