<svg class="chess-piece chess-piece--bp"   width="298" height="492" viewBox="0 0 298 492" version="1.1" id="bP" xmlns="http://www.w3.org/2000/svg" data-piece="bP" data-piece-name="black-pawn" data-color="black" data-type="pawn" data-original="bP">
	<path d="M 134 1 C 134 1.550, 132.507 2, 130.682 2 C 116.913 2, 103.290 10.095, 96.656 22.220 C 85.659 42.316, 91.429 58.800, 113.380 70 C 122.754 74.783, 125.558 77.927, 124.437 82.397 C 123.549 85.935, 121.210 87.691, 103 98.493 C 83.885 109.833, 79.755 113.367, 76.994 120.747 C 72.231 133.476, 73.331 134.288, 96.067 134.825 C 112.626 135.216, 113.989 135.389, 114.554 137.170 C 115.411 139.871, 113.170 178.452, 111.455 190.525 C 106.293 226.857, 96.348 255.626, 77.934 287.500 C 64.926 310.016, 57 328.927, 57 337.449 C 57 344.885, 60.983 352.626, 69.773 362.272 C 77.846 371.132, 75.077 373.601, 46.500 383.025 C 16.511 392.914, 12.993 394.886, 8.175 404.500 C 1.478 417.864, 6.231 429.407, 21.497 436.850 C 29.539 440.771, 30.020 441.625, 24.534 442.243 C -0.254 445.037, -6.476 478.102, 15.712 489.122 L 20.500 491.500 140.500 491.798 C 262.491 492.101, 274.594 491.815, 285.241 488.376 C 300.158 483.559, 302.806 459.694, 289.671 448.450 C 285.668 445.024, 277.974 442, 273.259 442 C 269.656 442, 271.398 440.351, 278.744 436.808 C 291.484 430.664, 295.880 424.141, 294.602 413.275 C 293.110 400.579, 286.412 394.162, 268.280 388.056 C 245.812 380.489, 230.700 374.996, 229.409 373.925 C 228.720 373.352, 227.691 371.552, 227.123 369.924 C 226.151 367.136, 226.465 366.550, 232.541 359.804 C 248.405 342.190, 246.217 328.102, 220.846 284.500 C 206.305 259.512, 198.378 238.403, 191.366 206 C 188.440 192.478, 186.027 166.908, 186.012 149.250 L 186 135 198.250 134.947 C 210.441 134.894, 221.367 134.264, 223.750 133.476 C 225.328 132.954, 225.380 126.413, 223.841 121.899 C 221.019 113.620, 218.042 110.984, 197.616 98.678 C 177.555 86.592, 176 85.266, 176 80.240 C 176 76.474, 178.620 74.119, 188.500 69.007 C 203.214 61.394, 208.435 53.930, 208.476 40.448 C 208.498 33.144, 208.156 31.704, 204.797 24.948 C 197.801 10.874, 189.811 4.959, 174.911 2.821 C 170.835 2.236, 167.072 1.362, 166.550 0.879 C 165.198 -0.372, 134 -0.255, 134 1" stroke="none" fill="black" fill-rule="evenodd"/>
</svg>