<svg class="chess-piece chess-piece--wq"   width="388" height="636" viewBox="0 0 388 636" version="1.1" id="wQ" xmlns="http://www.w3.org/2000/svg" data-piece="wQ" data-piece-name="white-queen" data-color="white" data-type="queen" data-original="bQ">
	<path d="M 175.455 4.455 C 174.105 5.805, 173 7.852, 173 9.004 C 173 14.094, 170.285 16.633, 158.442 22.616 C 151.639 26.054, 145.599 29.858, 143.915 31.766 C 142.250 33.653, 136.916 37.029, 131.278 39.766 C 117.169 46.613, 116.801 48.178, 124.996 66.500 C 138.905 97.597, 151.012 133.455, 150.995 143.500 C 150.993 144.600, 149.645 147.525, 148 150 C 142.651 158.046, 143.644 161.695, 153.354 169.674 C 156.407 172.183, 156.824 176.942, 154.551 183.316 C 152.705 188.493, 150.952 190.216, 144.235 193.459 C 135.206 197.818, 133 200.380, 133 206.513 C 133 211.636, 135.648 216, 138.755 216 C 142.275 216, 140.219 218.085, 135.285 219.519 C 125.420 222.387, 120.465 227.752, 121.703 234.225 C 123 241.012, 128.572 243.319, 146.314 244.416 C 157.665 245.118, 157.305 244.788, 156.633 253.870 C 156.322 258.067, 155.815 268.475, 155.506 277 C 153.890 321.531, 150.429 362.350, 146.983 377.500 C 143.728 391.816, 136.635 407.713, 122.442 432.500 C 98.833 473.734, 97.335 486.335, 113.825 505.007 C 118.475 510.272, 119.068 511.415, 118.496 514.017 C 117.532 518.408, 115.858 519.214, 89.364 528.045 C 61.938 537.187, 57.961 539.425, 53.608 548.160 C 50.560 554.275, 50.019 564.202, 52.474 568.949 C 54.578 573.019, 61.263 578.434, 67.545 581.159 C 73.439 583.715, 75.375 586, 71.647 586 C 63.617 586, 52.634 593.486, 48.905 601.500 C 43.775 612.525, 49.230 627.191, 60.625 633.011 L 65.500 635.500 195.500 635.500 L 325.500 635.500 331 632.272 C 351.953 619.974, 345.704 590.464, 321.311 586.522 C 316.093 585.678, 316.496 584.131, 322.588 581.620 C 328.883 579.026, 336.340 572.910, 338.335 568.706 C 342.323 560.302, 339.425 548.584, 331.508 541.096 C 326.653 536.505, 325.485 535.995, 301.535 528.012 C 268.693 517.065, 266.785 515.148, 277.523 503.891 C 293.478 487.164, 291.725 473.765, 268.181 432.500 C 243.743 389.666, 240.434 376.974, 237.025 313 C 234.959 274.234, 234 254.168, 234 249.720 L 234 245.187 243.750 244.533 C 263.653 243.197, 267.769 241.225, 268.747 232.554 C 269.450 226.317, 265.148 222.074, 255.463 219.453 L 248.796 217.648 252.440 215.779 C 256.468 213.712, 258 210.776, 258 205.122 C 258 200.480, 254.836 197.200, 247 193.716 C 238.224 189.813, 234.986 185.078, 235.015 176.185 C 235.033 170.656, 235.500 169.791, 239.602 167.691 C 246.630 164.091, 247.819 156.384, 242.433 149.324 C 238.994 144.815, 239.051 142.316, 242.920 127.731 C 247.329 111.113, 251.769 99.131, 265.235 67.500 C 274.224 46.387, 274.374 47.145, 259.779 39.963 C 253.620 36.933, 248.297 33.544, 246.500 31.510 C 244.634 29.397, 239.415 26.138, 232.688 22.886 C 221.180 17.321, 218 14.492, 218 9.820 C 218 8.063, 217.027 5.936, 215.545 4.455 C 213.125 2.035, 212.843 2, 195.500 2 C 178.157 2, 177.875 2.035, 175.455 4.455" stroke="none" fill="white" fill-rule="evenodd"/>
</svg>