<svg class="chess-piece chess-piece--wr"   width="388" height="492" viewBox="0 0 388 492" version="1.1" id="wR" xmlns="http://www.w3.org/2000/svg" data-piece="wR" data-piece-name="white-rook" data-color="white" data-type="rook" data-original="bR">
	<path d="M 130.607 1.582 C 130.273 2.452, 130 10.079, 130 18.532 C 130 31.551, 129.756 34.037, 128.407 34.792 C 127.067 35.542, 126.869 37.422, 127.157 46.673 C 127.475 56.872, 127.699 57.924, 130.264 61.284 L 133.029 64.904 131.018 68.202 C 125.654 77, 131.514 86.046, 143.550 87.550 C 149.175 88.252, 150.498 89.390, 146.989 90.503 C 144.222 91.382, 142.023 96.031, 142.519 99.954 C 143.042 104.086, 144.402 105.710, 148 106.500 C 152.871 107.570, 152.961 108.139, 151.445 128.357 C 147.936 175.159, 145.459 186.178, 123.429 253 C 108.994 296.782, 106.635 305.809, 106.573 317.500 C 106.518 327.895, 109.454 334.839, 117.851 344.179 C 121.140 347.837, 122.278 349.914, 122.215 352.141 C 122.035 358.472, 120.971 359.090, 90.256 370.676 C 74.406 376.656, 70.209 378.497, 66.219 381.219 C 52.963 390.261, 50.161 413.713, 61.153 423.615 C 63.247 425.501, 70.050 429.744, 75.401 432.500 C 78.812 434.257, 78.479 436, 74.733 436 C 48.712 436, 41.748 477.702, 65.773 489.647 C 71.123 492.307, 319.682 493.106, 328.672 490.493 C 339.834 487.248, 346.156 478.173, 346.779 464.500 C 347.446 449.891, 339.516 439.224, 325.688 436.130 C 322.560 435.429, 320.012 434.551, 320.027 434.178 C 320.043 433.805, 322.753 432.183, 326.050 430.573 C 339.321 424.093, 345.212 414.135, 343.128 401.699 C 340.635 386.817, 334.694 380.861, 315 373.502 C 278.900 360.011, 278.786 359.958, 276.690 355.738 C 274.575 351.480, 275.022 350.175, 281.105 342.838 C 292.928 328.579, 294.205 318.466, 287.273 294 C 283.357 280.179, 279.415 267.480, 275.323 255.500 C 268.782 236.354, 260.601 211.490, 258.213 203.500 C 252.555 184.572, 247.651 151.110, 245.564 117.188 L 245.053 108.876 248.297 107.520 C 252.952 105.575, 255.400 102.459, 255.400 98.478 C 255.400 94.880, 251.870 90, 249.267 90 C 246.062 90, 249.354 88.174, 253.738 87.520 C 266.825 85.567, 272.027 78.118, 266.935 68.618 C 264.896 64.812, 264.894 64.741, 266.797 62.633 C 269.837 59.266, 271 54.381, 271 44.973 C 271 38.435, 270.624 35.933, 269.500 35 C 268.285 33.992, 268 30.819, 268 18.306 C 268 6.250, 267.686 2.543, 266.571 1.429 C 265.408 0.265, 260.403 0, 239.590 0 L 214.038 0 213.511 2.250 C 213.222 3.488, 212.876 11.250, 212.742 19.500 L 212.500 34.500 201 34.790 C 183.508 35.232, 185 36.745, 185 18.563 C 185 10.093, 184.727 2.452, 184.393 1.582 C 183.473 -0.815, 131.527 -0.815, 130.607 1.582" stroke="none" fill="white" fill-rule="evenodd"/>
</svg>