<svg class="chess-piece chess-piece--wn-left"   width="342" height="536" viewBox="0 0 342 536" version="1.1" id="bN-left" xmlns="http://www.w3.org/2000/svg" data-piece="bN-left" data-piece-name="white-knight-left" data-color="white" data-type="unknown" data-original="bN-left">
	<path d="M 142.405 23.994 C 139.157 26.191, 134.025 30.022, 131 32.508 C 125.226 37.252, 104.828 51.009, 90.976 59.500 C 63.221 76.514, 51.507 85.398, 46.147 93.500 C 43.553 97.420, 43.500 97.831, 43.500 114 C 43.500 134.922, 44.875 206.294, 45.532 219.500 C 45.806 225, 46.469 251.325, 47.004 278 C 48.446 349.810, 48.448 349.834, 53.117 356.651 C 58.102 363.929, 62.581 365.350, 83 366.127 C 112.698 367.258, 112.423 367.053, 111.661 387.500 C 111.394 394.650, 110.566 402.191, 109.821 404.258 C 108.379 408.258, 97.113 419, 94.361 419 C 92.058 419, 63.113 427.397, 48.789 432.220 C 29.280 438.789, 22.778 445.718, 22.719 460 C 22.677 470.092, 27.314 475.882, 40.171 481.790 C 45.765 484.360, 47.098 486, 43.594 486 C 35.107 486, 23.590 494.270, 20.383 502.666 C 15.195 516.251, 23.811 531.775, 38.299 534.949 C 45.069 536.432, 275.231 536.392, 289.211 534.906 C 306.047 533.116, 311.285 529.295, 314.670 516.333 C 318.334 502.302, 305.861 486, 291.462 486 C 287.379 486, 288.668 484.210, 294.750 481.435 C 302.116 478.075, 308.289 473.018, 310.366 468.642 C 315.141 458.579, 309.384 443.771, 298 436.833 C 294.263 434.556, 270.851 427.127, 246.280 420.421 C 236.283 417.693, 235.917 417.488, 229.414 410.985 C 222.363 403.934, 218.987 398.634, 214.667 387.829 C 211.138 379.003, 211.192 374.936, 214.893 370.794 L 217.785 367.557 237.143 366.735 C 258.148 365.843, 262.925 364.811, 267.228 360.232 C 274.585 352.403, 275.597 345.084, 271.138 331.938 C 267.643 321.630, 251.062 277.324, 242.533 255.500 C 239.094 246.700, 234.116 233.875, 231.471 227 C 228.826 220.125, 222.440 203.779, 217.278 190.675 C 206.986 164.543, 206.653 162.239, 212.611 158.336 C 215.612 156.369, 234.013 154.411, 257.500 153.558 C 281.184 152.698, 283.817 152.300, 286.754 149.135 C 289.326 146.363, 289.407 140.584, 287.010 131 C 286.529 129.075, 285.393 124.512, 284.486 120.859 C 282.538 113.015, 280.119 110.337, 271.500 106.478 C 235.961 90.569, 198.145 69.867, 188.650 61.124 C 185.719 58.424, 175.211 42.779, 166.404 28 C 161.831 20.325, 161.346 20, 154.500 20 C 148.932 20, 147.717 20.401, 142.405 23.994" stroke="none" fill="white" fill-rule="evenodd"/>
</svg>