<svg class="chess-piece chess-piece--bn"   width="426" height="428" viewBox="0 0 426 428" version="1.1" id="bN" xmlns="http://www.w3.org/2000/svg" data-piece="bN" data-piece-name="black-knight" data-color="black" data-type="knight" data-original="bN">
	<path d="M 196.331 58.503 C 191.675 60.460, 180.502 71.476, 175.425 79.113 L 170.846 86 166.011 86 C 161.226 86, 161.129 85.935, 156.680 79.750 C 147.242 66.629, 140.190 61.010, 133.154 61.004 C 127.487 60.999, 123.306 63.542, 121.881 67.859 C 120.344 72.516, 121.311 89.433, 123.387 94.218 C 126.494 101.380, 124.375 107.112, 113.669 120.500 C 100.610 136.830, 62.455 206.864, 53.469 231 C 46.992 248.396, 51.727 273.619, 63.335 283.555 C 68.969 288.378, 74.689 290, 86.057 290 L 95.757 290 97.016 293.040 C 98.878 297.534, 101.642 299, 108.255 299 C 118.340 299, 122.696 296.245, 132.762 283.500 C 142.022 271.776, 148.934 265.275, 162.057 255.946 C 178.149 244.506, 189.879 235.070, 202.916 223.080 L 213.332 213.500 212.691 221 C 211.367 236.500, 205.191 253.458, 195.864 267.206 C 193.516 270.668, 183.462 281.825, 173.523 292 C 153.882 312.107, 150.022 316.862, 144.655 327.556 C 139.545 337.736, 136.945 347.854, 136.295 360.086 C 135.756 370.233, 135.829 370.763, 138.055 372.836 L 140.377 375 251.734 375 L 363.091 375 365.545 372.545 L 368 370.091 367.995 344.795 C 367.966 183.772, 324.670 105.495, 226 88.071 L 216.500 86.393 214.908 78.447 C 211.636 62.110, 204.914 54.894, 196.331 58.503 M 231.571 102.404 C 229.182 110.621, 229.048 110.419, 239.250 113.958 C 271.915 125.289, 292.596 144.268, 309.877 178.774 C 328.916 216.793, 335.443 255.297, 335.383 329.250 L 335.347 373 344.551 373 C 351.892 373, 354.033 372.665, 355.128 371.346 C 356.990 369.102, 357.038 300.161, 355.189 282 C 344.159 173.621, 307.429 113.152, 244 98.947 C 232.735 96.424, 233.360 96.250, 231.571 102.404 M 137.432 128 C 127.742 134.210, 120.062 153.586, 124.566 160.460 C 131.772 171.458, 150.805 155.982, 152.704 137.579 C 153.705 127.885, 145.571 122.784, 137.432 128 M 81 229.752 C 75.715 232.391, 73.235 238.086, 75.088 243.326 C 79.660 256.257, 97 253.049, 97 239.272 C 97 234.551, 94.777 231.223, 90.401 229.394 C 86.119 227.605, 85.229 227.639, 81 229.752" stroke="none" fill="black" fill-rule="evenodd"/>
</svg>