<svg class="chess-piece chess-piece--wq"   width="426" height="428" viewBox="0 0 426 428" version="1.1" id="wQ" xmlns="http://www.w3.org/2000/svg" data-piece="wQ" data-piece-name="white-queen" data-color="white" data-type="queen" data-original="bQ">
	<path d="M 206.316 49.326 C 195.465 53.327, 189 62.539, 189 74 C 189 84.614, 193.329 91.516, 204.366 98.500 C 205.768 99.387, 204.769 105.186, 195.486 150 C 189.733 177.775, 184.637 201.400, 184.161 202.500 C 183.340 204.397, 183.256 204.372, 182.532 202 C 182.112 200.625, 173.946 179.003, 164.384 153.952 C 154.823 128.900, 147 107.886, 147 107.253 C 147 106.620, 148.502 104.956, 150.339 103.555 C 159.513 96.558, 162.378 81.731, 156.582 71.246 C 143.700 47.942, 108 56.947, 108 83.500 C 108 93.768, 114.935 103.900, 124.449 107.534 L 129.252 109.368 128.594 152.934 C 127.930 196.882, 127.377 209, 126.033 209 C 125.103 209, 76.882 135.129, 76.227 132.702 C 75.960 131.713, 76.647 129.913, 77.754 128.702 C 86.733 118.876, 85.555 102.155, 75.226 92.823 C 55.670 75.156, 25.211 95.043, 33.518 120.055 C 36.550 129.182, 47.684 138, 56.178 138 C 57.180 138, 58 138.125, 58 138.277 C 58 138.429, 62.671 161.942, 68.379 190.527 C 74.088 219.112, 79.072 245.101, 79.455 248.281 C 80.378 255.936, 84.082 262.532, 92.070 270.745 C 95.684 274.460, 101.463 281.881, 104.913 287.235 L 111.186 296.969 109.994 304.038 C 109.338 307.926, 108.145 311.645, 107.342 312.303 C 103.758 315.243, 97.013 325.468, 95.502 330.252 C 94.591 333.138, 92.668 337.745, 91.230 340.489 C 84.136 354.024, 91.742 366.522, 110.665 372.422 C 178.248 393.492, 246.625 393.991, 313.449 373.900 C 330.484 368.779, 334.946 364.815, 336.414 353.500 C 336.972 349.207, 336.635 347.604, 334.032 342.160 C 332.170 338.267, 330.996 334.215, 330.990 331.660 C 330.979 326.729, 327.414 318.777, 323.205 314.296 C 320.858 311.796, 319.934 309.539, 319.005 304.030 L 317.814 296.969 324.060 287.235 C 327.495 281.881, 333.616 274.060, 337.663 269.855 C 345.673 261.531, 348.420 256.464, 349.513 248 C 349.904 244.975, 354.898 219.112, 360.612 190.527 C 366.325 161.942, 371 138.429, 371 138.277 C 371 138.125, 371.883 138, 372.962 138 C 381.384 138, 392.326 129.362, 395.425 120.266 C 403.944 95.264, 373.370 75.119, 353.774 92.823 C 343.445 102.155, 342.267 118.876, 351.246 128.702 C 352.353 129.913, 353.040 131.713, 352.773 132.702 C 352.118 135.129, 303.897 209, 302.967 209 C 301.623 209, 301.070 196.882, 300.406 152.934 L 299.748 109.368 304.551 107.534 C 314.065 103.900, 321 93.768, 321 83.500 C 321 56.947, 285.300 47.942, 272.418 71.246 C 266.622 81.731, 269.487 96.558, 278.661 103.555 C 280.498 104.956, 282 106.620, 282 107.253 C 282 108.129, 250.351 192.129, 246.113 202.500 L 245.295 204.500 244.662 202.500 C 243.795 199.767, 224.225 105.180, 223.822 101.779 C 223.550 99.477, 224.264 98.554, 228.463 95.779 C 249.786 81.692, 239.952 48.152, 214.500 48.152 C 211.750 48.152, 208.067 48.680, 206.316 49.326 M 179.500 249.524 C 147.918 252.900, 102.680 263.992, 99.989 269.020 C 98.131 272.492, 98.816 276.833, 101.498 278.591 C 104.559 280.596, 105.900 280.383, 123 275.166 C 153.695 265.803, 178.257 262.477, 216 262.571 C 252.854 262.663, 276.692 266.053, 307.500 275.582 C 322.897 280.344, 324.466 280.580, 327.502 278.591 C 330.184 276.833, 330.869 272.492, 329.011 269.020 C 326.883 265.045, 290.415 255.212, 262.500 251.087 C 240.154 247.785, 202.421 247.074, 179.500 249.524 M 115 292 C 112.643 294.357, 112.449 298.687, 114.575 301.500 C 116.956 304.651, 312.044 304.651, 314.425 301.500 C 316.551 298.687, 316.357 294.357, 314 292 C 312.027 290.027, 310.667 290, 214.500 290 C 118.333 290, 116.973 290.027, 115 292 M 105.455 320.455 C 100.212 325.697, 102.914 330.254, 113.189 333.500 C 177.646 353.862, 250.058 354.043, 314.172 334.001 C 324.908 330.646, 327.602 327.810, 325.155 322.440 C 322.990 317.689, 320.511 317.534, 307.447 321.326 C 244.952 339.469, 184.129 339.492, 121.797 321.397 C 107.835 317.344, 108.525 317.384, 105.455 320.455 M 96 349 C 93.458 351.542, 93.428 356.173, 95.939 358.445 C 99.689 361.839, 127.110 369.938, 151.500 374.855 C 192.058 383.033, 244.073 382.467, 284.970 373.404 C 306.508 368.631, 329.906 361.300, 333.245 358.278 C 337 354.880, 333.966 347, 328.903 347 C 327.750 347, 321.113 348.778, 314.153 350.951 C 246.794 371.987, 182.206 371.987, 114.847 350.951 C 100.349 346.424, 98.742 346.258, 96 349" stroke="none" fill="white" fill-rule="evenodd"/>
</svg>