<svg class="chess-piece chess-piece--wn-right"   width="360" height="488" viewBox="0 0 360 488" version="1.1" id="bN-right" xmlns="http://www.w3.org/2000/svg" data-piece="bN-right" data-piece-name="white-knight-right" data-color="white" data-type="unknown" data-original="bN-right">
	<path d="M 98 3.052 C 88.782 4.030, 78.970 5.601, 73 7.054 C 60.575 10.079, 45.761 9.905, 33.701 6.593 C 26.262 4.550, 26.647 4.437, 27.302 8.472 C 28.265 14.407, 38.375 26.476, 48.332 33.575 L 51.164 35.595 46.478 49.547 C 40.200 68.243, 40.486 71.023, 48.822 72.356 C 56.171 73.531, 56.471 74.603, 51.661 82.500 C 48.198 88.183, 47.146 91.099, 46.070 98 C 45.340 102.675, 43.959 109.875, 43 114 C 42.041 118.125, 40.701 124.200, 40.021 127.500 C 39.340 130.800, 37.540 138.900, 36.020 145.500 C 34.499 152.100, 31.807 163.800, 30.038 171.500 C 28.268 179.200, 25.511 190.963, 23.910 197.641 C 19.107 217.681, 20.065 222.625, 29.988 228.992 C 38.317 234.337, 44.570 236.023, 49.649 234.294 C 54.913 232.501, 55.826 231.444, 61.566 220.500 C 67.028 210.086, 71.509 204, 73.716 204 C 75.753 204, 75.033 209.827, 72.231 216.032 C 71.120 218.489, 68.814 223.600, 67.106 227.388 C 63.481 235.427, 63.275 238.299, 66.001 242.770 C 69.794 248.990, 72.318 249.095, 78.288 243.279 C 83.183 238.510, 90.688 234, 93.728 234 C 94.471 234, 96.855 233.095, 99.024 231.988 C 103.538 229.685, 104.767 226.638, 103.104 221.868 C 100.395 214.097, 101.950 207.975, 109.723 195.803 C 112.075 192.120, 114 188.838, 114 188.511 C 114 186.834, 122.658 176.533, 126.308 173.867 C 145.311 159.986, 162.054 163.910, 165.788 183.119 C 166.944 189.064, 165.811 196.792, 163.021 202 C 161.128 205.534, 146.426 224.940, 130.500 244.927 C 108.611 272.396, 100.804 287.025, 97.906 306 C 96.210 317.101, 98.233 333.751, 102.462 343.500 C 106.818 353.539, 106.694 355.265, 101.467 357.449 C 96.047 359.714, 95.433 367.318, 100.567 368.606 C 101.905 368.942, 103 369.765, 103 370.434 C 103 372.279, 98.618 376.008, 95.457 376.853 C 88.880 378.612, 89.828 384.105, 96.876 385.070 C 106.446 386.380, 104.875 391.231, 94.632 392 C 90.968 392.275, 87.945 392.725, 87.914 393 C 87.774 394.274, 90.405 399.933, 93.083 404.118 C 96.763 409.867, 96.174 411.582, 90.072 412.891 C 66.032 418.047, 57.186 433.342, 69.607 448.277 C 73.077 452.449, 70.603 457, 64.866 457 C 60.126 457, 59 459.984, 59 472.548 C 59 482.861, 59.165 483.806, 61.314 485.826 L 63.629 488 185.592 488 C 294.360 488, 307.795 487.832, 309.777 486.443 C 311.876 484.973, 312 484.178, 312 472.143 C 312 457.438, 311.782 457, 304.455 457 C 300.741 457, 298.850 456.492, 297.655 455.171 C 295.204 452.463, 295.532 451.580, 300.848 446.546 C 309.628 438.234, 309.966 430.760, 301.919 422.921 C 297.135 418.262, 286.244 413, 281.384 413 C 280.243 413, 278.490 412.093, 277.487 410.985 C 275.719 409.032, 275.728 408.857, 277.802 405.235 C 284.721 393.151, 284.627 392, 276.723 392 C 273.706 392, 270.543 391.387, 269.454 390.590 C 266.524 388.448, 269.831 385.205, 275.358 384.802 C 279.328 384.513, 279.500 384.361, 279.500 381.157 C 279.500 378.155, 279.094 377.674, 275.513 376.443 C 269.189 374.269, 266.748 368.896, 271.760 368.180 C 273.486 367.934, 274 367.202, 274 364.989 C 274 360.738, 275.320 360.573, 282.386 363.945 C 289.862 367.513, 291.559 367.693, 292.965 365.066 C 294.470 362.253, 294.232 352.491, 292.560 348.490 C 290.681 343.993, 291.307 343.688, 301.912 343.921 C 315.106 344.211, 316 343.638, 316 334.891 C 316 327.279, 314.711 321.521, 311.835 316.281 L 310.069 313.061 313.284 311.599 C 315.053 310.795, 319.533 309.122, 323.240 307.882 C 329.454 305.803, 330.028 305.368, 330.602 302.307 C 331.828 295.775, 329.105 285.629, 324.420 279.263 C 322.620 276.817, 321.953 277.275, 335.750 271.470 C 338.219 270.431, 339 269.484, 339 267.532 C 339 263.295, 334.204 250.849, 330.482 245.427 C 328.567 242.637, 327 240.086, 327 239.758 C 327 239.431, 329.834 238.220, 333.298 237.067 C 340.537 234.658, 344 232.511, 344 230.432 C 344 226.322, 333.799 209.904, 330.445 208.617 C 326.980 207.288, 329.338 205.752, 337 204.348 C 341.751 203.478, 342.430 201.830, 340.501 195.851 C 338.510 189.681, 334.994 183.169, 330.660 177.622 C 327.179 173.168, 327.846 172.025, 335.215 169.818 C 341.411 167.961, 342.313 166.239, 339.741 161.174 C 337.428 156.620, 329.112 147.384, 325.035 144.840 L 322.570 143.302 328.246 137.352 C 333.898 131.426, 333.915 131.390, 332.400 128.451 C 329.093 122.037, 321.012 116.001, 313.750 114.522 C 310.067 113.772, 310.158 113.460, 316.500 105.089 C 323.518 95.826, 323.596 93.843, 317.075 90.538 C 311.127 87.524, 304.154 85.838, 297.750 85.865 C 291.847 85.890, 291.835 85.364, 297.540 76.557 C 302.761 68.497, 302.751 68.278, 297.001 65.078 C 293.412 63.081, 290.837 62.576, 282.324 62.197 C 270.494 61.671, 271.071 62.429, 274.049 51.317 C 275.869 44.527, 275.931 43.502, 274.602 42.173 C 272.578 40.149, 254.889 39.393, 245.114 40.912 C 241.051 41.544, 237.510 41.843, 237.245 41.578 C 236.979 41.313, 237.995 37.715, 239.502 33.584 C 241.009 29.452, 241.976 25.381, 241.652 24.536 C 240.793 22.298, 230.592 22.537, 218.615 25.077 C 213.228 26.219, 208.587 26.920, 208.302 26.636 C 208.018 26.351, 208.376 23.813, 209.098 20.995 C 210.182 16.764, 210.182 15.731, 209.097 15.060 C 207.268 13.930, 198.962 14.788, 189.613 17.073 C 178.427 19.806, 178.976 20.058, 179.680 12.523 C 180.409 4.713, 179.637 4.116, 171.164 5.938 C 164.400 7.391, 153.992 10.861, 152.263 12.238 C 150.326 13.781, 147.480 12.331, 148.956 10.553 C 149.605 9.771, 149.993 7.639, 149.818 5.815 L 149.500 2.500 143.500 2.817 C 140.200 2.992, 133 4.265, 127.500 5.647 C 122 7.029, 116.478 8.402, 115.230 8.700 C 113.177 9.189, 112.986 8.918, 113.230 5.870 C 113.494 2.577, 113.408 2.497, 109.500 2.378 C 107.300 2.312, 102.125 2.615, 98 3.052 M 86.500 10.059 C 83.200 10.491, 78.025 11.400, 75 12.079 C 71.975 12.758, 63.112 13.410, 55.305 13.529 C 34.357 13.846, 34.196 14.072, 46.500 25.885 C 51.175 30.373, 55 34.416, 55 34.870 C 55 35.324, 52.776 42.368, 50.059 50.523 C 45.047 65.563, 44.767 69, 48.550 69 C 51.354 69, 62 72.329, 62 73.206 C 62 73.689, 61.557 74.628, 61.015 75.292 C 57.616 79.460, 55.074 82.988, 53.001 86.415 C 50.746 90.144, 50.181 92.293, 48.115 105 C 47.623 108.025, 46.531 113.425, 45.689 117 C 44.847 120.575, 43.234 127.665, 42.104 132.756 C 37.218 154.782, 35.766 161.252, 32.843 174 C 31.141 181.425, 28.455 192.877, 26.874 199.448 C 23.731 212.515, 23.434 216.354, 25.307 219.725 C 28.172 224.881, 39.084 230.943, 45.563 230.978 C 50.770 231.006, 53.101 228.515, 59.051 216.566 C 63.849 206.932, 70.442 199, 73.654 199 C 76.385 199, 80 203.078, 80 206.158 C 80 208.592, 77.031 218.361, 75.033 222.500 C 70.812 231.245, 69.363 235.750, 70.117 237.787 C 71.226 240.786, 71.866 240.611, 76.500 236.042 C 78.700 233.873, 81.175 232.041, 82 231.970 C 83.135 231.873, 83.178 231.713, 82.176 231.313 C 81.448 231.022, 79.139 232.161, 77.045 233.844 C 71.917 237.965, 71.512 236.960, 75.354 229.646 C 85.727 209.903, 86.434 200.196, 77.830 195.665 C 69.966 191.524, 62.525 197.731, 52.402 216.877 C 47.996 225.212, 47.299 225.708, 42.175 224.164 C 32.950 221.384, 29.816 216.247, 32.079 207.616 C 36.190 191.935, 47.093 145.770, 49.936 132 C 50.447 129.525, 51.765 123.225, 52.865 118 C 56.331 101.536, 57 97.909, 57 95.579 C 57 93.459, 59.944 88.569, 68.474 76.519 C 73.825 68.959, 73.404 68.323, 60.882 65.036 C 52.390 62.806, 52.552 62.951, 53.912 58.825 C 62.037 34.176, 62.257 31.697, 56.674 27.829 C 54.928 26.621, 51.811 24.140, 49.747 22.316 L 45.994 19 51.747 18.999 C 56.838 18.998, 65.077 17.658, 76 15.054 C 86.018 12.666, 94.931 10.663, 98.500 9.997 L 102.500 9.250 97.500 9.262 C 94.750 9.268, 89.800 9.627, 86.500 10.059 M 144.504 32.920 C 142.965 33.520, 143.654 33.864, 147.504 34.417 C 150.252 34.812, 154.075 35.516, 156 35.981 C 157.925 36.446, 161.975 37.352, 165 37.994 C 216.188 48.856, 264.584 86.649, 290.090 135.678 C 294.005 143.204, 296.234 148.269, 301.015 160.500 C 302.168 163.448, 306 176.423, 306 177.377 C 306 177.828, 306.635 179.616, 307.410 181.349 C 308.186 183.082, 309.059 185.175, 309.351 186 C 310.592 189.511, 308.676 174.781, 306.880 167 C 297.562 126.634, 274.812 91.719, 241.231 66.250 C 236.698 62.813, 232.787 60, 232.539 60 C 232.292 60, 230.381 58.825, 228.294 57.390 C 207.843 43.319, 156.371 28.288, 144.504 32.920 M 90 90.651 C 82.455 93.258, 80.841 95.952, 79.385 108.363 L 78.698 114.227 83.099 113.513 C 89.283 112.510, 95.267 109.026, 96.415 105.762 C 97.840 101.711, 96.483 101.363, 92.968 104.878 C 89.361 108.486, 85.365 109.464, 88.532 105.965 C 89.545 104.845, 90.852 104.113, 91.437 104.337 C 93.178 105.005, 92.969 99.651, 91.175 97.655 C 89.369 95.644, 89.653 95.245, 96.054 90.802 C 99.355 88.511, 96.405 88.437, 90 90.651 M 114 127.949 C 102.693 133.958, 98.496 148.082, 104.978 158.304 C 106.616 160.887, 108.341 163, 108.811 163 C 110.440 163, 110.978 161.678, 109.885 160.361 C 109.216 159.555, 108.935 156.002, 109.166 151.269 C 109.599 142.389, 112.197 136.140, 117.654 130.851 C 122.927 125.740, 121.014 124.221, 114 127.949 M 172.058 191.750 C 170.232 199.109, 166.555 206.431, 162.304 211.175 C 160.172 213.554, 157.095 217.203, 155.464 219.285 C 153.834 221.366, 150.925 225.004, 149 227.369 C 124.034 258.039, 114.555 270.996, 108.924 282.151 C 98.937 301.935, 99.599 328.799, 110.545 348 C 112.698 351.775, 112.389 348.583, 109.509 337.278 C 106.380 324.994, 106.198 312.804, 108.980 301.765 C 112.506 287.773, 118.154 278.356, 141 248.374 C 146.775 240.795, 152.278 233.448, 153.229 232.047 C 154.180 230.646, 157.237 226.350, 160.022 222.500 C 172.117 205.779, 172.957 204.047, 173.722 194.250 C 174.376 185.886, 173.748 184.943, 172.058 191.750 M 153.560 379.095 C 146.443 379.510, 139.018 380.190, 137.060 380.606 L 133.500 381.363 138.500 382.094 C 145.258 383.082, 252.461 383.088, 257.500 382.101 C 261.138 381.388, 261.274 381.257, 259 380.645 C 251.081 378.515, 181.161 377.487, 153.560 379.095 M 287.095 452.920 C 286.323 453.409, 261.573 453.909, 232.095 454.031 C 202.618 454.153, 171.750 454.544, 163.500 454.900 L 148.500 455.547 161 456.267 C 167.875 456.663, 199.600 457.492, 231.500 458.109 C 284.474 459.134, 289.673 459.383, 291.500 460.990 C 294.457 463.592, 297.557 465, 300.327 465 C 303.061 465, 303.858 466.278, 303.445 470 C 303.292 471.375, 303.129 473.729, 303.083 475.232 L 303 477.964 223.250 477.961 C 152.070 477.958, 116.837 478.761, 102 480.725 L 97.500 481.321 101.500 482.034 C 117.053 484.810, 304.244 485.703, 307.480 483.017 C 309.036 481.725, 309.192 480.395, 308.693 472.692 C 308.009 462.133, 307.270 461, 301.065 461 C 296.243 461, 292.246 458.210, 290.678 453.750 C 289.992 451.799, 289.168 451.608, 287.095 452.920 M 143.813 455.683 C 144.534 455.972, 145.397 455.936, 145.729 455.604 C 146.061 455.272, 145.471 455.036, 144.417 455.079 C 143.252 455.127, 143.015 455.364, 143.813 455.683" stroke="none" fill="white" fill-rule="evenodd"/>
</svg>