<svg class="chess-piece chess-piece--wp"   width="272" height="404" viewBox="0 0 272 404" version="1.1" id="wP" xmlns="http://www.w3.org/2000/svg" data-piece="wP" data-piece-name="white-pawn" data-color="white" data-type="pawn" data-original="bP">
	<path d="M 119.500 16.250 C 96.504 24.199, 82.535 39.554, 78.065 61.799 C 73.481 84.607, 85.954 110.133, 107.245 121.521 C 112.892 124.542, 113.925 126.321, 111.553 128.941 C 109.854 130.819, 108.544 131, 96.661 131 C 80.703 131, 76.371 132.537, 73.060 139.376 C 67.367 151.137, 75.318 161.945, 89.693 161.984 C 99.401 162.009, 99 160.357, 99 200.328 C 99 242.050, 98.183 246.360, 87.794 259.473 C 79.348 270.132, 62.843 279, 51.451 279 C 46.454 279, 48.721 287.356, 54.250 289.317 C 57.905 290.613, 54.985 294.758, 50 295.349 C 41.618 296.342, 39.797 302.726, 47.489 304.154 C 49.855 304.593, 50.762 307.902, 48.848 309.115 C 48.107 309.585, 45.453 309.976, 42.950 309.985 C 35.397 310.010, 33.164 314.917, 39.500 317.564 C 45.131 319.917, 43.714 323.388, 34.218 330.508 C 24.729 337.622, 22.500 341.035, 22.500 348.450 C 22.500 353.749, 22.924 355.132, 25.709 358.919 C 29.514 364.092, 28.929 366.416, 23.570 367.421 C 17.395 368.579, 16 371.634, 16 383.998 C 16 394.257, 16.116 394.843, 18.636 397.364 L 21.273 400 134.081 400 L 246.888 400 249.574 397.690 C 252.191 395.439, 252.261 395.087, 252.330 383.784 C 252.410 370.617, 252.077 369.841, 245.545 368.013 C 239.193 366.234, 238.893 363.888, 244.149 357.115 C 245.490 355.388, 246 353.040, 246 348.597 C 246 341.032, 243.752 337.317, 235.348 330.996 C 225.327 323.459, 223.527 319.758, 228.959 317.864 C 235.564 315.562, 233.519 310, 226.069 310 C 220.223 310, 216.938 307.985, 218.910 305.608 C 219.644 304.724, 221 304, 221.922 304 C 222.845 304, 224.140 303.460, 224.800 302.800 C 227.960 299.640, 224.198 295, 218.477 295 C 213.644 295, 210.829 290.707, 214.750 289.317 C 220.279 287.356, 222.546 279, 217.549 279 C 205.701 279, 187.998 269.388, 180.215 258.731 C 170.480 245.400, 170.024 242.815, 170.011 200.905 C 169.998 159.870, 169.497 162, 179.171 162 C 193.305 162, 201.846 150.239, 195.534 139.468 C 191.712 132.946, 187.995 131.622, 171.796 131.014 C 164.259 130.731, 157.659 130.050, 157.130 129.500 C 154.460 126.726, 155.525 124.762, 161.393 121.638 C 168.412 117.901, 179.449 107.382, 183.321 100.741 C 202.507 67.828, 185.292 26.129, 148.384 16.117 C 143.320 14.743, 123.597 14.834, 119.500 16.250 M 115.542 22.156 C 93.300 29.672, 77.246 55.051, 80.959 76.827 C 83.390 91.081, 90.075 103.037, 99.513 110.009 C 104.228 113.493, 108.889 116, 110.650 116 C 110.937 116, 107.870 112.709, 103.835 108.688 C 97.152 102.025, 93.828 96.942, 90.147 87.755 C 88.406 83.410, 87.716 70.094, 88.871 63.133 C 92.351 42.149, 111.350 25.215, 134.500 22.463 C 138.971 21.932, 139.990 21.545, 138.500 20.945 C 134.626 19.387, 121.723 20.067, 115.542 22.156 M 181.591 79.629 C 179.882 85.049, 177.135 90.591, 172.486 98 C 171.277 99.925, 166.770 104.984, 162.470 109.242 C 158.169 113.500, 154.895 117.229, 155.194 117.527 C 156.861 119.194, 167.627 113.368, 173.468 107.639 C 180.763 100.483, 183.876 94.385, 185.321 84.425 C 186.956 73.160, 184.589 70.117, 181.591 79.629 M 82 135.387 C 75.299 137.830, 72.237 145.691, 75.517 152.033 C 77.715 156.284, 81.932 158.091, 89.265 157.927 C 96.591 157.763, 99.985 158.894, 102.763 162.425 C 105.384 165.758, 106.389 165.695, 105.534 162.250 C 104.081 156.396, 99.118 152.930, 90.731 151.913 C 84.197 151.121, 82 149.758, 82 146.500 C 82 142.703, 84.311 141.884, 97.193 141.115 C 108.784 140.423, 113.464 139.252, 115.235 136.600 C 116.597 134.560, 116.013 133.923, 113.844 135.083 C 111.897 136.125, 94.158 135.720, 87.500 134.482 C 86.400 134.278, 83.925 134.685, 82 135.387 M 104.590 194.222 C 103.192 203.178, 102 217.799, 102 225.978 C 102 234.455, 100.960 241.660, 99.039 246.500 C 94.959 256.777, 90.891 263.080, 83.667 270.318 C 79.358 274.635, 76.049 278.383, 76.314 278.647 C 77.466 279.800, 87.601 273.239, 92.987 267.853 C 105.520 255.320, 109.230 244.898, 109.130 222.500 C 109.037 201.367, 106.216 183.800, 104.590 194.222 M 51.750 314.183 C 48.962 316.422, 48 317.942, 48 320.111 C 48 324.494, 44.485 328.993, 37.149 334 C 25.745 341.785, 23.464 347.956, 28.982 356.100 C 34.114 363.674, 32.579 368.897, 24.571 371.108 C 19.937 372.387, 19 374.736, 19 385.065 C 19 391.790, 19.320 393.320, 21.098 395.098 L 23.196 397.196 94.848 396.638 C 164.079 396.099, 210.381 394.953, 211.587 393.746 C 213.776 391.557, 164.678 389.950, 93.826 389.892 C 35.507 389.844, 27.079 389.649, 26.576 388.337 C 26.259 387.512, 26 384.854, 26 382.432 C 26 378.413, 26.285 377.906, 29.250 376.642 C 35.207 374.105, 37.500 370.591, 37.500 364 C 37.500 359.197, 37.070 357.703, 35.076 355.581 L 32.651 353 36.076 352.919 C 37.959 352.874, 40.850 352.712, 42.500 352.558 C 44.150 352.404, 63.950 351.981, 86.500 351.619 C 145.415 350.672, 168.864 349.883, 166.325 348.933 C 163.559 347.899, 108.224 346.114, 66.279 345.705 C 48.558 345.533, 33.744 345.077, 33.359 344.692 C 32.428 343.761, 36.482 339.492, 41.781 335.824 C 46.784 332.361, 51 326.187, 51 322.324 C 51 320.830, 52.192 317.888, 53.649 315.786 C 57.040 310.892, 56.460 310.402, 51.750 314.183" stroke="none" fill="white" fill-rule="evenodd"/>
</svg>