<svg class="chess-piece chess-piece--bn-right"   width="518" height="484" viewBox="0 0 518 484" version="1.1" id="bN-right" xmlns="http://www.w3.org/2000/svg" data-piece="bN-right" data-piece-name="black-knight-right" data-color="black" data-type="unknown" data-original="knight-black-right">
	<path d="M 164.744 37.750 C 163.882 38.712, 162.873 41.750, 162.502 44.500 C 160.845 56.751, 156.876 79.196, 155.923 81.703 C 155.347 83.218, 147.796 91.667, 139.143 100.479 C 116.610 123.424, 108.809 137.045, 110.772 150.017 C 112.344 160.404, 109.146 167.249, 75.666 225.148 C 51.195 267.467, 49.674 271.029, 49.689 286 C 49.705 302.011, 58.620 315.286, 75.197 323.980 C 81.588 327.332, 82.002 327.414, 86.464 326.221 C 90.945 325.023, 91.216 325.079, 94.798 327.952 C 99.565 331.775, 107.823 333.669, 112.985 332.123 C 118.974 330.328, 124.478 325.622, 131.518 316.278 C 141.683 302.785, 148.491 296.253, 162.032 287 C 174.776 278.291, 187.761 266.906, 190.782 261.792 C 193.143 257.794, 195.698 257.487, 202.034 260.436 C 211.450 264.819, 225.916 263.206, 235.480 256.707 C 240.948 252.992, 241.357 253.731, 240.552 265.888 C 237.379 313.827, 223.844 334.356, 165.984 378.986 C 146.569 393.961, 132.580 407.237, 126.073 416.863 C 121.188 424.090, 116 434.966, 116 437.981 L 116 440.005 296.750 439.753 L 477.500 439.500 477.826 432.500 C 478.177 424.981, 476.223 390.744, 475.307 388.357 C 475.002 387.564, 473.009 386.025, 470.877 384.937 C 465.938 382.417, 466.007 381.391, 471.482 376.017 C 475.479 372.095, 475.807 371.444, 474.507 370.007 C 473.705 369.121, 471.894 362.120, 470.484 354.448 C 469.073 346.777, 466.991 336.527, 465.858 331.671 L 463.796 322.842 459.508 321.004 C 453.752 318.536, 453.534 317.862, 457.051 313.436 C 458.713 311.344, 459.839 309.024, 459.554 308.279 C 459.268 307.535, 458.291 304.355, 457.383 301.213 C 455.145 293.468, 444.026 263.800, 442.791 262.276 C 442.245 261.604, 440.233 260.759, 438.320 260.400 C 433.953 259.581, 433.248 257.812, 435.569 253.501 C 437.746 249.460, 437.331 248.363, 425.171 226 C 416.566 210.175, 415.956 209.402, 411.407 208.549 L 407.945 207.899 408.556 203.199 C 409.155 198.596, 409.009 198.274, 401.459 187.500 C 387.662 167.810, 384.722 164.542, 379.830 163.459 C 375.503 162.501, 375.500 162.497, 375.805 158.366 C 376.143 153.770, 374.400 151.505, 356.086 132.750 C 348.378 124.856, 347.179 124, 343.830 124 C 339.670 124, 338.444 122.735, 338.851 118.862 C 339.081 116.666, 337.745 115.005, 330.902 108.974 C 319.545 98.967, 303.099 87, 300.701 87 C 299.608 87, 293.320 88.668, 286.729 90.707 L 274.745 94.413 268.390 91.018 C 252.624 82.594, 252.236 81.975, 245.863 55.044 C 242.468 40.696, 240.384 37, 235.691 37 C 232.690 37, 231.422 38.223, 215.694 56.290 C 207.726 65.443, 202.181 71, 201.016 71 C 198.461 71, 197.424 69.827, 187.062 55.224 C 176.226 39.952, 176.148 39.855, 173.027 37.704 C 169.855 35.518, 166.726 35.535, 164.744 37.750 M 287.718 108.138 C 284.756 109.795, 285.771 111.494, 293.750 118.234 C 304.533 127.342, 326.652 150.187, 338.547 164.500 C 398.386 236.502, 432.176 322.080, 435.662 410.456 C 436.330 427.408, 437.012 429.977, 440.487 428.643 C 442.167 427.999, 442.432 416.441, 441.152 399.672 C 440.782 394.816, 440.783 390.351, 441.155 389.749 C 441.528 389.146, 445.582 388.169, 450.166 387.577 C 457.668 386.608, 458.532 386.275, 458.820 384.246 C 459.262 381.132, 457.426 380.698, 448.855 381.890 C 439.690 383.165, 439.611 383.090, 438.089 371.500 C 437.438 366.550, 435.521 355.750, 433.829 347.500 C 429.632 327.036, 429.159 329.201, 438.500 326.130 C 444.957 324.007, 446.500 323.114, 446.500 321.500 C 446.500 318.702, 443.636 318.546, 435.987 320.927 C 432.439 322.031, 429.217 322.612, 428.828 322.218 C 428.439 321.823, 425.623 313.809, 422.569 304.409 C 419.516 295.009, 415.664 284.034, 414.009 280.021 C 410.014 270.333, 409.884 270.680, 418.750 267.348 C 424.680 265.120, 426.571 263.945, 426.803 262.345 C 427.268 259.134, 424.865 258.934, 417.579 261.579 C 407.673 265.174, 407.808 265.234, 403.379 255.288 C 401.246 250.497, 396.462 241.001, 392.750 234.187 C 389.038 227.373, 386 221.433, 386 220.987 C 386 220.541, 389.156 218.939, 393.013 217.425 C 400.581 214.456, 402.551 212.878, 401.643 210.513 C 400.809 208.338, 398.416 208.663, 390.529 212.027 C 386.695 213.662, 383.221 215, 382.810 215 C 382.398 215, 378.623 209.713, 374.420 203.250 C 370.216 196.787, 364.577 188.520, 361.889 184.878 C 359.200 181.235, 357 177.754, 357 177.142 C 357 176.530, 359.700 174.666, 363 173 C 369.050 169.946, 370.185 168.228, 367.581 166.067 C 366.460 165.137, 364.889 165.532, 360.109 167.945 C 352.083 171.996, 352.168 172.019, 345.925 164.250 C 342.941 160.537, 336.788 153.364, 332.250 148.309 C 327.712 143.253, 324 138.655, 324 138.089 C 324 137.524, 326.505 135.459, 329.567 133.500 C 333.339 131.088, 335.029 129.388, 334.806 128.231 C 334.248 125.334, 331.277 125.707, 325.245 129.430 C 322.064 131.393, 319.113 133, 318.689 133 C 318.264 133, 313.297 128.606, 307.650 123.236 C 293.241 109.532, 289.836 106.953, 287.718 108.138 M 176.404 124.888 C 162.965 128.735, 155.255 135.356, 151.015 146.691 C 146.841 157.845, 151.163 165.097, 162.412 165.813 C 178.292 166.825, 190.840 154.550, 189.746 139.075 C 189.326 133.138, 189.519 132.242, 191.738 129.844 C 197.652 123.449, 190.032 120.986, 176.404 124.888 M 174.844 131.394 C 161.950 136, 151.959 149.449, 155.925 156.861 C 157.049 158.960, 163.657 161.374, 166.143 160.593 C 166.889 160.359, 168.729 159.898, 170.232 159.569 C 180.340 157.356, 187.216 141.940, 181.918 133.368 C 179.568 129.565, 179.789 129.627, 174.844 131.394 M 253.552 189.250 C 253.340 189.938, 252.921 195, 252.620 200.500 C 251.950 212.760, 249.210 223.817, 243.414 237.650 C 240.986 243.447, 239.221 248.549, 239.493 248.989 C 239.765 249.429, 241.678 250.015, 243.744 250.291 C 245.810 250.567, 250.875 251.763, 255 252.948 C 269.487 257.112, 290.093 254.664, 284.833 249.404 C 283.469 248.040, 282.453 247.972, 277.832 248.931 C 270.415 250.471, 251 247.690, 251 245.089 C 251 244.673, 253.572 242.570, 256.716 240.416 C 270.728 230.815, 285 212.591, 285 204.299 C 285 199.653, 280.076 201.630, 278.275 207 C 275.971 213.868, 269.461 222.395, 261.076 229.530 C 253.472 236, 250.155 237.629, 251.464 234.250 C 256.029 222.465, 260.235 197.020, 258.655 190.750 C 257.930 187.872, 254.305 186.806, 253.552 189.250 M 113.477 219.037 C 109.506 225.327, 104.195 230.761, 95.699 237.229 C 84.072 246.080, 79 254.570, 79 265.182 L 79 269 72.934 269 C 65.994 269, 63 270.216, 63 273.035 C 63 275.260, 63.198 275.306, 71.706 275.026 C 76.562 274.867, 78.789 275.315, 81.945 277.089 C 86.996 279.928, 87.530 279.379, 85.985 272.937 C 82.980 260.410, 86.648 251.617, 98.800 242.216 C 112.238 231.821, 122.566 218.966, 119.746 216.146 C 117.736 214.136, 116.092 214.895, 113.477 219.037" stroke="none" fill="black" fill-rule="evenodd"/>
</svg>