<svg class="chess-piece chess-piece--bk"   width="496" height="890" viewBox="0 0 496 890" version="1.1" id="bK" xmlns="http://www.w3.org/2000/svg" data-piece="bK" data-piece-name="black-king" data-color="black" data-type="king" data-original="bK">
	<path d="M 234.038 22.728 C 225.644 23.220, 225 23.853, 225 31.622 C 225 38.399, 225.881 39.341, 229.881 36.842 C 233.975 34.286, 235.118 36.301, 234.911 45.706 C 234.691 55.681, 233.612 60.558, 231.343 61.828 C 228.630 63.346, 218.722 59.711, 217.198 56.637 C 215.582 53.377, 213.454 52.824, 203.988 53.201 L 196.500 53.500 196.849 75.500 C 197.041 87.600, 197.405 97.838, 197.658 98.250 C 197.911 98.662, 200.529 99, 203.476 99 C 208.026 99, 210.420 98.171, 219.367 93.500 C 231.369 87.234, 231.727 87.151, 232.946 90.358 C 234.255 93.801, 235.260 106.538, 234.497 110.011 C 233.852 112.951, 233.736 113, 227.421 113 C 218.015 113, 217 114.313, 217 126.481 L 217 135.962 219.750 136.550 C 232.282 139.231, 228.380 140.487, 207.166 140.599 C 192.161 140.678, 186.735 141.102, 179.500 142.757 C 169.924 144.948, 148.004 152.074, 143.314 154.520 C 141.766 155.327, 140.040 155.990, 139.478 155.994 C 136.939 156.009, 131.001 162.217, 131.032 164.823 C 131.074 168.348, 132.373 169.863, 139.229 174.387 C 158.954 187.401, 176.264 216.800, 181.393 246 C 181.731 247.925, 182.209 250.534, 182.455 251.797 C 184.975 264.720, 184.128 278.059, 180.443 283.489 C 177.659 287.591, 177.800 290.802, 181.013 296.523 C 184.261 302.307, 183.790 311.030, 179.996 315.351 C 175.714 320.229, 174.832 327.128, 178.053 330.556 L 180.387 333.041 177.970 334.770 C 176.641 335.722, 172.791 337.625, 169.416 339 C 160.200 342.754, 158.088 345.168, 161.525 348.021 C 163.673 349.804, 161.287 352.298, 155.886 353.916 C 150.021 355.673, 143.538 362.006, 142.007 367.474 C 140.395 373.234, 141.450 382.635, 143.855 383.922 C 144.795 384.425, 158.252 385.165, 173.759 385.565 C 208.425 386.459, 205.536 384.805, 204.634 403.235 C 204.276 410.531, 203.751 421.675, 203.466 428 C 202.188 456.327, 200.053 487.412, 197.972 508 C 196.331 524.230, 196.112 526.264, 195.083 534.771 C 194.093 542.960, 193.890 544.358, 191.868 557 C 184.365 603.893, 165.935 654.253, 152.372 664.922 C 149.109 667.489, 137.132 669.392, 129.002 668.637 C 118.769 667.686, 115.526 670.571, 121.104 675.665 C 127.644 681.639, 128.973 683.555, 129.981 688.460 C 131.364 695.191, 129.091 708.072, 124.965 716.889 C 118.107 731.543, 94.004 749.313, 70.581 756.983 C 59.490 760.615, 56.576 764.684, 56.601 776.500 C 56.620 785.337, 57.816 789.541, 63.573 801.007 C 66.652 807.139, 67.373 809.707, 67.543 815.144 C 67.829 824.280, 67.407 823.998, 80.809 824.014 C 93.546 824.029, 97 824.559, 97 826.500 C 97 828.473, 94.181 828.809, 76.441 828.952 C 55.729 829.119, 54.114 829.695, 50.566 838.187 C 48.409 843.351, 49.206 843.644, 67.486 844.410 C 76.278 844.779, 84.378 845.261, 85.486 845.482 C 86.594 845.703, 94.025 846.178, 102 846.537 C 119.308 847.317, 126.065 848.149, 126.065 849.500 C 126.065 851.173, 117.874 851.775, 85 852.520 C 45.374 853.417, 48.549 851.961, 49.237 868.924 C 49.801 882.842, 51.038 886.785, 55.472 888.805 C 57.477 889.719, 105.036 890, 257.531 890 L 456.968 890 460.142 887.164 C 463.570 884.101, 464.779 879.234, 464.927 867.905 C 465.042 859.097, 464.080 858.607, 445.477 858 C 430.672 857.517, 427.591 856.952, 429.567 855.085 C 431.285 853.461, 444.736 850.338, 450.983 850.112 C 460.925 849.754, 462 849.028, 462 842.680 C 462 835.903, 460.222 834.083, 452.062 832.512 C 450.909 832.290, 442.210 831.835, 432.732 831.502 C 407.097 830.601, 396 829.086, 396 826.488 C 396 824.067, 397.732 823.850, 416.217 823.954 C 426.209 824.010, 436.998 823.760, 440.192 823.399 L 446 822.742 446 817.497 C 446 811.581, 447.174 807.777, 452.327 797 C 454.299 792.875, 456.192 788.150, 456.533 786.500 C 459.978 769.814, 456.591 762.161, 443.500 757.052 C 435.864 754.072, 428.924 751.158, 427 750.124 C 411.463 741.773, 405.571 737.545, 397.845 729.200 C 393.181 724.162, 386.647 713.665, 386.866 711.560 C 386.896 711.267, 386.327 709.334, 385.602 707.264 C 384.876 705.194, 384.192 699.593, 384.081 694.817 C 383.843 684.559, 385.180 681.174, 390.893 677.568 C 399.438 672.173, 396.251 667.602, 384.626 668.579 C 375.119 669.379, 364.437 667.583, 361.109 664.625 C 345.605 650.849, 326.291 593.557, 319.937 542.500 C 317.186 520.391, 315.465 504.353, 314.463 491.500 C 314.206 488.200, 313.751 482.350, 313.454 478.500 C 312.671 468.379, 311.107 441.359, 310.532 428 C 308.561 382.266, 307.608 386.002, 321.250 385.997 C 325.788 385.996, 338.635 385.699, 349.801 385.337 C 373.318 384.575, 372.308 385.086, 372.262 373.986 C 372.217 363.100, 367.354 356.568, 356.680 353.056 C 352.215 351.587, 351.233 349.802, 353.035 346.434 C 353.751 345.097, 354.111 343.777, 353.835 343.501 C 352.513 342.179, 343.032 341.849, 299.500 341.610 C 252.690 341.353, 245 340.916, 245 338.514 C 245 336.282, 250.461 336, 293.633 336 C 334.637 336, 335.979 335.940, 334.860 334.148 C 333.910 332.625, 334.107 331.893, 335.971 330.029 C 338.907 327.093, 338.208 319.908, 334.612 316.045 C 330.096 311.196, 329.058 302.613, 332.375 297.550 C 335.324 293.050, 336.470 287.183, 334.778 285.253 C 330.246 280.084, 328.730 268.825, 330.887 256.351 C 331.444 253.133, 332.104 249.150, 332.356 247.500 C 336.841 218.039, 355.154 186.977, 375.827 173.766 C 383.311 168.984, 385.015 165.878, 382.253 162.055 C 378.587 156.980, 358.215 148.452, 339 143.949 C 334.325 142.854, 329.375 141.653, 328 141.280 C 326.625 140.907, 317.175 140.579, 307 140.551 C 288.585 140.500, 283.903 139.595, 291.223 137.500 C 295.722 136.213, 298.167 134.140, 297.583 132.109 C 297.328 131.224, 297.007 127.350, 296.870 123.500 C 296.536 114.178, 295.474 113, 287.404 113 C 283.567 113, 280.827 112.529, 280.371 111.791 C 279.563 110.483, 279.734 93.586, 280.584 90.801 C 281.226 88.698, 284.679 87.496, 286.298 88.812 C 286.959 89.350, 291.325 91.813, 296 94.285 C 303.540 98.273, 305.178 98.765, 310.500 98.640 L 316.500 98.500 317.127 88 C 317.473 82.225, 317.810 71.958, 317.877 65.185 L 318 52.871 308.329 53.185 C 298.747 53.497, 298.643 53.528, 297.005 56.500 C 295.791 58.703, 294.176 59.805, 290.926 60.647 C 288.492 61.277, 285.797 62.081, 284.937 62.432 C 281.721 63.746, 280.191 59.987, 279.458 48.973 C 278.656 36.933, 279.695 34.429, 284.439 36.967 C 288.303 39.035, 289.262 37.524, 288.675 30.288 C 288.387 26.729, 287.934 23.601, 287.669 23.336 C 287.059 22.725, 242.675 22.223, 234.038 22.728 M 190 277.880 C 190 279.593, 191.557 280.005, 201.682 280.972 C 207.082 281.488, 214.425 282.232, 218 282.624 C 238.476 284.871, 322.321 282.392, 327.169 279.396 C 329.642 277.867, 327.515 276.906, 322.750 277.398 C 302.052 279.535, 211.459 279.540, 194.250 277.405 C 191.726 277.092, 190 277.285, 190 277.880 M 190.582 312.867 C 190.197 313.490, 190.246 314.015, 190.691 314.033 C 191.136 314.051, 194.650 314.504, 198.500 315.041 C 212.700 317.020, 248.789 318.894, 264.500 318.469 C 287.115 317.857, 304.838 316.805, 315.801 315.424 C 322.017 314.641, 327.331 314, 327.610 314 C 327.890 314, 327.801 313.487, 327.413 312.859 C 326.894 312.020, 322.186 311.954, 309.604 312.609 C 287.651 313.753, 230.486 313.757, 208.391 312.617 C 195.880 311.972, 191.094 312.039, 190.582 312.867 M 152 674.391 C 152 675.276, 152.113 676.003, 152.250 676.006 C 152.387 676.009, 155.200 676.470, 158.500 677.030 C 168.987 678.809, 178.262 679.989, 186.500 680.591 C 190.900 680.913, 197.875 681.530, 202 681.962 C 221.491 684.002, 294.821 683.987, 315 681.938 C 319.125 681.519, 326.100 680.913, 330.500 680.591 C 338.738 679.989, 348.013 678.809, 358.500 677.030 C 361.800 676.470, 364.613 676.009, 364.750 676.006 C 364.887 676.003, 365 675.276, 365 674.391 C 365 672.975, 363.709 672.853, 354.250 673.374 C 348.337 673.701, 336.300 674.247, 327.500 674.589 C 318.700 674.930, 311.176 675.406, 310.780 675.646 C 309.857 676.204, 207.144 676.201, 206.204 675.643 C 205.817 675.414, 198.300 674.946, 189.500 674.603 C 180.700 674.261, 168.662 673.711, 162.750 673.381 C 153.288 672.853, 152 672.974, 152 674.391 M 378.469 730.065 C 373.382 733.481, 363.825 737.730, 355.759 740.164 C 351.502 741.449, 348.015 742.832, 348.009 743.237 C 347.982 745.392, 375.654 759.767, 389 764.530 C 400.217 768.534, 418.002 769.966, 430.998 767.911 C 433.855 767.460, 438.512 766.999, 441.346 766.888 C 446.853 766.672, 451 765.545, 451 764.265 C 451 763.834, 447.738 762.427, 443.750 761.139 C 429.129 756.417, 408.739 746.228, 393.643 736.100 C 380.458 727.255, 381.838 727.804, 378.469 730.065 M 124.327 734.728 C 113.387 740.269, 110.690 744.573, 118.810 743.531 C 123.518 742.926, 138.203 741.895, 153.262 741.112 C 159.992 740.762, 165.038 740.072, 165.057 739.500 C 165.075 738.950, 160.682 737.735, 155.295 736.800 C 149.908 735.865, 142.272 734.238, 138.327 733.184 L 131.154 731.269 124.327 734.728 M 104.500 750.480 C 100.934 751.631, 85.320 756.270, 84.500 756.422 C 81.335 757.013, 68.304 761.418, 67.250 762.253 C 60.911 767.282, 75.801 770.752, 104.500 770.933 C 115.500 771.003, 127.875 770.620, 132 770.084 C 136.125 769.547, 142.200 768.866, 145.500 768.571 C 148.800 768.275, 155.550 767.583, 160.500 767.032 C 176.725 765.227, 191.264 763.828, 206 762.655 C 217.709 761.722, 220.500 761.211, 220.500 760 C 220.500 758.115, 205.288 756.373, 172 754.446 C 167.325 754.176, 161.475 753.724, 159 753.442 C 156.525 753.161, 150.450 752.693, 145.500 752.404 C 140.550 752.115, 132.355 751.456, 127.289 750.939 C 118.466 750.039, 106.608 749.801, 104.500 750.480" stroke="none" fill="black" fill-rule="evenodd"/>
</svg>