<svg class="chess-piece chess-piece--bn-right"   width="408" height="602" viewBox="0 0 408 602" version="1.1" id="bN-right" xmlns="http://www.w3.org/2000/svg" data-piece="bN-right" data-piece-name="black-knight-right" data-color="black" data-type="unknown" data-original="bN-right">
	<path d="M 138.614 17.563 C 133.390 31.176, 134.134 51.092, 140.157 58.885 C 143.473 63.175, 143.382 63.321, 131.019 73.500 C 127.012 76.800, 121.837 81.075, 119.519 83 C 117.202 84.925, 112.244 88.975, 108.500 92 C 104.756 95.025, 99.806 99.075, 97.500 101 C 95.194 102.925, 90.317 106.944, 86.663 109.930 C 78.779 116.374, 78.354 117.357, 80.959 123.098 C 84.616 131.159, 83.836 133.837, 75 143.540 C 42.348 179.396, 21.790 205.077, 17.478 215.399 C 16.729 217.192, 15.385 219.266, 14.492 220.007 C 10.348 223.446, 9.620 228.374, 11.995 236.922 C 12.542 238.890, 12.991 242.161, 12.994 244.191 C 12.997 246.221, 13.415 248.138, 13.921 248.451 C 14.428 248.764, 15.636 251.154, 16.607 253.760 C 18.645 259.235, 23.172 266.656, 30.327 276.250 C 34.558 281.923, 35.832 283, 38.315 283 C 44.610 283, 48.890 280.784, 55.115 274.302 C 58.488 270.789, 61.461 268.127, 61.721 268.387 C 61.981 268.647, 61.025 271.781, 59.597 275.351 C 56.611 282.814, 56.387 285.247, 58.525 287.021 C 61.019 289.091, 72.372 287.558, 83.187 283.690 C 97.288 278.646, 100.550 276.889, 100.244 274.500 C 97.771 255.147, 100.547 246.063, 110.917 239.571 C 118.554 234.790, 123.404 233.877, 146 232.965 C 174.070 231.833, 181.839 229.406, 193.320 218.187 C 208.168 203.679, 212.962 191.178, 213.720 165 C 214.203 148.307, 215.185 143.540, 216.680 150.620 C 219.811 165.437, 214.159 202.218, 205.885 220.874 C 193.732 248.279, 184.121 262.615, 164.904 282 C 148.614 298.432, 134.975 308.269, 103.202 326.500 C 74.622 342.899, 66.811 349.468, 60.476 362.430 C 53.373 376.962, 52.147 391.527, 57.172 401.664 C 61.611 410.619, 74.521 421.788, 88.722 428.958 C 96.323 432.796, 96.777 433.435, 93.014 434.994 C 91.386 435.668, 87.469 438.154, 84.309 440.518 L 78.563 444.816 70.211 444.550 C 59.189 444.198, 57.022 445.799, 62.156 450.504 C 70.452 458.107, 71.557 461.572, 67.902 468.515 C 64.172 475.598, 59.077 479.873, 48 485.214 C 42.225 487.999, 34.699 491.636, 31.275 493.297 C 23.282 497.174, 22.253 499.654, 24.542 509.527 C 26.163 516.513, 31.677 531.487, 35.102 538.201 C 36.701 541.334, 37.637 545.808, 36.750 546.075 C 36.612 546.117, 33.350 546.373, 29.500 546.645 C 21.561 547.204, 18.543 548.702, 17.574 552.561 C 17.205 554.032, 17.037 555.367, 17.201 555.526 C 17.809 556.117, 31.241 557.250, 52.500 558.503 C 66.326 559.318, 73 560.173, 73 561.129 C 73 561.608, 72.888 562.003, 72.750 562.008 C 72.612 562.012, 68.675 562.460, 64 563.003 C 59.325 563.547, 49.425 564.449, 42 565.009 C 25.591 566.246, 17.620 567.055, 17.136 567.534 C 16.936 567.732, 17.100 573.349, 17.501 580.015 C 18.169 591.134, 18.406 592.203, 20.365 592.939 C 23.183 593.998, 365.012 593.742, 367.156 592.679 C 368.976 591.777, 370.885 571.362, 369.544 567.137 C 368.445 563.675, 366.095 563.101, 348.357 561.962 C 328.720 560.701, 325 560.233, 325 559.019 C 325 558.530, 332.844 557.987, 342.430 557.814 C 358.161 557.531, 360.128 557.300, 362.603 555.450 C 369.160 550.548, 367.594 547.151, 357.807 545.052 C 354.963 544.442, 352.043 543.451, 351.318 542.849 C 348.466 540.482, 350.136 531.015, 354.692 523.731 C 357.437 519.342, 361.994 503.172, 361.997 497.807 C 361.999 495.122, 361.393 493.688, 359.777 492.557 C 356.947 490.574, 355.901 490.579, 356.665 492.570 C 357.163 493.868, 356.680 494.042, 353.884 493.570 C 341.423 491.468, 308.072 486.048, 306.078 485.801 C 302.192 485.318, 302.527 483.232, 306.688 482 C 317.316 478.854, 328.683 480.025, 341.819 485.620 C 343.644 486.397, 345.518 486.798, 345.983 486.510 C 346.449 486.223, 346.980 486.399, 347.165 486.902 C 347.349 487.405, 348.400 487.971, 349.500 488.158 C 350.600 488.346, 351.785 488.892, 352.134 489.372 C 352.483 489.851, 353.306 490.065, 353.962 489.846 C 354.619 489.627, 350.958 487.265, 345.828 484.596 C 332.982 477.914, 329.031 475.128, 325.824 470.489 C 320.230 462.398, 321.449 456.095, 329.556 451.199 C 334.985 447.920, 335.188 446.267, 330.250 445.534 C 318.476 443.786, 311.981 440.235, 312.015 435.563 C 312.023 434.428, 314.868 429.675, 318.337 425 C 329.722 409.656, 350.378 374.174, 357.399 357.902 C 360.794 350.033, 363.094 343.761, 362.721 343.388 C 362.521 343.187, 358.758 343.548, 354.361 344.189 C 347.165 345.237, 341.809 344.858, 343.264 343.403 C 343.566 343.100, 346.443 342.437, 349.657 341.929 C 365.972 339.349, 365.309 339.727, 367.386 331.829 C 368.156 328.898, 369.451 324.700, 370.263 322.500 C 372.540 316.332, 374.847 307.959, 375.614 303.084 C 376.254 299.013, 376.160 298.727, 374.404 299.427 C 373.357 299.845, 370.025 300.833, 367 301.622 C 363.975 302.412, 360.150 303.457, 358.500 303.945 C 356.850 304.433, 353.700 305.115, 351.500 305.460 L 347.500 306.089 350.500 304.441 C 352.150 303.535, 358.885 300.872, 365.468 298.523 L 377.435 294.252 378.630 285.888 C 381.379 266.649, 381.326 255.427, 378.508 259.986 C 377.963 260.870, 375.163 262.263, 366.500 265.963 C 357.717 269.715, 345.560 274.019, 344.633 273.705 C 344.010 273.494, 351.021 269.603, 360.214 265.059 C 383.498 253.548, 382 255.509, 382 236.548 C 382 226.966, 381.621 221, 381.011 221 C 380.467 221, 377.430 222.955, 374.261 225.345 C 366.690 231.056, 346.821 242.767, 343.284 243.603 C 340.558 244.248, 340.573 244.206, 344 241.584 C 345.925 240.112, 351.915 236.001, 357.312 232.449 C 362.709 228.896, 370.298 223.629, 374.177 220.745 L 381.230 215.500 380.593 207.500 C 379.802 197.567, 378.182 188.222, 376.730 185.216 C 375.643 182.967, 375.543 183.012, 370.063 188.256 C 364.451 193.626, 356.608 200.135, 352 203.246 C 350.625 204.175, 347.592 206.286, 345.259 207.937 C 334.745 215.381, 331.960 214.901, 341.310 207.256 C 362.004 190.334, 374.539 179.182, 374.779 177.479 C 375.022 175.758, 370.322 159.988, 367.081 151.651 L 365.974 148.801 349.630 164.651 C 334.243 179.572, 327 185.467, 327 183.069 C 327 182.495, 330.971 177.858, 335.824 172.763 C 352.669 155.080, 362 143.746, 362 140.968 C 362 138.336, 351.880 118.956, 350.840 119.599 C 350.365 119.892, 348.420 122.566, 346.517 125.540 C 340.211 135.398, 320.360 158.693, 319.229 157.562 C 318.954 157.287, 321.871 152.886, 325.710 147.781 C 333.571 137.330, 339.797 128.192, 342.593 123 C 343.630 121.075, 345.070 118.763, 345.793 117.862 C 348.125 114.956, 347.490 112.558, 342.447 105.223 C 337.110 97.460, 335.323 96.059, 334.212 98.767 C 333.614 100.222, 328.153 108.550, 322 117.386 C 315.380 126.895, 307 136.547, 307 134.665 C 307 134.289, 309.530 130.048, 312.623 125.241 C 320.687 112.706, 320.481 113.056, 326.449 101.729 L 331.894 91.393 325.042 83.946 C 317.310 75.544, 317.845 75.478, 312.479 85.500 C 305.454 98.623, 297.176 111.779, 294.599 113.918 C 292.055 116.029, 292.549 113.129, 295.462 108.841 C 299.362 103.102, 307.595 86.330, 312.021 75.110 L 313.358 71.721 306.429 65.436 C 298.272 58.036, 299.271 57.553, 291.543 72.636 C 285.079 85.252, 280.092 93.174, 278.242 93.768 C 276.752 94.246, 277.203 92.932, 282.281 82 C 284.197 77.875, 287.004 71.575, 288.519 68 C 290.034 64.425, 291.887 60.053, 292.636 58.284 L 293.998 55.068 287.249 50.704 C 276.741 43.909, 277.969 43.345, 270.700 58.303 C 267.172 65.561, 263.291 72.625, 262.076 74 L 259.866 76.500 260.337 74 C 260.596 72.625, 263.326 65.540, 266.404 58.255 C 272.101 44.771, 272.718 42.562, 271.070 41.543 C 269.584 40.625, 253.606 35.010, 252.463 35.005 C 251.892 35.002, 249.922 39.612, 248.086 45.250 C 241.732 64.749, 239.209 66.574, 243.036 48.902 C 246.502 32.900, 246.469 33.584, 243.845 32.225 C 241.094 30.799, 227.877 27.958, 226.875 28.577 C 226.497 28.811, 225.901 31.364, 225.552 34.251 C 223.658 49.898, 223.031 50.276, 221.519 36.687 L 220.496 27.500 214.998 26.859 C 204.324 25.613, 186.048 26.891, 175.960 29.589 C 170.757 30.980, 165.488 32.369, 164.250 32.676 C 160.542 33.595, 161.612 35.548, 169.758 42.726 C 176.800 48.932, 187.638 55.271, 195 57.491 C 196.375 57.906, 197.950 58.581, 198.500 58.992 C 199.050 59.403, 201.300 60.310, 203.500 61.008 C 212.046 63.718, 234.015 75.875, 243 82.865 C 252.218 90.038, 273.246 111.629, 277.705 118.500 C 288.223 134.710, 297.365 152, 299.443 159.615 C 300.176 162.302, 301.139 165.400, 301.582 166.500 C 302.298 168.275, 302.221 168.331, 300.898 167 C 300.078 166.175, 298.100 162.407, 296.501 158.626 C 294.903 154.846, 292.336 149.768, 290.797 147.342 C 289.259 144.916, 288 142.739, 288 142.504 C 288 141.202, 269.397 114.578, 264.951 109.518 C 251.675 94.406, 236.689 83.198, 213.332 70.912 C 207.953 68.082, 193.880 63, 191.424 63 C 179.112 63, 151.537 39.165, 143.486 21.564 C 140.867 15.838, 139.657 14.845, 138.614 17.563 M 137.359 71.229 C 117.845 91.798, 112.542 97.079, 101.750 106.685 C 90.079 117.074, 88.609 119.257, 90.877 122.835 C 91.688 124.114, 104.852 119.153, 123.750 110.445 C 129.868 107.626, 130.885 104.281, 126.500 101.408 C 123.333 99.333, 123.361 97.691, 126.679 90.946 C 130.074 84.044, 136.419 75.712, 142.439 70.253 C 146.561 66.514, 147.611 64, 145.050 64 C 144.592 64, 141.131 67.253, 137.359 71.229 M 79.868 146.750 C 71.700 154.005, 66.268 159.553, 56.466 170.654 C 39.820 189.507, 34.167 196.408, 24.110 210.154 C 20.871 214.581, 24.420 212.852, 29.754 207.404 C 61.143 175.343, 89.559 143.892, 88.287 142.620 C 86.923 141.256, 84.981 142.209, 79.868 146.750 M 98.348 149.750 C 93.554 154.907, 88.046 168.228, 88.012 174.750 C 87.990 178.851, 89.598 177.092, 93.041 169.250 C 95.674 163.253, 97.976 159.966, 103.222 154.716 C 106.950 150.984, 110 147.722, 110 147.466 C 110 147.209, 107.954 147, 105.452 147 C 101.778 147, 100.414 147.528, 98.348 149.750 M 24.627 215.706 C 23.282 217.051, 24.195 217.943, 29.321 220.289 C 33.434 222.173, 35.069 223.607, 36.525 226.613 C 37.879 229.409, 38.512 230.006, 38.779 228.740 C 39.157 226.949, 36.049 221.116, 33.661 219.134 C 31.560 217.390, 25.313 215.020, 24.627 215.706 M 118 324.491 C 113.325 327.473, 107.548 331.099, 105.163 332.549 C 87.059 343.558, 69.542 357.942, 71.660 360.060 C 73.774 362.174, 90.097 352.039, 106.842 338.213 C 111.980 333.971, 118.280 328.872, 120.842 326.882 C 132.491 317.833, 130.745 316.364, 118 324.491 M 81.001 446.750 C 81 447.438, 81.338 448.024, 81.750 448.054 C 82.162 448.084, 89.025 448.706, 97 449.437 C 127.487 452.232, 262.195 452.249, 297.500 449.463 C 313.657 448.187, 318 447.442, 318 445.947 C 318 445.496, 264.675 445.211, 199.501 445.314 C 105.468 445.462, 81.001 445.758, 81.001 446.750 M 61 484.180 C 48.649 488.222, 36.020 493.504, 35.506 494.844 C 35.039 496.062, 39.877 495.927, 46.500 494.537 C 47.050 494.421, 49.750 493.991, 52.500 493.581 C 55.250 493.171, 62 492.019, 67.500 491.021 C 73 490.022, 80.088 488.902, 83.250 488.531 C 94.296 487.235, 88.679 483.352, 74.500 482.483 C 69.178 482.156, 65.942 482.563, 61 484.180 M 44.667 540.667 C 39.385 545.949, 77.604 548.507, 147 547.516 C 166.525 547.237, 201.398 546.741, 224.494 546.412 C 247.591 546.084, 266.763 545.646, 267.099 545.439 C 267.434 545.231, 278.462 544.982, 291.604 544.884 C 315.537 544.706, 341.209 543.516, 343.972 542.457 C 345.268 541.960, 345.268 541.781, 343.972 540.962 C 342.290 539.898, 45.728 539.606, 44.667 540.667" stroke="none" fill="black" fill-rule="evenodd"/>
</svg>