<svg class="chess-piece chess-piece--bn-left"   width="408" height="602" viewBox="0 0 408 602" version="1.1" id="bN-left" xmlns="http://www.w3.org/2000/svg" data-piece="bN-left" data-piece-name="black-knight-left" data-color="black" data-type="unknown" data-original="bN-left">
	<path d="M 265.514 21.564 C 257.481 39.124, 229.889 63, 217.628 63 C 215.453 63, 204.401 66.866, 198.279 69.769 C 176.408 80.138, 158.019 93.617, 144.049 109.518 C 139.622 114.557, 121 141.200, 121 142.494 C 121 142.724, 119.968 144.431, 118.708 146.289 C 117.447 148.147, 114.873 153.230, 112.988 157.584 C 109.976 164.542, 104.991 172.521, 107.418 166.500 C 107.861 165.400, 108.824 162.302, 109.557 159.615 C 111.635 152, 120.777 134.710, 131.295 118.500 C 135.754 111.629, 156.782 90.038, 166 82.865 C 174.985 75.875, 196.954 63.718, 205.500 61.008 C 207.700 60.310, 209.950 59.403, 210.500 58.992 C 211.050 58.581, 212.625 57.906, 214 57.491 C 221.362 55.271, 232.200 48.932, 239.242 42.726 C 247.388 35.548, 248.458 33.595, 244.750 32.676 C 243.512 32.369, 238.243 30.980, 233.040 29.589 C 222.952 26.891, 204.676 25.613, 194.002 26.859 L 188.504 27.500 187.481 36.687 C 185.969 50.276, 185.342 49.898, 183.448 34.251 C 183.099 31.364, 182.489 28.802, 182.093 28.557 C 181.127 27.960, 168.103 30.823, 165.155 32.280 C 162.529 33.578, 162.496 32.891, 165.964 48.902 C 169.791 66.574, 167.268 64.749, 160.914 45.250 C 159.078 39.612, 157.108 35.002, 156.537 35.005 C 155.394 35.010, 139.416 40.625, 137.930 41.543 C 136.282 42.562, 136.899 44.771, 142.596 58.255 C 152.558 81.832, 150.326 82.624, 138.882 59.573 C 130.934 43.564, 131.872 44.056, 121.815 50.621 L 115.002 55.068 116.364 58.284 C 117.113 60.053, 118.966 64.425, 120.481 68 C 121.996 71.575, 124.803 77.875, 126.719 82 C 131.797 92.932, 132.248 94.246, 130.758 93.768 C 128.854 93.157, 123.617 84.819, 116.959 71.801 C 113.668 65.367, 110.643 59.901, 110.238 59.653 C 109.832 59.406, 106.382 62.020, 102.571 65.463 L 95.642 71.721 96.979 75.110 C 101.560 86.724, 107.660 99.359, 112.186 106.608 C 119.297 117.997, 115.980 117.483, 108.551 106.046 C 104.669 100.069, 102.364 96.086, 95.212 83 C 91.303 75.846, 91.421 75.836, 83.958 83.946 L 77.106 91.393 82.502 101.636 C 88.156 112.368, 90.437 116.212, 97.631 127.134 C 102.619 134.709, 103.138 136.409, 99.398 132.924 C 94.787 128.629, 76.418 103.188, 74.735 98.767 C 73.682 95.999, 71.817 97.521, 66.267 105.677 L 61.067 113.320 64.654 119.910 C 69.074 128.029, 74.207 135.706, 83.290 147.781 C 87.129 152.886, 90.046 157.287, 89.771 157.562 C 88.659 158.675, 70.070 136.908, 62.112 125.173 C 59.752 121.693, 57.651 119.016, 57.444 119.223 C 56.052 120.615, 47 139.436, 47 140.938 C 47 143.177, 56.745 155.418, 68.691 168.186 C 81.605 181.989, 82.405 182.928, 81.786 183.547 C 80.810 184.523, 70.033 175.281, 56.297 161.688 L 43.094 148.622 41.953 151.561 C 38.677 159.993, 33.977 175.750, 34.221 177.479 C 34.461 179.182, 46.996 190.334, 67.690 207.256 C 77.040 214.901, 74.255 215.381, 63.741 207.937 C 61.408 206.286, 58.375 204.175, 57 203.246 C 52.392 200.135, 44.549 193.626, 38.937 188.256 C 33.457 183.012, 33.357 182.967, 32.270 185.216 C 30.818 188.222, 29.198 197.567, 28.407 207.500 L 27.770 215.500 34.823 220.745 C 38.702 223.629, 46.291 228.896, 51.688 232.449 C 57.085 236.001, 63.075 240.112, 65 241.584 C 68.427 244.206, 68.442 244.248, 65.716 243.603 C 62.179 242.767, 42.310 231.056, 34.739 225.345 C 31.570 222.955, 28.533 221, 27.989 221 C 27.379 221, 27 226.966, 27 236.548 C 27 255.509, 25.502 253.548, 48.786 265.059 C 57.979 269.603, 64.990 273.494, 64.367 273.705 C 63.366 274.044, 50.028 269.228, 41.349 265.392 C 39.616 264.627, 37.766 264, 37.238 264 C 36.711 264, 34.654 262.897, 32.668 261.549 C 30.537 260.103, 28.805 259.506, 28.442 260.093 C 27.730 261.246, 28.709 274.263, 30.396 286.075 L 31.565 294.252 43.532 298.523 C 50.115 300.872, 56.850 303.545, 58.500 304.464 L 61.500 306.135 58 305.532 C 53.251 304.715, 39.057 301.044, 36.121 299.874 C 34.812 299.352, 33.481 299.186, 33.163 299.504 C 32.481 300.185, 36.748 317.928, 38.813 323 C 39.597 324.925, 40.863 328.898, 41.627 331.829 C 43.685 339.724, 43.025 339.348, 59.343 341.929 C 62.557 342.437, 65.434 343.100, 65.736 343.403 C 67.191 344.858, 61.835 345.237, 54.639 344.189 C 50.242 343.548, 46.494 343.173, 46.311 343.356 C 45.755 343.912, 48.511 351.012, 52.966 360.500 C 55.290 365.450, 57.613 370.580, 58.128 371.900 C 59.995 376.684, 84.525 416.712, 90.669 425 C 94.135 429.675, 96.977 434.428, 96.985 435.563 C 97.019 440.235, 90.524 443.786, 78.750 445.534 C 73.812 446.267, 74.015 447.920, 79.444 451.199 C 87.551 456.095, 88.770 462.398, 83.176 470.489 C 79.969 475.128, 76.018 477.914, 63.172 484.596 C 58.042 487.265, 54.381 489.627, 55.038 489.846 C 55.694 490.065, 56.517 489.851, 56.866 489.372 C 57.215 488.892, 58.400 488.346, 59.500 488.158 C 60.600 487.971, 61.651 487.405, 61.835 486.902 C 62.020 486.399, 62.551 486.223, 63.017 486.510 C 63.482 486.798, 65.356 486.388, 67.181 485.600 C 74.036 482.641, 84.738 480, 89.874 480 C 99.992 480, 110.832 484.819, 102.922 485.801 C 100.928 486.048, 67.577 491.468, 55.116 493.570 C 52.320 494.042, 51.837 493.868, 52.335 492.570 C 53.099 490.579, 52.053 490.574, 49.223 492.557 C 45.170 495.395, 47.892 511.098, 54.727 524.304 C 58.607 531.803, 60.103 539.966, 58.050 542.440 C 57.388 543.238, 54.420 544.394, 51.454 545.009 C 41.439 547.089, 39.784 550.506, 46.397 555.450 C 48.872 557.300, 50.839 557.531, 66.570 557.814 C 76.156 557.987, 84 558.530, 84 559.019 C 84 560.233, 80.280 560.701, 60.643 561.962 C 42.905 563.101, 40.555 563.675, 39.456 567.137 C 38.115 571.362, 40.024 591.777, 41.844 592.679 C 43.835 593.666, 384.222 594.033, 387.918 593.052 C 390.450 592.380, 390.517 592.128, 391.387 580.154 C 391.875 573.437, 392.100 567.768, 391.887 567.557 C 391.378 567.053, 383.551 566.254, 367 565.018 C 352.174 563.911, 336.797 562.130, 336.107 561.440 C 335.032 560.366, 337.544 559.962, 351.570 558.952 C 359.782 558.362, 372.271 557.396, 379.325 556.807 L 392.151 555.736 391.533 553.118 C 390.664 549.437, 387.402 547.018, 383.139 546.893 C 379.625 546.789, 374.296 546.398, 372.750 546.130 C 371.398 545.896, 371.963 541.993, 373.898 538.201 C 377.323 531.487, 382.837 516.513, 384.458 509.527 C 386.747 499.654, 385.718 497.174, 377.725 493.297 C 374.301 491.636, 366.775 487.999, 361 485.214 C 349.923 479.873, 344.828 475.598, 341.098 468.515 C 337.443 461.572, 338.548 458.107, 346.844 450.504 C 351.941 445.833, 349.852 444.292, 338.840 444.598 L 330.457 444.832 324.702 440.526 C 321.536 438.158, 317.614 435.668, 315.986 434.994 C 312.223 433.435, 312.677 432.796, 320.278 428.958 C 353.378 412.245, 362.330 391.187, 348.531 362.498 C 342.314 349.571, 334.427 342.928, 305.798 326.500 C 274.063 308.291, 260.641 298.604, 244.178 282.031 C 224.891 262.615, 215.106 248.048, 203.182 221 C 193.995 200.160, 188.349 160.674, 192.874 148.908 C 194.376 145.002, 194.838 148.136, 195.320 165.500 C 196.031 191.124, 200.914 203.758, 215.680 218.187 C 227.161 229.406, 234.930 231.833, 263 232.965 C 292.316 234.148, 300.827 237.324, 307.315 249.500 C 309.345 253.311, 310.194 267.060, 308.859 274.500 C 307.906 279.808, 345.536 291.120, 350.484 287.013 C 352.612 285.247, 352.386 282.807, 349.403 275.351 C 347.975 271.781, 347.019 268.647, 347.279 268.387 C 347.539 268.127, 350.512 270.789, 353.885 274.302 C 360.110 280.784, 364.390 283, 370.685 283 C 373.168 283, 374.442 281.923, 378.673 276.250 C 385.354 267.291, 390.548 259.076, 391.476 256 C 391.890 254.625, 393.043 251.925, 394.038 250 C 395.033 248.075, 396.116 244.250, 396.445 241.500 C 396.774 238.750, 397.432 234.250, 397.908 231.500 C 398.822 226.224, 397.787 222.728, 394.508 220.007 C 393.615 219.266, 392.271 217.192, 391.522 215.399 C 387.210 205.077, 366.652 179.396, 334 143.540 C 325.098 133.764, 324.443 131.489, 328.091 123.010 C 330.910 116.458, 331.402 117.111, 311.491 101 C 307.752 97.975, 302.806 93.925, 300.500 92 C 298.194 90.075, 293.245 86.025, 289.502 83 C 285.760 79.975, 279.957 75.138, 276.606 72.250 C 273.256 69.363, 270.190 67, 269.793 67 C 269.395 67, 268.562 66.051, 267.941 64.890 C 267.003 63.136, 267.376 61.670, 270.156 56.193 C 275.088 46.476, 275.331 33.660, 270.854 19.250 C 269.448 14.722, 268.444 15.157, 265.514 21.564 M 262.498 65.003 C 262.157 65.555, 263.986 67.917, 266.561 70.253 C 272.581 75.712, 278.926 84.044, 282.321 90.946 C 285.639 97.691, 285.667 99.333, 282.500 101.408 C 278.115 104.281, 279.132 107.626, 285.250 110.445 C 304.148 119.153, 317.312 124.114, 318.123 122.835 C 320.391 119.257, 318.921 117.074, 307.250 106.683 C 296.496 97.108, 288.683 89.329, 271.150 70.734 C 264.728 63.925, 263.619 63.190, 262.498 65.003 M 320.713 142.620 C 320.138 143.195, 322.599 146.259, 335.394 160.900 C 344.581 171.412, 383.280 211.893, 384.642 212.416 C 386.819 213.251, 386.219 211.327, 383.199 207.785 C 381.659 205.978, 378.348 201.729, 375.843 198.342 C 361.057 178.354, 326.675 142, 322.559 142 C 321.885 142, 321.054 142.279, 320.713 142.620 M 299 147.466 C 299 147.722, 302.050 150.984, 305.778 154.716 C 311.024 159.966, 313.326 163.253, 315.959 169.250 C 320.693 180.033, 322.732 179.063, 319.639 167.500 C 316.176 154.558, 310.244 147, 303.548 147 C 301.046 147, 299 147.209, 299 147.466 M 379.272 216.990 C 374.724 219.026, 369.575 225.668, 370.209 228.680 C 370.495 230.037, 371.071 229.511, 372.475 226.613 C 373.931 223.607, 375.566 222.173, 379.679 220.289 C 382.606 218.950, 385 217.463, 385 216.986 C 385 215.192, 383.285 215.193, 379.272 216.990 M 281.128 320.671 C 281.882 321.589, 284.786 324.177, 287.580 326.421 C 290.373 328.664, 296.898 333.971, 302.080 338.213 C 315.395 349.116, 318.454 351.209, 332.389 358.959 C 338.325 362.260, 339.440 360.070, 334.451 354.908 C 330.701 351.026, 313.182 338.232, 303.837 332.549 C 301.452 331.099, 295.675 327.473, 291 324.491 C 282.232 318.900, 278.480 317.448, 281.128 320.671 M 91 445.934 C 91 449.870, 124.568 451.321, 214.500 451.271 C 297.192 451.225, 328.001 449.963, 327.999 446.621 C 327.999 445.800, 296.259 445.450, 209.499 445.314 C 144.325 445.211, 91 445.490, 91 445.934 M 326.500 483.523 C 323.750 484.287, 321.163 484.932, 320.750 484.956 C 320.337 484.980, 320 485.633, 320 486.406 C 320 487.353, 321.714 488.024, 325.250 488.462 C 330.118 489.063, 346.782 491.824, 358.500 493.970 C 376.521 497.270, 378.549 495.685, 363.739 489.876 C 343.569 481.964, 336.474 480.754, 326.500 483.523 M 65.028 540.960 C 63.732 541.781, 63.732 541.960, 65.028 542.457 C 67.791 543.516, 93.463 544.706, 117.396 544.884 C 130.538 544.982, 141.566 545.231, 141.901 545.439 C 142.237 545.646, 161.409 546.084, 184.506 546.412 C 207.602 546.741, 242.475 547.237, 262 547.516 C 325.985 548.430, 366.216 546.149, 364.731 541.692 C 364.231 540.194, 67.382 539.468, 65.028 540.960" stroke="none" fill="black" fill-rule="evenodd"/>
</svg>