<svg class="chess-piece chess-piece--wp"   width="288" height="516" viewBox="0 0 288 516" version="1.1" id="wP" xmlns="http://www.w3.org/2000/svg" data-piece="wP" data-piece-name="white-pawn" data-color="white" data-type="pawn" data-original="bP">
	<path d="M 135.500 12.659 C 118.764 21.467, 119.177 41.620, 136.293 51.277 L 140.086 53.416 133.293 54.727 C 101.031 60.950, 78.982 94.040, 86.408 125.090 C 89.449 137.804, 99.842 153.031, 109.591 159.056 C 114.496 162.088, 114.026 162.947, 103.750 169.734 C 75.964 188.085, 69.153 194.310, 74.582 196.393 C 75.452 196.727, 85.308 197, 96.484 197 L 116.804 197 117.509 203.078 C 119.881 223.519, 113.840 262.379, 104.307 288 C 100.280 298.823, 90.404 319.130, 85.978 325.687 C 84.340 328.114, 82.970 330.415, 82.934 330.800 C 82.897 331.185, 81.400 333.525, 79.607 336 C 76.905 339.731, 75.719 340.553, 72.672 340.811 C 70.650 340.981, 67.876 341.702, 66.508 342.411 C 60.246 345.660, 108.484 347.199, 180.502 346.048 C 223.514 345.361, 232.280 344.512, 221.115 342.118 C 218.248 341.503, 214.845 341, 213.554 341 C 209.452 341, 192.906 313.206, 185.276 293.500 C 174.160 264.788, 170.500 245.837, 170.500 217 L 170.500 197.500 193.969 197.231 C 206.877 197.083, 217.828 196.572, 218.304 196.096 C 219.505 194.895, 216.667 189.734, 213.230 186.869 C 211.667 185.566, 203.329 179.775, 194.702 174 C 186.074 168.225, 179.012 163.030, 179.008 162.455 C 179.003 161.881, 181.269 159.681, 184.042 157.566 C 218.189 131.525, 212.677 79.698, 173.685 60.180 C 167.266 56.967, 157.444 54.016, 153.040 53.978 L 150.500 53.956 153 52 C 154.375 50.924, 155.974 50.034, 156.554 50.022 C 160.005 49.949, 168.012 36.803, 167.994 31.239 C 167.972 24.204, 162.391 15.992, 155.509 12.865 C 150.419 10.553, 139.712 10.442, 135.500 12.659 M 144.544 14.928 C 144.229 15.438, 144.990 16.149, 146.235 16.508 C 154.013 18.745, 160.066 24.015, 162.331 30.519 L 163.717 34.500 164.435 31.263 C 165.426 26.798, 161.838 19.820, 156.856 16.523 C 152.994 13.967, 145.721 13.025, 144.544 14.928 M 141.697 60.700 C 139.818 61.187, 141.087 64, 143.187 64 C 144.851 64, 155.274 69.023, 163.217 73.653 C 182.288 84.770, 198 109.165, 198 127.660 C 198 131.505, 199.501 132.125, 200.375 128.641 C 207.915 98.601, 191.163 68.821, 162.384 61.104 C 158.362 60.025, 145.283 59.770, 141.697 60.700 M 152.563 177.544 C 148.365 179.733, 141.915 181.010, 134.496 181.121 C 130.324 181.184, 127.659 181.706, 126.910 182.609 C 126.020 183.681, 126.069 184.012, 127.128 184.054 C 127.882 184.083, 142.213 184.060, 158.973 184.002 C 192.053 183.887, 193.017 183.714, 188.270 178.760 L 185.626 176 170.563 176.006 C 158.991 176.011, 154.819 176.367, 152.563 177.544 M 63 347.039 C 63 347.541, 63.898 349.425, 64.996 351.226 C 68.201 356.482, 67.761 365.579, 63.927 373.306 C 58.008 385.239, 44.926 399.969, 34.449 406.499 C 23.203 413.509, 19.078 419.830, 20.391 428.042 C 20.728 430.153, 20.612 432.122, 20.132 432.418 C 19.652 432.715, 19.384 437.130, 19.535 442.229 C 19.820 451.859, 21.987 460.007, 25.981 466.469 C 28.842 471.098, 28.550 471.845, 23.750 472.193 L 19.500 472.500 19.202 477.092 C 18.944 481.056, 19.325 482.137, 21.981 484.980 C 23.674 486.792, 24.933 488.390, 24.779 488.532 C 24.626 488.674, 22.848 489.475, 20.828 490.311 C 14.357 492.993, 11.338 501.434, 13.984 509.451 C 15.427 513.824, 17.846 514.959, 23.419 513.878 C 29.922 512.618, 41.985 512.907, 48.500 514.480 C 53.541 515.697, 71.566 515.934, 161.327 515.964 L 268.154 516 271.077 513.077 C 276.035 508.118, 274.761 494.083, 269.075 491.040 C 268.028 490.480, 262.520 489.768, 256.836 489.458 C 237.411 488.399, 235.561 487.441, 250.044 485.943 C 270.170 483.861, 269.749 484.047, 270.207 477 L 270.500 472.500 208 472.676 C 142.369 472.860, 110.909 471.758, 113.308 469.359 C 113.590 469.077, 127.473 468.448, 144.160 467.962 C 192.852 466.542, 209.725 466.009, 222.545 465.484 C 229.170 465.212, 241.545 464.707, 250.045 464.361 C 258.545 464.014, 265.636 463.618, 265.802 463.480 C 266.501 462.899, 270.098 440.254, 270.538 433.665 C 271.365 421.259, 271.438 421.355, 260.700 420.741 C 247.279 419.973, 234.157 417.197, 214.500 410.965 C 207.900 408.873, 199.274 406.499, 195.332 405.690 C 184.544 403.476, 183.303 402.105, 190.250 400.075 C 195.952 398.409, 205.894 392.921, 212.108 388.009 C 214.897 385.804, 217.764 384, 218.479 384 C 219.194 384, 223.662 387.327, 228.408 391.393 C 236.658 398.461, 247.078 405.942, 253.500 409.407 C 255.150 410.297, 258.217 412.170, 260.315 413.568 C 263.612 415.766, 263.988 415.847, 263.087 414.163 C 262.513 413.091, 258.097 409.588, 253.272 406.379 C 228.463 389.879, 214.678 365.352, 222.070 350.863 C 224.593 345.916, 224.738 346.048, 218 347.155 C 204.630 349.351, 82.035 348.903, 66.250 346.600 C 64.463 346.339, 63 346.537, 63 347.039" stroke="none" fill="white" fill-rule="evenodd"/>
</svg>