<svg class="chess-piece chess-piece--wr"   width="286" height="414" viewBox="0 0 286 414" version="1.1" id="wR" xmlns="http://www.w3.org/2000/svg" data-piece="wR" data-piece-name="white-rook" data-color="white" data-type="rook" data-original="bR">
	<path d="M 55.500 15.945 C 49.871 18.249, 49.521 19.663, 49.221 41.352 C 48.925 62.767, 49.695 67.028, 54.250 69.175 C 55.213 69.629, 56.776 70.379, 57.725 70.843 C 58.673 71.307, 59.790 73.328, 60.207 75.336 C 61.131 79.780, 63.465 83.360, 76.043 99.625 C 82.140 107.509, 82.349 107.897, 82.965 112.500 C 83.346 115.347, 84.131 116.777, 85.688 117.461 C 86.892 117.989, 88.123 119.339, 88.425 120.461 C 88.726 121.582, 88.979 150.785, 88.986 185.356 C 89.001 252.405, 88.920 253.687, 83.954 264.596 C 79.200 275.043, 62.134 286.930, 51.809 286.985 C 46.379 287.015, 47.563 290.249, 54.163 293.418 C 61.892 297.129, 59.743 305, 51 305 C 46.353 305, 43 307.690, 43 311.418 C 43 313.219, 42.044 314.302, 39.250 315.668 C 33.255 318.597, 34.234 323.997, 41.006 325.351 C 42.603 325.671, 44.664 327.084, 45.586 328.492 C 47.607 331.575, 46.502 333.253, 40.313 336.500 C 27.772 343.078, 21 349.974, 21 356.165 C 21 360.747, 24.636 367.361, 29.959 372.461 C 34.781 377.080, 34.099 379, 27.635 379 C 17.856 379, 17 380.450, 17 397.016 C 17 410.216, 17.107 410.962, 19.223 412.443 C 21.205 413.832, 34.697 414, 144 414 C 253.303 414, 266.795 413.832, 268.777 412.443 C 270.887 410.965, 271 410.203, 271 397.398 C 271 380.792, 269.979 379, 260.514 379 C 252.707 379, 252.348 377.240, 258.817 370.671 C 271.904 357.383, 268.344 346.742, 247.378 336.484 C 242.093 333.898, 241.902 333.667, 242.196 330.176 C 242.471 326.897, 242.911 326.407, 246.831 325.026 C 254.122 322.457, 254.832 318.318, 248.500 315.298 C 246.170 314.187, 244.755 312.718, 244.409 311.050 C 243.451 306.426, 242.435 305.510, 237.900 305.180 C 228.180 304.474, 225.110 295.686, 233.824 293.512 C 239.478 292.101, 242.253 287, 237.366 287 C 225.247 287, 209.819 276.613, 203.947 264.500 C 199.167 254.641, 199 251.914, 199 183.932 L 199 120.136 202 118 C 204.181 116.447, 205 115.053, 205 112.892 C 205 109.100, 207.746 104.063, 213.937 96.500 C 222.360 86.209, 226.304 80.021, 227.528 75.175 C 228.520 71.246, 229.128 70.450, 231.332 70.186 C 237.377 69.462, 238 66.950, 238 43.299 C 238 29.860, 237.597 21.116, 236.920 19.850 C 235.287 16.799, 229.837 15, 222.232 15 C 214.474 15, 213 15.917, 213 20.745 C 213 27.286, 209.484 29.248, 198.485 28.845 C 187.754 28.452, 186.325 27.641, 185.664 21.573 C 185.038 15.824, 183.262 15, 171.500 15 C 159.793 15, 158.125 15.772, 157.414 21.521 C 156.656 27.654, 155.252 28.452, 144.515 28.845 C 133.471 29.249, 130 27.294, 130 20.668 C 130 15.768, 128.759 15.245, 116.671 15.056 C 104.775 14.869, 103 15.517, 103 20.046 C 103 21.600, 101.848 24.216, 100.411 25.923 C 97.864 28.950, 97.672 29, 88.585 29 C 77.879 29, 75.181 27.368, 74.646 20.571 C 74.484 18.516, 73.710 16.429, 72.926 15.933 C 71.164 14.818, 58.231 14.827, 55.500 15.945 M 54.455 20.455 C 52.009 22.900, 52 22.984, 52 43.300 C 52 66.019, 52.283 67, 58.829 67 C 61.328 67, 62 67.422, 62 68.989 C 62 73.342, 65.971 80.976, 72.076 88.361 C 84.151 102.966, 85.871 105.429, 86.932 109.644 C 87.588 112.248, 88.703 114.088, 89.845 114.451 C 92.271 115.221, 94 119.156, 94 123.907 C 94 126.005, 94.329 129.921, 94.731 132.610 C 95.458 137.477, 95.466 137.459, 96.481 128.500 L 97.500 119.500 106.500 119.298 C 128.812 118.797, 165.619 116.285, 164.662 115.329 C 164.384 115.050, 154.783 114.419, 143.328 113.925 C 86.763 111.487, 91 112.053, 91 106.941 C 91 103.728, 85.141 94.607, 74.340 81.006 C 71.174 77.019, 69.035 69.502, 70.646 68.026 C 71.116 67.596, 80.500 66.962, 91.500 66.617 C 121.736 65.669, 152.130 64.204, 152.665 63.668 C 153.547 62.786, 125.550 61.381, 81.682 60.105 L 60.865 59.500 60.682 43 C 60.501 26.591, 60.512 26.498, 62.748 26.181 C 64.343 25.954, 65.260 26.536, 65.902 28.181 C 67.191 31.486, 72.917 36.537, 76.868 37.855 C 79.983 38.894, 87.144 38.747, 97.643 37.429 C 102.526 36.817, 108.174 31.926, 110.077 26.663 C 110.816 24.621, 112.330 22.871, 113.900 22.247 C 116.343 21.275, 116.247 21.206, 112.329 21.106 C 108.520 21.009, 108.105 21.247, 107.531 23.859 C 107.185 25.432, 105.546 28.019, 103.888 29.607 L 100.873 32.496 89.187 32.184 C 78.145 31.890, 77.348 31.728, 74.750 29.249 C 73.237 27.806, 72 25.555, 72 24.247 C 72 19.131, 70.447 18, 63.419 18 C 57.841 18, 56.558 18.351, 54.455 20.455 M 94.620 166.107 C 93.013 171.344, 92 191.292, 92 217.692 C 92 252.044, 90.466 264.142, 85.358 270.079 C 84.611 270.947, 83.995 272.072, 83.989 272.579 C 83.975 273.833, 76.407 281.802, 71.500 285.730 C 68.946 287.775, 68.091 288.945, 69.136 288.966 C 73.069 289.047, 83.663 281.372, 88.151 275.191 C 98.766 260.571, 99.307 257.535, 98.610 216.500 C 97.937 176.950, 96.574 159.736, 94.620 166.107 M 196 262.634 C 196 271.593, 203.076 281.916, 211.681 285.511 C 219.097 288.610, 221.520 286.644, 215.250 282.616 C 209.322 278.808, 203.524 272.032, 200.391 265.250 C 197.091 258.107, 196 257.457, 196 262.634 M 50.108 324.711 C 54.045 332.433, 51.782 336.616, 40.843 341.836 C 37.269 343.542, 32.242 346.896, 29.672 349.289 C 23.182 355.332, 23.433 358.443, 31.073 366.679 C 37.409 373.509, 38.413 375.589, 37.008 378.981 C 35.705 382.126, 33.976 382.740, 25 383.246 L 20.500 383.500 20.500 397 L 20.500 410.500 80 410.835 C 134.523 411.142, 215.323 409.866, 241 408.293 C 256.017 407.373, 248.699 406.445, 218.500 405.439 C 205.300 404.999, 194.050 404.564, 193.500 404.472 C 192.950 404.380, 155.263 404.236, 109.750 404.152 L 27 404 27 396.500 L 27 389 31.333 389 C 37.872 389, 43 383.626, 43 376.773 C 43 372.255, 42.606 371.464, 37.855 366.440 L 32.710 361 44.105 360.872 C 50.372 360.802, 56.625 360.599, 58 360.420 C 59.375 360.241, 77.968 359.668, 99.319 359.146 C 120.669 358.623, 138.351 357.982, 138.614 357.720 C 139.318 357.015, 126.883 356.118, 106.054 355.370 C 95.908 355.006, 86.683 354.606, 85.554 354.482 C 84.424 354.357, 72.138 354.198, 58.250 354.128 C 37.888 354.025, 33 353.741, 33 352.661 C 33 351.402, 44.997 343, 46.794 343 C 47.940 343, 52.491 338.013, 53.978 335.128 C 55.488 332.199, 54.682 327.766, 51.940 323.916 C 49.005 319.794, 47.855 320.294, 50.108 324.711" stroke="none" fill="white" fill-rule="evenodd"/>
</svg>